<svg width="533" height="565" viewBox="0 0 533 565" fill="none" xmlns="http://www.w3.org/2000/svg">
<path d="M266.5 540.061C413.429 540.061 532.537 471.246 532.537 386.358C532.537 301.471 413.429 232.656 266.5 232.656C119.572 232.656 0.463379 301.471 0.463379 386.358C0.463379 471.246 119.572 540.061 266.5 540.061Z" fill="#F0F0F0"/>
<path d="M211.449 502.828C262.115 502.828 303.188 479.1 303.188 449.83C303.188 420.561 262.115 396.833 211.449 396.833C160.783 396.833 119.71 420.561 119.71 449.83C119.71 479.1 160.783 502.828 211.449 502.828Z" fill="#E0E0E0"/>
<path d="M472.337 383.522L461.575 377.307C461.575 377.307 458.944 354.255 460.695 336.401C463.156 311.315 479.35 281.122 498.659 288.218C517.969 295.314 489.806 320.852 483.539 342.13C477.272 363.408 472.337 383.522 472.337 383.522Z" fill="#DDF344"/>
<path opacity="0.15" d="M472.337 383.522L461.575 377.307C461.575 377.307 458.944 354.255 460.695 336.401C463.156 311.315 479.35 281.122 498.659 288.218C517.969 295.314 489.806 320.852 483.539 342.13C477.272 363.408 472.337 383.522 472.337 383.522Z" fill="black"/>
<path d="M466.68 380.912C466.851 380.903 467.013 380.827 467.129 380.7C467.245 380.573 467.307 380.406 467.301 380.234C465.415 324.491 493.149 296.444 493.42 296.173C493.543 296.05 493.612 295.884 493.612 295.71C493.612 295.536 493.543 295.369 493.42 295.247C493.36 295.186 493.289 295.138 493.21 295.105C493.132 295.073 493.048 295.056 492.963 295.056C492.878 295.056 492.793 295.073 492.715 295.105C492.636 295.138 492.565 295.186 492.505 295.247C492.212 295.518 464.082 323.971 465.991 380.279C465.994 380.366 466.014 380.452 466.05 380.531C466.087 380.61 466.138 380.681 466.202 380.74C466.267 380.799 466.342 380.845 466.424 380.874C466.506 380.904 466.593 380.916 466.68 380.912Z" fill="white"/>
<path d="M479.101 387.398L471.445 382.98C471.445 382.98 470.135 367.16 477.893 347.95C484.668 331.226 501.381 317.338 509.805 320.253C518.229 323.169 518.015 329.146 513.904 335.418C509.794 341.689 484.826 356.617 479.101 387.398Z" fill="#DDF344"/>
<path d="M475.058 385.726C475.231 385.723 475.396 385.653 475.518 385.531C475.64 385.408 475.71 385.243 475.713 385.07C475.555 349.814 508.631 325.994 508.969 325.757C509.04 325.708 509.1 325.646 509.146 325.574C509.192 325.501 509.222 325.421 509.236 325.336C509.25 325.252 509.246 325.165 509.226 325.082C509.205 324.999 509.168 324.921 509.116 324.853C509.016 324.713 508.866 324.618 508.697 324.589C508.528 324.559 508.354 324.597 508.213 324.694C507.874 324.932 474.257 349.159 474.403 385.07C474.403 385.244 474.472 385.411 474.595 385.534C474.718 385.657 474.885 385.726 475.058 385.726Z" fill="white"/>
<path d="M74.1453 369.68L84.0826 362.967C84.0826 362.967 88.4528 336.977 84.3875 314.05C78.6736 281.89 56.4615 271.2 48.5568 274.59C40.6521 277.98 38.9583 287.551 53.7174 305.902C62.469 316.694 73.8404 339.735 74.1453 369.68Z" fill="#DDF344"/>
<g opacity="0.15">
<path d="M74.1453 369.68L84.0826 362.967C84.0826 362.967 88.4528 336.977 84.3875 314.05C78.6736 281.89 56.4615 271.2 48.5568 274.59C40.6521 277.98 38.9583 287.551 53.7174 305.902C62.469 316.694 73.8404 339.735 74.1453 369.68Z" fill="black"/>
</g>
<path d="M77.5554 356.798H77.4537C77.3522 356.791 77.2532 356.763 77.1632 356.716C77.0731 356.669 76.9941 356.603 76.9312 356.523C76.8683 356.443 76.823 356.351 76.7982 356.252C76.7735 356.153 76.7698 356.05 76.7875 355.95C80.3785 325.677 67.6068 292.817 53.7059 279.743C53.5721 279.608 53.4971 279.425 53.4971 279.234C53.4971 279.044 53.5721 278.861 53.7059 278.726C53.7721 278.658 53.8512 278.604 53.9384 278.568C54.0257 278.531 54.1194 278.512 54.214 278.512C54.3087 278.512 54.4024 278.531 54.4896 278.568C54.5769 278.604 54.656 278.658 54.7222 278.726C68.8828 292.037 81.8917 325.44 78.2555 356.153C78.2342 356.327 78.1521 356.486 78.0238 356.604C77.8955 356.722 77.7295 356.791 77.5554 356.798Z" fill="white"/>
<path d="M48.1277 387.24C46.5467 388.189 41.9394 384.765 40.6634 383.94C38.4765 382.511 36.6951 380.542 35.4915 378.222C34.1412 375.592 33.6402 372.607 34.0574 369.68C34.2886 368.152 34.6244 366.642 35.0624 365.16C35.4576 363.679 35.8528 362.199 36.1916 360.707C36.6924 359.257 36.8847 357.717 36.7562 356.187C36.3158 353.17 33.5944 351.102 31.1101 349.328C28.3773 347.351 25.4639 344.741 25.4639 341.102C25.6032 338.243 26.6966 335.514 28.5693 333.35C30.2631 331.09 32.2958 329.124 33.8202 326.762C35.0123 325.126 35.6207 323.136 35.548 321.112C35.3516 319.865 34.9061 318.669 34.238 317.598C32.9055 315.248 31.1778 313.078 30.2405 310.581C29.3033 308.083 29.371 304.874 31.3698 303.01C32.962 301.484 35.3899 301.236 37.5919 301.337C39.6668 301.544 41.6713 302.204 43.4639 303.27C49.3021 306.377 52.7349 313.157 58.9119 315.519C61.2946 316.423 63.8918 316.581 66.3648 317.191C68.8379 317.801 71.3899 319.01 72.5756 321.259C74.9132 325.723 70.8366 331.35 72.5079 336.085C73.9985 340.288 78.1541 341.825 80.5029 345.588C81.4562 347.259 81.8518 349.191 81.6321 351.102C81.4996 354.329 80.7762 357.505 79.4979 360.47C78.0276 363.546 76.3682 366.527 74.5292 369.397C74.5292 369.397 48.3648 387.093 48.1277 387.24Z" fill="#DDF344"/>
<path d="M63.3947 377.872C63.2998 377.871 63.2061 377.851 63.119 377.813C63.0319 377.775 62.953 377.721 62.887 377.652C62.8209 377.584 62.7689 377.504 62.734 377.415C62.699 377.327 62.6818 377.233 62.6833 377.138C63.3157 348.526 49.2454 317.248 39.2855 308.208C39.1439 308.08 39.0586 307.901 39.048 307.711C39.0374 307.52 39.1025 307.333 39.229 307.191C39.2953 307.123 39.3743 307.069 39.4616 307.033C39.5488 306.996 39.6425 306.977 39.7372 306.977C39.8318 306.977 39.9255 306.996 40.0128 307.033C40.1 307.069 40.1791 307.123 40.2453 307.191C50.4085 316.344 64.7611 348.165 64.1174 377.172C64.1159 377.265 64.0961 377.357 64.059 377.443C64.0219 377.529 63.9682 377.607 63.9011 377.672C63.834 377.737 63.7547 377.788 63.6678 377.822C63.5809 377.857 63.4881 377.874 63.3947 377.872Z" fill="white"/>
<path d="M58.1213 343.011C58.0546 343.028 57.9848 343.028 57.918 343.011C48.6809 340.345 37.2304 340.073 37.1175 340.062C37.0231 340.061 36.9299 340.04 36.8434 340.003C36.7569 339.965 36.6788 339.91 36.6136 339.842C36.5485 339.773 36.4975 339.693 36.4638 339.604C36.4301 339.516 36.4143 339.422 36.4174 339.328C36.4156 339.232 36.4336 339.137 36.4703 339.049C36.5071 338.961 36.5616 338.882 36.6306 338.816C36.6996 338.75 36.7815 338.699 36.8712 338.667C36.9608 338.634 37.0562 338.621 37.1514 338.627C37.2643 338.627 48.8954 338.909 58.3133 341.621C58.4953 341.676 58.6483 341.801 58.7392 341.968C58.8301 342.135 58.8515 342.331 58.7988 342.514C58.7549 342.659 58.6651 342.786 58.5429 342.876C58.4207 342.965 58.2728 343.013 58.1213 343.011Z" fill="white"/>
<path d="M324.272 350.006L319.992 347.532C319.279 347.068 318.685 346.443 318.259 345.707C317.834 344.97 317.588 344.144 317.542 343.294V165.297C317.588 164.448 317.833 163.623 318.257 162.887C318.68 162.151 319.271 161.525 319.981 161.059L438.946 92.3325C439.704 91.9483 440.541 91.748 441.391 91.748C442.24 91.748 443.078 91.9483 443.835 92.3325L448.115 94.8072C448.828 95.2705 449.422 95.8958 449.848 96.6321C450.274 97.3685 450.52 98.1951 450.566 99.0447V277.042C450.519 277.89 450.274 278.716 449.85 279.452C449.427 280.188 448.836 280.814 448.126 281.28L329.161 350.018C328.403 350.403 327.565 350.603 326.715 350.601C325.865 350.599 325.028 350.395 324.272 350.006Z" fill="#455A64"/>
<path d="M450.566 98.6492C450.396 97.3836 449.369 96.9203 448.138 97.6322L329.161 166.37C328.442 166.822 327.848 167.447 327.434 168.189L318.253 162.89C318.664 162.142 319.258 161.512 319.981 161.059L438.946 92.3325C439.704 91.9483 440.541 91.748 441.391 91.748C442.24 91.748 443.078 91.9483 443.835 92.3325L448.115 94.8072C448.776 95.233 449.337 95.7968 449.76 96.46C450.183 97.1231 450.458 97.8699 450.566 98.6492Z" fill="#455A64"/>
<path d="M328.743 350.21C328.02 350.503 327.243 350.637 326.464 350.604C325.685 350.571 324.922 350.371 324.226 350.018L319.935 347.532C319.226 347.066 318.635 346.44 318.211 345.704C317.788 344.968 317.543 344.142 317.496 343.294V165.297C317.525 164.447 317.77 163.618 318.208 162.89L327.388 168.189C326.942 168.919 326.693 169.752 326.665 170.608V348.605C326.711 350.006 327.591 350.65 328.743 350.21Z" fill="#263238"/>
<path d="M326.711 170.63V348.605C326.711 350.165 327.84 350.797 329.161 350.018L448.127 281.28C448.836 280.814 449.427 280.188 449.85 279.452C450.274 278.716 450.519 277.89 450.566 277.042V99.0447C450.566 97.4853 449.436 96.8525 448.127 97.6322L329.161 166.37C328.445 166.836 327.85 167.464 327.424 168.205C326.998 168.946 326.754 169.777 326.711 170.63Z" fill="#37474F"/>
<path d="M298.932 238.43C297.396 237.515 290.27 233.458 289.898 233.243C289.607 233.07 289.36 232.834 289.173 232.552C288.986 232.27 288.865 231.949 288.818 231.614C288.771 231.279 288.801 230.938 288.903 230.615C289.006 230.293 289.18 229.998 289.412 229.752L317.541 199.558L326.711 204.824L298.593 235.04C298.372 235.275 298.204 235.555 298.1 235.861C297.997 236.167 297.96 236.491 297.992 236.812C298.024 237.133 298.124 237.444 298.286 237.723C298.449 238.002 298.669 238.243 298.932 238.43Z" fill="#455A64"/>
<path d="M326.711 204.858L298.593 235.04C298.28 235.374 298.076 235.794 298.008 236.246C297.939 236.698 298.01 237.16 298.209 237.572C298.408 237.983 298.728 238.324 299.125 238.55C299.522 238.776 299.978 238.876 300.433 238.837L326.711 236.667V204.858Z" fill="#37474F"/>
<path d="M388.638 150.516C402.505 142.505 413.741 149.002 413.741 165.025C413.741 181.049 402.505 200.519 388.638 208.53C374.771 216.542 363.535 210.045 363.535 194.033C363.535 178.02 374.771 158.528 388.638 150.516Z" fill="#4949EB"/>
<path d="M388.457 163.127C392.974 160.528 396.599 162.63 396.599 167.828C396.445 170.653 395.628 173.403 394.213 175.853C392.799 178.303 390.827 180.385 388.457 181.93C383.94 184.529 380.304 182.427 380.304 177.229C380.459 174.403 381.278 171.653 382.695 169.202C384.112 166.752 386.086 164.671 388.457 163.127Z" fill="white"/>
<path d="M404.515 190.835C404.515 182.303 398.519 178.834 391.134 183.105L386.515 185.772C379.13 190.044 373.134 200.462 373.134 208.971V211.31C374.528 211.756 375.984 211.981 377.447 211.977C381.409 211.842 385.267 210.673 388.638 208.587C395.057 204.63 400.488 199.258 404.515 192.88V190.835Z" fill="white"/>
<path d="M372.739 287.845L404.538 269.471C405.893 268.692 406.988 269.324 406.988 270.884V281.133C406.942 281.982 406.696 282.809 406.27 283.545C405.845 284.282 405.251 284.907 404.538 285.37L372.739 303.744C371.383 304.524 370.288 303.891 370.288 302.332V292.083C370.334 291.233 370.58 290.406 371.006 289.67C371.432 288.934 372.025 288.308 372.739 287.845Z" fill="#4949EB"/>
<path d="M357.167 264.951L420.076 228.588C421.691 227.65 423.012 228.407 423.012 230.283V234.091C422.957 235.11 422.663 236.102 422.152 236.985C421.642 237.869 420.931 238.619 420.076 239.176L357.133 275.539C355.518 276.477 354.208 275.72 354.208 273.844V270.07C354.26 269.043 354.555 268.043 355.069 267.153C355.584 266.263 356.303 265.508 357.167 264.951Z" fill="#FAFAFA"/>
<path d="M364.529 238.633C365.387 238.136 366.053 238.057 366.528 238.407C367.002 238.758 367.239 239.537 367.239 240.735C367.263 241.829 367.019 242.911 366.528 243.888C366.084 244.771 365.388 245.503 364.529 245.99L362.835 246.973V250.623C362.832 250.748 362.801 250.872 362.745 250.984C362.705 251.087 362.634 251.174 362.541 251.233L361.683 251.73C361.654 251.752 361.618 251.764 361.582 251.764C361.545 251.764 361.509 251.752 361.48 251.73C361.419 251.654 361.391 251.556 361.401 251.459V240.893C361.4 240.769 361.427 240.645 361.48 240.532C361.523 240.431 361.593 240.345 361.683 240.283L364.529 238.633ZM362.835 244.928L364.472 243.978C364.868 243.755 365.202 243.437 365.444 243.052C365.7 242.598 365.826 242.081 365.805 241.56C365.805 240.95 365.681 240.6 365.444 240.498C365.276 240.457 365.102 240.455 364.933 240.493C364.765 240.53 364.607 240.605 364.472 240.713L362.835 241.662V244.928Z" fill="#FAFAFA"/>
<path d="M371.971 234.328C372.084 234.26 372.174 234.26 372.23 234.328C372.303 234.43 372.353 234.545 372.377 234.667L374.986 243.504C374.986 243.504 374.986 243.572 374.986 243.606C374.984 243.731 374.953 243.855 374.895 243.967C374.856 244.069 374.784 244.156 374.692 244.216L373.924 244.656C373.789 244.735 373.687 244.747 373.631 244.656C373.576 244.6 373.537 244.53 373.518 244.453L373.055 242.905L369.667 244.848L369.215 246.928C369.183 247.04 369.142 247.15 369.091 247.255C369.035 247.393 368.931 247.506 368.798 247.572L368.03 248.012C368.001 248.036 367.965 248.05 367.928 248.05C367.891 248.05 367.855 248.036 367.826 248.012C367.767 247.939 367.739 247.846 367.747 247.753C367.741 247.711 367.741 247.67 367.747 247.628L370.345 235.786C370.376 235.612 370.425 235.441 370.491 235.277C370.547 235.159 370.637 235.06 370.751 234.995L371.971 234.328ZM372.558 241.176L371.429 237.187L370.299 242.521L372.558 241.176Z" fill="#FAFAFA"/>
<path d="M378.938 230.136C379.316 229.897 379.746 229.754 380.192 229.718C380.507 229.689 380.823 229.761 381.095 229.921C381.343 230.082 381.536 230.315 381.648 230.588C381.772 230.866 381.841 231.165 381.852 231.469C381.859 231.595 381.832 231.72 381.773 231.831C381.733 231.933 381.662 232.02 381.569 232.079L380.824 232.509C380.7 232.577 380.609 232.588 380.553 232.509C380.483 232.463 380.425 232.401 380.384 232.328C380.338 232.226 380.273 232.135 380.191 232.059C380.11 231.983 380.014 231.925 379.909 231.887C379.565 231.838 379.216 231.928 378.938 232.136C378.755 232.254 378.581 232.386 378.419 232.531C378.251 232.686 378.103 232.86 377.978 233.051C377.858 233.235 377.76 233.432 377.685 233.639C377.618 233.835 377.584 234.042 377.583 234.249C377.57 234.439 377.605 234.63 377.685 234.803C377.719 234.863 377.768 234.915 377.827 234.952C377.887 234.99 377.954 235.012 378.024 235.017C378.233 235.054 378.447 235.054 378.656 235.017L379.638 234.803C380.004 234.694 380.386 234.648 380.768 234.667C381.04 234.666 381.305 234.754 381.524 234.916C381.731 235.09 381.88 235.322 381.953 235.582C382.064 235.948 382.113 236.33 382.1 236.712C382.099 237.217 382.027 237.719 381.885 238.204C381.748 238.702 381.547 239.181 381.287 239.628C381.014 240.086 380.688 240.511 380.316 240.893C379.936 241.288 379.503 241.626 379.029 241.899C378.681 242.111 378.299 242.26 377.899 242.34C377.574 242.402 377.239 242.375 376.928 242.261C376.646 242.13 376.413 241.912 376.262 241.639C376.077 241.291 375.977 240.904 375.968 240.509C375.967 240.381 375.994 240.253 376.047 240.136C376.097 240.04 376.171 239.958 376.262 239.899L377.007 239.47C377.12 239.402 377.21 239.379 377.278 239.413C377.346 239.447 377.391 239.504 377.436 239.605C377.483 239.721 377.544 239.832 377.617 239.933C377.687 240.031 377.786 240.106 377.899 240.148C378.048 240.182 378.202 240.182 378.351 240.148C378.591 240.091 378.82 239.996 379.029 239.865C379.248 239.74 379.455 239.597 379.65 239.436C380.029 239.135 380.331 238.748 380.53 238.306C380.621 238.079 380.667 237.838 380.666 237.594C380.677 237.505 380.669 237.416 380.644 237.33C380.618 237.245 380.576 237.165 380.519 237.097C380.458 237.043 380.386 237.003 380.308 236.979C380.23 236.956 380.148 236.95 380.067 236.961C379.811 236.972 379.557 237.013 379.311 237.085C379.017 237.153 378.678 237.232 378.283 237.3C377.981 237.376 377.668 237.399 377.357 237.368C377.113 237.352 376.882 237.252 376.702 237.085C376.507 236.894 376.37 236.651 376.307 236.385C376.216 235.992 376.174 235.59 376.183 235.187C376.182 234.689 376.254 234.194 376.397 233.718C376.532 233.228 376.73 232.757 376.985 232.317C377.229 231.88 377.525 231.474 377.865 231.108C378.175 230.734 378.536 230.407 378.938 230.136Z" fill="#FAFAFA"/>
<path d="M386.357 225.865C386.733 225.619 387.164 225.471 387.611 225.435C387.926 225.408 388.241 225.479 388.514 225.639C388.755 225.804 388.944 226.035 389.056 226.305C389.18 226.583 389.249 226.883 389.259 227.187C389.273 227.313 389.245 227.439 389.18 227.548C389.141 227.651 389.069 227.738 388.977 227.797L388.232 228.226C388.119 228.294 388.029 228.317 387.961 228.226C387.889 228.181 387.833 228.114 387.803 228.034C387.7 227.836 387.527 227.683 387.317 227.605C387.149 227.58 386.977 227.589 386.812 227.632C386.647 227.675 386.493 227.75 386.357 227.853C386.169 227.969 385.991 228.101 385.827 228.249C385.662 228.404 385.518 228.578 385.398 228.769C385.273 228.95 385.174 229.148 385.104 229.356C385.034 229.552 384.996 229.758 384.991 229.967C384.978 230.157 385.013 230.347 385.093 230.52C385.127 230.581 385.176 230.632 385.235 230.67C385.294 230.707 385.362 230.729 385.431 230.735C385.641 230.771 385.855 230.771 386.064 230.735L387.046 230.52C387.414 230.418 387.794 230.372 388.175 230.385C388.448 230.382 388.714 230.47 388.932 230.633C389.138 230.81 389.291 231.041 389.372 231.3C389.472 231.668 389.518 232.049 389.508 232.43C389.507 232.935 389.435 233.437 389.293 233.922C389.156 234.42 388.954 234.898 388.695 235.345C388.423 235.808 388.097 236.237 387.724 236.622C387.342 237.007 386.914 237.341 386.448 237.617C386.1 237.828 385.717 237.977 385.318 238.057C384.997 238.119 384.665 238.092 384.359 237.978C384.071 237.851 383.833 237.633 383.681 237.357C383.495 237.009 383.399 236.621 383.399 236.227C383.385 236.101 383.413 235.974 383.478 235.865C383.518 235.763 383.589 235.676 383.681 235.617L384.426 235.187C384.539 235.119 384.641 235.097 384.697 235.131C384.737 235.148 384.771 235.175 384.799 235.208C384.826 235.242 384.846 235.281 384.855 235.323C384.907 235.437 384.967 235.546 385.036 235.65C385.11 235.75 385.213 235.824 385.33 235.865C385.478 235.899 385.633 235.899 385.781 235.865C386.021 235.809 386.25 235.713 386.459 235.583C386.673 235.455 386.876 235.311 387.069 235.153C387.267 234.998 387.442 234.816 387.588 234.611C387.734 234.416 387.856 234.203 387.95 233.978C388.04 233.752 388.086 233.51 388.085 233.266C388.096 233.178 388.088 233.088 388.063 233.002C388.038 232.917 387.995 232.837 387.938 232.769C387.877 232.715 387.805 232.675 387.727 232.652C387.649 232.628 387.567 232.622 387.487 232.633C387.235 232.649 386.985 232.69 386.741 232.758C386.448 232.825 386.098 232.905 385.714 232.972C385.407 233.048 385.09 233.071 384.776 233.04C384.531 233.027 384.299 232.927 384.121 232.758C383.93 232.565 383.797 232.322 383.738 232.057C383.637 231.67 383.592 231.27 383.602 230.871C383.606 230.37 383.678 229.872 383.817 229.39C383.956 228.902 384.153 228.431 384.404 227.989C384.648 227.549 384.948 227.143 385.296 226.78C385.6 226.421 385.958 226.113 386.357 225.865Z" fill="#FAFAFA"/>
<path d="M394.589 227.277L393.674 232.69C393.647 232.853 393.602 233.012 393.539 233.164C393.495 233.286 393.412 233.39 393.302 233.458L392.444 233.955C392.331 234.023 392.252 234.023 392.195 233.955C392.119 233.862 392.076 233.747 392.071 233.628L390.716 224.079C390.716 224.079 390.716 223.989 390.716 223.955C390.719 223.829 390.75 223.706 390.806 223.593C390.849 223.493 390.92 223.407 391.009 223.345L391.789 222.893C391.854 222.866 391.927 222.866 391.992 222.893C392.06 222.893 392.105 222.983 392.127 223.164L393.019 229.594L393.799 224.768C393.819 224.648 393.853 224.531 393.9 224.418C393.945 224.275 394.042 224.154 394.171 224.079L395.041 223.571C395.165 223.503 395.255 223.514 395.312 223.571C395.361 223.643 395.395 223.723 395.413 223.808L396.204 227.729L397.096 220.271C397.107 220.124 397.149 219.982 397.22 219.853C397.273 219.769 397.342 219.696 397.423 219.638L398.203 219.186C398.232 219.164 398.268 219.152 398.304 219.152C398.341 219.152 398.377 219.164 398.406 219.186C398.438 219.223 398.463 219.266 398.478 219.313C398.494 219.359 398.5 219.409 398.496 219.457C398.501 219.503 398.501 219.548 398.496 219.593L397.141 230.701C397.119 230.863 397.077 231.023 397.017 231.176C396.965 231.296 396.879 231.398 396.769 231.469L395.899 231.967C395.797 232.023 395.718 232.023 395.662 231.967C395.605 231.863 395.559 231.753 395.526 231.639L394.589 227.277Z" fill="#FAFAFA"/>
<path d="M399.874 222.486C399.899 221.859 399.975 221.236 400.1 220.621C400.229 220.021 400.426 219.437 400.687 218.881C400.936 218.341 401.255 217.835 401.636 217.378C402.022 216.925 402.484 216.542 403.002 216.248C403.4 215.978 403.866 215.826 404.346 215.808C404.705 215.812 405.048 215.953 405.306 216.203C405.579 216.511 405.777 216.878 405.882 217.277C406.027 217.796 406.107 218.331 406.119 218.87C406.119 219.073 406.119 219.299 406.119 219.548C406.119 219.797 406.119 220.056 406.119 220.328C406.119 220.599 406.119 220.859 406.119 221.107C406.119 221.356 406.119 221.593 406.119 221.808C406.094 222.431 406.019 223.051 405.893 223.661C405.763 224.26 405.57 224.843 405.317 225.401C405.06 225.94 404.738 226.445 404.357 226.904C403.971 227.353 403.513 227.735 403.002 228.034C402.595 228.302 402.123 228.455 401.636 228.475C401.46 228.479 401.285 228.446 401.122 228.38C400.959 228.314 400.811 228.216 400.687 228.091C400.393 227.774 400.19 227.384 400.1 226.961C399.966 226.44 399.89 225.905 399.874 225.367C399.874 225.164 399.874 224.938 399.874 224.689C399.874 224.441 399.874 224.181 399.874 223.91C399.874 223.639 399.874 223.39 399.874 223.13C399.874 222.87 399.863 222.689 399.874 222.486ZM404.685 219.785C404.71 219.509 404.679 219.23 404.593 218.966C404.508 218.702 404.37 218.458 404.188 218.248C403.894 217.989 403.488 218 403.002 218.248C402.475 218.558 402.057 219.024 401.805 219.582C401.485 220.241 401.315 220.962 401.308 221.695C401.308 222.113 401.308 222.576 401.308 223.085C401.308 223.593 401.308 224.045 401.308 224.452C401.283 224.729 401.314 225.007 401.4 225.271C401.485 225.536 401.623 225.78 401.805 225.989C402.099 226.238 402.505 226.215 403.002 225.932C403.521 225.62 403.934 225.16 404.188 224.61C404.508 223.956 404.678 223.237 404.685 222.509C404.685 222.079 404.685 221.616 404.685 221.107C404.685 220.599 404.696 220.192 404.685 219.785Z" fill="#FAFAFA"/>
<path d="M411.042 211.74C411.934 211.231 412.601 211.152 413.064 211.525C413.338 211.827 413.542 212.187 413.661 212.578C413.78 212.968 413.811 213.381 413.752 213.785C413.762 214.552 413.643 215.316 413.402 216.045C413.173 216.724 412.817 217.353 412.352 217.898L413.82 221.096C413.825 221.149 413.825 221.201 413.82 221.254C413.821 221.356 413.798 221.457 413.752 221.548C413.721 221.63 413.666 221.701 413.594 221.751L412.691 222.271C412.544 222.35 412.443 222.362 412.375 222.271C412.315 222.212 412.265 222.143 412.228 222.068L410.839 219.051L409.428 219.864V223.684C409.428 223.809 409.401 223.932 409.348 224.045C409.302 224.143 409.232 224.229 409.145 224.294L408.287 224.791C408.258 224.815 408.223 224.828 408.185 224.828C408.148 224.828 408.112 224.815 408.084 224.791C408.051 224.756 408.027 224.715 408.011 224.671C407.995 224.626 407.989 224.578 407.993 224.531V213.966C407.997 213.84 408.028 213.716 408.084 213.604C408.124 213.502 408.195 213.415 408.287 213.355L411.042 211.74ZM409.45 217.819L411.042 216.96C411.431 216.743 411.764 216.437 412.013 216.067C412.275 215.632 412.401 215.128 412.375 214.621C412.375 214.011 412.251 213.672 412.013 213.604C411.67 213.557 411.321 213.646 411.042 213.853L409.507 214.734L409.45 217.819Z" fill="#FAFAFA"/>
<path d="M418.608 207.389C419.018 207.121 419.487 206.959 419.975 206.914C420.328 206.901 420.673 207.027 420.935 207.265C421.234 207.58 421.441 207.97 421.533 208.395C421.685 208.955 421.768 209.532 421.782 210.112C421.782 210.903 421.782 211.717 421.782 212.542C421.758 213.215 421.675 213.884 421.533 214.542C421.404 215.153 421.207 215.748 420.946 216.316C420.694 216.837 420.375 217.324 419.997 217.763C419.62 218.212 419.17 218.594 418.665 218.893L415.989 220.35C415.96 220.374 415.924 220.387 415.887 220.387C415.85 220.387 415.814 220.374 415.785 220.35C415.752 220.316 415.727 220.275 415.712 220.23C415.696 220.185 415.69 220.138 415.695 220.09V209.525C415.698 209.399 415.729 209.276 415.785 209.163C415.825 209.061 415.896 208.974 415.989 208.915L418.608 207.389ZM420.347 210.903C420.342 210.597 420.297 210.293 420.212 209.999C420.159 209.777 420.046 209.573 419.884 209.412C419.814 209.341 419.729 209.285 419.636 209.248C419.542 209.211 419.443 209.194 419.342 209.197C419.06 209.216 418.787 209.31 418.552 209.468L417.129 210.282V217.649L418.608 216.802C418.894 216.635 419.15 216.421 419.365 216.169C419.575 215.921 419.754 215.648 419.896 215.356C420.036 215.044 420.142 214.718 420.212 214.384C420.291 214.035 420.336 213.679 420.347 213.322C420.381 212.497 420.381 211.694 420.347 210.903Z" fill="#FAFAFA"/>
<path d="M263.541 43.3809C265.49 43.8149 267.368 44.5225 269.12 45.4827C270.797 46.3847 272.299 47.5786 273.558 49.0083C274.761 50.3835 275.655 52.0023 276.177 53.7543C276.71 55.6296 276.749 57.6111 276.29 59.506C275.987 61.0083 275.393 62.4365 274.54 63.7096C273.761 64.7982 272.834 65.772 271.785 66.6024C270.754 67.403 269.654 68.1102 268.499 68.7155L265.246 70.4444C264.267 70.9557 263.337 71.5572 262.468 72.2411C261.683 72.844 261.081 73.654 260.729 74.5802C260.557 75.0033 260.272 75.3708 259.905 75.6424C259.731 75.7774 259.529 75.871 259.314 75.916C259.099 75.9611 258.876 75.9564 258.663 75.9023L253.875 74.8401C253.644 74.7917 253.426 74.6978 253.232 74.5639C253.038 74.4301 252.873 74.2589 252.746 74.0604C252.611 73.8758 252.521 73.662 252.483 73.4363C252.446 73.2105 252.463 72.9791 252.531 72.7609C252.917 71.277 253.596 69.8859 254.53 68.6703C255.382 67.5949 256.368 66.634 257.466 65.8114C258.535 65.0282 259.668 64.3364 260.854 63.7435C261.983 63.1672 263.112 62.6135 264.095 62.0598C265.008 61.5682 265.868 60.9811 266.658 60.3083C267.351 59.7274 267.832 58.9324 268.024 58.0483C268.204 57.2805 268.195 56.4807 267.998 55.7171C267.802 54.9536 267.423 54.2491 266.895 53.6639C265.575 52.2212 263.81 51.2625 261.881 50.9406C258.313 50.1496 255.302 51.3511 252.847 54.5453C252.61 54.8939 252.312 55.1964 251.967 55.438C251.577 55.6313 251.127 55.6638 250.713 55.5284L245.62 54.3984C245.257 54.3281 244.936 54.1169 244.728 53.8108C244.617 53.6472 244.542 53.4617 244.509 53.2667C244.476 53.0717 244.485 52.8719 244.536 52.6808C244.969 51.1106 245.775 49.6684 246.885 48.4772C248.137 47.0957 249.624 45.9478 251.278 45.0872C253.086 44.1407 255.034 43.492 257.048 43.1662C259.206 42.815 261.411 42.8879 263.541 43.3809ZM258.132 79.7443C258.58 79.8495 258.969 80.126 259.216 80.5145C259.463 80.9031 259.548 81.3729 259.453 81.8235L258.234 87.3605C258.193 87.5923 258.103 87.8128 257.97 88.0075C257.838 88.2023 257.666 88.3668 257.466 88.4905C257.277 88.6209 257.063 88.7104 256.837 88.7532C256.612 88.796 256.38 88.7912 256.156 88.7391L250.691 87.4848C250.458 87.4456 250.237 87.3566 250.042 87.224C249.847 87.0914 249.683 86.9182 249.561 86.7164C249.435 86.5255 249.348 86.3108 249.308 86.0854C249.267 85.86 249.272 85.6287 249.324 85.4056L250.555 79.8686C250.66 79.4197 250.936 79.0295 251.324 78.7806C251.712 78.5317 252.181 78.4437 252.633 78.5352L258.132 79.7443Z" fill="#4949EB"/>
<path d="M269.571 96.3892C270.931 96.1709 272.315 96.1443 273.682 96.3101C274.988 96.4654 276.256 96.8478 277.431 97.4401C278.549 98.0207 279.534 98.829 280.322 99.8131C281.03 100.776 281.528 101.877 281.785 103.045C282.042 104.213 282.051 105.421 281.812 106.593C281.597 107.494 281.251 108.358 280.785 109.158C280.335 109.936 279.814 110.67 279.226 111.35C278.65 112.028 278.097 112.672 277.589 113.294C277.092 113.873 276.649 114.497 276.268 115.158C275.91 115.738 275.729 116.41 275.748 117.091C275.738 117.409 275.649 117.72 275.489 117.995C275.407 118.121 275.299 118.229 275.173 118.311C275.046 118.393 274.904 118.447 274.755 118.469L271.367 119.012C271.209 119.041 271.046 119.037 270.889 119.002C270.732 118.967 270.583 118.902 270.452 118.808C270.319 118.724 270.207 118.61 270.127 118.474C270.046 118.339 269.999 118.186 269.989 118.029C269.847 116.977 269.924 115.908 270.215 114.887C270.481 113.984 270.86 113.118 271.344 112.311C271.819 111.536 272.363 110.806 272.97 110.13C273.569 109.452 274.1 108.819 274.619 108.209C275.083 107.664 275.484 107.069 275.816 106.435C276.11 105.889 276.217 105.262 276.121 104.649C276.036 104.11 275.822 103.6 275.498 103.161C275.173 102.722 274.748 102.369 274.258 102.13C273.044 101.543 271.669 101.376 270.351 101.655C269.156 101.83 268.045 102.37 267.17 103.201C266.294 104.033 265.698 105.115 265.461 106.299C265.395 106.584 265.28 106.856 265.122 107.102C264.921 107.316 264.647 107.449 264.354 107.474L260.786 108.051C260.535 108.099 260.275 108.046 260.063 107.904C259.954 107.829 259.863 107.732 259.795 107.619C259.727 107.506 259.683 107.38 259.668 107.248C259.562 106.127 259.736 104.997 260.176 103.96C260.623 102.754 261.28 101.636 262.118 100.661C263.037 99.5921 264.119 98.6767 265.325 97.9486C266.627 97.1589 268.069 96.6293 269.571 96.3892ZM275.398 121.08C275.554 121.055 275.713 121.061 275.866 121.098C276.019 121.135 276.163 121.202 276.29 121.294C276.423 121.382 276.536 121.497 276.622 121.631C276.708 121.765 276.764 121.916 276.787 122.074L277.42 125.95C277.469 126.264 277.392 126.585 277.206 126.844C277.02 127.102 276.739 127.276 276.426 127.329L272.643 127.95C272.329 127.999 272.008 127.922 271.751 127.735C271.62 127.647 271.509 127.531 271.425 127.397C271.342 127.263 271.287 127.112 271.265 126.956L270.633 123.08C270.604 122.924 270.608 122.764 270.645 122.611C270.682 122.457 270.751 122.313 270.847 122.187C270.936 122.056 271.051 121.945 271.185 121.861C271.32 121.778 271.47 121.723 271.627 121.701L275.398 121.08Z" fill="#4949EB"/>
<g opacity="0.2">
<path d="M269.571 96.3892C270.931 96.1709 272.315 96.1443 273.682 96.3101C274.988 96.4654 276.256 96.8478 277.431 97.4401C278.549 98.0207 279.534 98.829 280.322 99.8131C281.03 100.776 281.528 101.877 281.785 103.045C282.042 104.213 282.051 105.421 281.812 106.593C281.597 107.494 281.251 108.358 280.785 109.158C280.335 109.936 279.814 110.67 279.226 111.35C278.65 112.028 278.097 112.672 277.589 113.294C277.092 113.873 276.649 114.497 276.268 115.158C275.91 115.738 275.729 116.41 275.748 117.091C275.738 117.409 275.649 117.72 275.489 117.995C275.407 118.121 275.299 118.229 275.173 118.311C275.046 118.393 274.904 118.447 274.755 118.469L271.367 119.012C271.209 119.041 271.046 119.037 270.889 119.002C270.732 118.967 270.583 118.902 270.452 118.808C270.319 118.724 270.207 118.61 270.127 118.474C270.046 118.339 269.999 118.186 269.989 118.029C269.847 116.977 269.924 115.908 270.215 114.887C270.481 113.984 270.86 113.118 271.344 112.311C271.819 111.536 272.363 110.806 272.97 110.13C273.569 109.452 274.1 108.819 274.619 108.209C275.083 107.664 275.484 107.069 275.816 106.435C276.11 105.889 276.217 105.262 276.121 104.649C276.036 104.11 275.822 103.6 275.498 103.161C275.173 102.722 274.748 102.369 274.258 102.13C273.044 101.543 271.669 101.376 270.351 101.655C269.156 101.83 268.045 102.37 267.17 103.201C266.294 104.033 265.698 105.115 265.461 106.299C265.395 106.584 265.28 106.856 265.122 107.102C264.921 107.316 264.647 107.449 264.354 107.474L260.786 108.051C260.535 108.099 260.275 108.046 260.063 107.904C259.954 107.829 259.863 107.732 259.795 107.619C259.727 107.506 259.683 107.38 259.668 107.248C259.562 106.127 259.736 104.997 260.176 103.96C260.623 102.754 261.28 101.636 262.118 100.661C263.037 99.5921 264.119 98.6767 265.325 97.9486C266.627 97.1589 268.069 96.6293 269.571 96.3892ZM275.398 121.08C275.554 121.055 275.713 121.061 275.866 121.098C276.019 121.135 276.163 121.202 276.29 121.294C276.423 121.382 276.536 121.497 276.622 121.631C276.708 121.765 276.764 121.916 276.787 122.074L277.42 125.95C277.469 126.264 277.392 126.585 277.206 126.844C277.02 127.102 276.739 127.276 276.426 127.329L272.643 127.95C272.329 127.999 272.008 127.922 271.751 127.735C271.62 127.647 271.509 127.531 271.425 127.397C271.342 127.263 271.287 127.112 271.265 126.956L270.633 123.08C270.604 122.924 270.608 122.764 270.645 122.611C270.682 122.457 270.751 122.313 270.847 122.187C270.936 122.056 271.051 121.945 271.185 121.861C271.32 121.778 271.47 121.723 271.627 121.701L275.398 121.08Z" fill="black"/>
</g>
<path d="M301.506 102.48C301.66 102.587 301.79 102.724 301.889 102.884C301.988 103.043 302.054 103.221 302.082 103.406C302.118 103.59 302.115 103.779 302.074 103.962C302.034 104.145 301.955 104.318 301.845 104.469L299.157 108.254C299.05 108.408 298.913 108.539 298.754 108.638C298.594 108.737 298.417 108.802 298.231 108.83C298.047 108.866 297.858 108.864 297.676 108.823C297.493 108.782 297.321 108.704 297.17 108.593L293.466 105.96C293.312 105.854 293.181 105.717 293.084 105.558C292.987 105.398 292.924 105.219 292.901 105.034C292.865 104.85 292.868 104.66 292.909 104.478C292.949 104.295 293.028 104.122 293.138 103.971L295.86 100.186C296.08 99.879 296.412 99.6714 296.784 99.6079C297.156 99.5445 297.538 99.6303 297.847 99.8469L301.506 102.48ZM317.135 76.8401C318.485 77.7872 319.688 78.9296 320.703 80.2301C321.693 81.4397 322.458 82.8176 322.961 84.2981C323.43 85.7168 323.588 87.2198 323.424 88.7051C323.233 90.2889 322.634 91.7958 321.685 93.0782C320.981 94.115 320.074 94.999 319.02 95.6772C318.093 96.2591 317.084 96.7008 316.028 96.988C314.999 97.2572 313.949 97.4386 312.889 97.5304L309.885 97.8016C308.984 97.8736 308.092 98.0287 307.22 98.2649C306.415 98.4477 305.679 98.8552 305.097 99.4401C304.834 99.7073 304.501 99.8953 304.137 99.9825C303.964 100.032 303.781 100.04 303.604 100.004C303.427 99.9689 303.262 99.8917 303.121 99.7791L299.846 97.4513C299.533 97.2276 299.319 96.8916 299.247 96.5134C299.205 96.3301 299.207 96.1395 299.252 95.9569C299.297 95.7743 299.385 95.6049 299.507 95.4625C300.272 94.4691 301.228 93.6392 302.319 93.0217C303.301 92.485 304.349 92.0786 305.436 91.8126C306.485 91.5579 307.554 91.3953 308.631 91.3267C309.693 91.2589 310.687 91.1798 311.613 91.0894C312.46 91.0145 313.297 90.8478 314.108 90.5922C314.818 90.3557 315.429 89.8908 315.847 89.2701C316.225 88.7459 316.47 88.1383 316.562 87.4989C316.655 86.8595 316.592 86.2072 316.378 85.5976C315.844 84.0915 314.822 82.8069 313.476 81.9477C311.037 80.2075 308.375 80.151 305.492 81.7782C305.202 81.963 304.881 82.0932 304.544 82.1624C304.368 82.1746 304.192 82.1519 304.025 82.0957C303.859 82.0394 303.705 81.9507 303.572 81.8347L300.094 79.36C299.968 79.2763 299.861 79.1682 299.777 79.042C299.694 78.9158 299.637 78.7742 299.609 78.6255C299.582 78.4717 299.587 78.314 299.624 78.1623C299.661 78.0106 299.729 77.8682 299.823 77.7441C300.644 76.6919 301.71 75.8576 302.929 75.3146C304.313 74.6871 305.795 74.3047 307.31 74.1846C308.977 74.0452 310.655 74.1788 312.279 74.5801C314.032 75.0027 315.682 75.771 317.135 76.8401Z" fill="#4949EB"/>
<g opacity="0.6">
<path d="M301.506 102.48C301.66 102.587 301.79 102.724 301.889 102.884C301.988 103.043 302.054 103.221 302.082 103.406C302.118 103.59 302.115 103.779 302.074 103.962C302.034 104.145 301.955 104.318 301.845 104.469L299.157 108.254C299.05 108.408 298.913 108.539 298.754 108.638C298.594 108.737 298.417 108.802 298.231 108.83C298.047 108.866 297.858 108.864 297.676 108.823C297.493 108.782 297.321 108.704 297.17 108.593L293.466 105.96C293.312 105.854 293.181 105.717 293.084 105.558C292.987 105.398 292.924 105.219 292.901 105.034C292.865 104.85 292.868 104.66 292.909 104.478C292.949 104.295 293.028 104.122 293.138 103.971L295.86 100.186C296.08 99.879 296.412 99.6714 296.784 99.6079C297.156 99.5445 297.538 99.6303 297.847 99.8469L301.506 102.48ZM317.135 76.8401C318.485 77.7872 319.688 78.9296 320.703 80.2301C321.693 81.4397 322.458 82.8176 322.961 84.2981C323.43 85.7168 323.588 87.2198 323.424 88.7051C323.233 90.2889 322.634 91.7958 321.685 93.0782C320.981 94.115 320.074 94.999 319.02 95.6772C318.093 96.2591 317.084 96.7008 316.028 96.988C314.999 97.2572 313.949 97.4386 312.889 97.5304L309.885 97.8016C308.984 97.8736 308.092 98.0287 307.22 98.2649C306.415 98.4477 305.679 98.8552 305.097 99.4401C304.834 99.7073 304.501 99.8953 304.137 99.9825C303.964 100.032 303.781 100.04 303.604 100.004C303.427 99.9689 303.262 99.8917 303.121 99.7791L299.846 97.4513C299.533 97.2276 299.319 96.8916 299.247 96.5134C299.205 96.3301 299.207 96.1395 299.252 95.9569C299.297 95.7743 299.385 95.6049 299.507 95.4625C300.272 94.4691 301.228 93.6392 302.319 93.0217C303.301 92.485 304.349 92.0786 305.436 91.8126C306.485 91.5579 307.554 91.3953 308.631 91.3267C309.693 91.2589 310.687 91.1798 311.613 91.0894C312.46 91.0145 313.297 90.8478 314.108 90.5922C314.818 90.3557 315.429 89.8908 315.847 89.2701C316.225 88.7459 316.47 88.1383 316.562 87.4989C316.655 86.8595 316.592 86.2072 316.378 85.5976C315.844 84.0915 314.822 82.8069 313.476 81.9477C311.037 80.2075 308.375 80.151 305.492 81.7782C305.202 81.963 304.881 82.0932 304.544 82.1624C304.368 82.1746 304.192 82.1519 304.025 82.0957C303.859 82.0394 303.705 81.9507 303.572 81.8347L300.094 79.36C299.968 79.2763 299.861 79.1682 299.777 79.042C299.694 78.9158 299.637 78.7742 299.609 78.6255C299.582 78.4717 299.587 78.314 299.624 78.1623C299.661 78.0106 299.729 77.8682 299.823 77.7441C300.644 76.6919 301.71 75.8576 302.929 75.3146C304.313 74.6871 305.795 74.3047 307.31 74.1846C308.977 74.0452 310.655 74.1788 312.279 74.5801C314.032 75.0027 315.682 75.771 317.135 76.8401Z" fill="white"/>
</g>
<path d="M217.412 202.507H177.29V105.237C177.29 96.7881 180.644 88.6858 186.614 82.7119C192.584 76.7379 200.681 73.3818 209.123 73.3818H212.827C221.27 73.3818 229.367 76.7379 235.337 82.7119C241.306 88.6858 244.66 96.7881 244.66 105.237V175.297C244.645 182.518 241.768 189.439 236.659 194.541C231.551 199.642 224.629 202.507 217.412 202.507Z" fill="#263238"/>
<path d="M173.383 436.677C172.673 440.707 172.296 444.789 172.254 448.881C172.107 456.294 170.752 458.926 170.571 465.006C170.357 471.955 171.565 474.554 174.377 478.464C177.188 482.374 184.54 485.911 187.724 479.312C190.909 472.712 190.446 468.385 189.441 461.571C188.413 454.519 188.311 450.621 187.679 445.253C187.16 440.519 186.55 436.914 186.55 436.914L173.383 436.677Z" fill="#263238"/>
<path d="M194.409 387.443L170.018 387.002C170.379 403.297 172.965 421.388 173.405 436.722C173.496 439.603 173.338 459.085 174.422 464.972C176.059 473.876 186.606 472.667 187.171 467.345C187.735 462.023 186.493 439.276 186.527 436.925C186.425 427.117 191.044 410.562 193.427 392.957C193.528 392.11 194.296 388.29 194.409 387.443Z" fill="#FFA8A7"/>
<path d="M225.746 423.999C225.746 423.999 224.786 423.479 224.616 424.507C224.379 425.727 224.018 428.247 223.487 430.259C222.787 433.05 222.2 437.649 222.618 439.932C223.036 442.214 228.343 445.13 231.787 446.192C236.032 447.503 239.903 449.808 243.079 452.915C246.467 456.124 253.841 459.153 258.889 459.119C264.817 459.119 268.95 457.141 270.904 453.966C272.857 450.791 269.12 450.407 262.344 446.056L257.093 442.666C246.354 435.649 242.413 431.897 239.398 424.88L225.746 423.999Z" fill="#263238"/>
<path d="M239.488 419.648C239.308 414.608 242.786 371.77 242.786 371.77L219.625 382.335C224.582 411.964 225.644 418.958 225.723 423.806C225.621 424.212 225.579 424.631 225.599 425.049C225.599 430.801 232.114 433.908 237.173 437.75C241.474 441.121 246.057 444.116 250.871 446.7C254.552 448.542 262.028 448.711 262.954 446.35C256.788 441.637 247.822 434.586 242.921 429.207C240.527 426.676 239.669 424.699 239.488 419.648Z" fill="#FFA8A7"/>
<path d="M180.012 228.44C171.113 247.978 171.113 263.098 172.593 288.037C173.902 310.919 176.082 331.09 176.082 331.09C175.743 335.146 170.108 343.068 169.374 361.012C168.697 377.781 170.503 399.104 170.503 399.104C170.503 399.104 183.162 406.122 192.524 399.037C192.524 399.037 201.557 355.882 204.2 334.886C206.458 316.569 210.524 293.167 210.524 293.167L219.072 334.762C217.227 340.664 215.89 346.712 215.074 352.842C213.877 365.193 220.788 389.443 220.788 389.443C220.788 389.443 233.865 393.341 241.849 386.256C241.849 386.256 244.83 346.831 245.948 331.96C247.438 312.038 244.299 258.114 241.849 229.559L180.012 228.44Z" fill="#455A64"/>
<path d="M210.546 293.133L214.058 261.787C214.058 261.787 229.799 259.685 236.936 252.973C234.894 256.171 232.172 258.88 228.966 260.907C225.759 262.934 222.146 264.23 218.383 264.702L213.301 293.868L219.072 334.762L210.546 293.133Z" fill="#263238"/>
<path d="M274.292 220.734C274.942 215.014 275.229 209.258 275.15 203.501C274.8 198.529 273.908 197.716 266.963 188.913C257.59 177.014 249.584 166.313 241.115 155.68C235.062 148.086 228.693 146.922 222.505 147.261C218.169 147.499 226.638 168.37 230.895 180.72L255.208 206.914C255.961 207.948 256.307 209.223 256.179 210.496L254.711 232.78L261.994 242.543C261.994 242.543 273.027 233.028 274.292 220.734Z" fill="#FFA8A7"/>
<path d="M199.062 147.939C194.353 148.267 185.793 149.069 185.793 149.069C180.858 151.827 179.605 154.098 178.69 160.652C178.295 163.454 180.576 170.901 182.53 181.489L186.233 201.117L185.827 210.858C183.907 216.802 179.56 224.18 175.72 235.062C194.578 245.594 210.388 245.989 224.729 244.102C235.66 242.69 241.453 240.046 243.384 237.424C242.978 226.678 242.255 220.033 242.029 208.801C241.95 204.089 242.232 199.32 242.424 193.896C249.753 187.862 249.843 177.828 245.812 171.296C236.518 156.234 227.473 146.753 221.488 147.239L199.062 147.939Z" fill="#DDF344"/>
<path opacity="0.6" d="M199.062 147.939C194.353 148.267 185.793 149.069 185.793 149.069C180.858 151.827 179.605 154.098 178.69 160.652C178.295 163.454 180.576 170.901 182.53 181.489L186.233 201.117L185.827 210.858C183.907 216.802 179.56 224.18 175.72 235.062C194.578 245.594 210.388 245.989 224.729 244.102C235.66 242.69 241.453 240.046 243.384 237.424C242.978 226.678 242.255 220.033 242.029 208.801C241.95 204.089 242.232 199.32 242.424 193.896C249.753 187.862 249.843 177.828 245.812 171.296C236.518 156.234 227.473 146.753 221.488 147.239L199.062 147.939Z" fill="white"/>
<path opacity="0.1" d="M227.824 194.043C227.824 194.043 219.219 200.733 209.383 197.241C206.621 196.37 204.131 194.801 202.152 192.685C200.174 190.569 198.775 187.977 198.091 185.162C198.091 185.162 197.052 196.405 209.44 200.236C221.443 203.931 227.824 194.043 227.824 194.043Z" fill="black"/>
<path d="M239.5 117.079C239.127 133.396 233.854 137.419 231.189 138.549C228.524 139.679 223.419 139.001 218.451 138.176V148.03C218.451 148.03 224.187 154.041 223.758 158.527C223.329 163.014 214.724 163.522 208.31 159.126C204.771 156.694 201.57 153.802 198.791 150.527C198.257 149.895 197.965 149.094 197.966 148.267V125.215C197.966 125.215 195.245 128.097 190.434 124.797C189.396 124.134 188.508 123.262 187.825 122.237C187.141 121.212 186.679 120.056 186.467 118.842C186.254 117.628 186.296 116.384 186.591 115.187C186.885 113.991 187.425 112.869 188.176 111.892C190.276 109.418 195.606 109.248 198.158 113.022C199.604 115.836 199.796 118.672 201.411 117.542C205.702 114.446 203.398 107.372 208.581 103.982C210.282 103.094 212.049 102.338 213.866 101.722C223.114 98.5245 231.132 95.8351 233.063 89.5071C236.699 91.5863 239.951 97.8352 239.5 117.079Z" fill="#FFA8A7"/>
<path d="M221.263 131.656C222.448 131.656 223.408 130.695 223.408 129.509C223.408 128.323 222.448 127.362 221.263 127.362C220.078 127.362 219.117 128.323 219.117 129.509C219.117 130.695 220.078 131.656 221.263 131.656Z" fill="#B16668"/>
<path d="M219.84 114.604C219.839 115.046 219.709 115.479 219.466 115.847C219.222 116.216 218.876 116.505 218.47 116.679C218.063 116.853 217.615 116.904 217.181 116.826C216.746 116.747 216.344 116.543 216.024 116.238C215.704 115.933 215.48 115.541 215.381 115.11C215.281 114.68 215.31 114.229 215.464 113.815C215.618 113.401 215.89 113.04 216.246 112.779C216.602 112.518 217.027 112.366 217.468 112.344C217.774 112.329 218.08 112.376 218.367 112.483C218.654 112.59 218.917 112.754 219.139 112.965C219.361 113.176 219.537 113.431 219.658 113.713C219.778 113.994 219.84 114.298 219.84 114.604Z" fill="#263238"/>
<path d="M236.948 114.83C236.971 115.107 236.939 115.385 236.853 115.649C236.768 115.913 236.631 116.157 236.45 116.368C236.269 116.578 236.048 116.75 235.8 116.874C235.552 116.998 235.282 117.072 235.005 117.09C234.726 117.116 234.445 117.082 234.18 116.991C233.915 116.9 233.672 116.753 233.468 116.56C233.264 116.368 233.104 116.134 232.997 115.875C232.89 115.616 232.839 115.337 232.849 115.056C232.819 114.778 232.847 114.496 232.931 114.229C233.014 113.962 233.151 113.714 233.334 113.502C233.516 113.29 233.74 113.117 233.991 112.994C234.243 112.871 234.517 112.801 234.796 112.788C235.076 112.775 235.355 112.819 235.617 112.918C235.879 113.016 236.118 113.168 236.319 113.362C236.521 113.556 236.68 113.79 236.788 114.048C236.897 114.307 236.951 114.584 236.948 114.864V114.83Z" fill="#263238"/>
<path d="M216.938 120.413C214.99 120.413 213.122 119.639 211.744 118.262C210.365 116.885 209.589 115.017 209.586 113.068C209.586 108.073 214.736 108.073 216.938 108.073C219.14 108.073 224.278 108.073 224.278 113.068C224.275 115.015 223.501 116.881 222.125 118.258C220.749 119.635 218.884 120.41 216.938 120.413ZM216.938 109.226C212.421 109.226 210.75 110.356 210.75 113.068C210.75 114.716 211.404 116.297 212.569 117.462C213.733 118.628 215.313 119.283 216.96 119.283C218.608 119.283 220.187 118.628 221.352 117.462C222.517 116.297 223.171 114.716 223.171 113.068C223.126 110.299 221.387 109.226 216.938 109.226Z" fill="#455A64"/>
<path d="M235.581 120.413C233.634 120.413 231.765 119.639 230.387 118.262C229.009 116.885 228.233 115.017 228.23 113.068C228.23 108.073 233.379 108.073 235.581 108.073C237.783 108.073 242.921 108.073 242.921 113.068C242.918 115.015 242.144 116.881 240.768 118.258C239.392 119.635 237.527 120.41 235.581 120.413ZM235.581 109.226C231.132 109.226 229.393 110.356 229.393 113.068C229.393 114.716 230.047 116.297 231.212 117.462C232.377 118.628 233.957 119.283 235.604 119.283C237.251 119.283 238.831 118.628 239.996 117.462C241.16 116.297 241.815 114.716 241.815 113.068C241.77 110.299 240.031 109.226 235.581 109.226Z" fill="#455A64"/>
<path d="M225.418 110.695L225.779 124.424L232.995 122.187L225.418 110.695Z" fill="#F28F8F"/>
<path d="M218.439 138.21C213.2 137.521 202.415 134.424 200.733 130.153C201.41 132.312 202.73 134.212 204.516 135.6C207.734 138.368 218.439 141.476 218.439 141.476V138.21Z" fill="#F28F8F"/>
<path d="M218.699 104.027L213.911 106.954C213.534 106.296 213.424 105.518 213.605 104.782C213.786 104.045 214.243 103.407 214.882 102.999C215.198 102.807 215.55 102.682 215.916 102.63C216.281 102.577 216.654 102.6 217.011 102.696C217.367 102.792 217.701 102.96 217.991 103.189C218.281 103.418 218.522 103.703 218.699 104.027Z" fill="#263238"/>
<path d="M238.179 107.282L232.849 105.417C232.952 105.064 233.126 104.735 233.361 104.452C233.596 104.168 233.886 103.936 234.214 103.768C234.542 103.601 234.9 103.503 235.267 103.479C235.635 103.456 236.003 103.508 236.349 103.632C237.064 103.889 237.653 104.411 237.993 105.091C238.334 105.77 238.4 106.555 238.179 107.282Z" fill="#263238"/>
<path d="M223.702 113.655C223.625 113.655 223.549 113.64 223.478 113.61C223.408 113.581 223.344 113.537 223.29 113.482C223.237 113.428 223.194 113.363 223.166 113.292C223.138 113.22 223.124 113.144 223.126 113.068C223.126 112.13 224.978 111.52 226.649 111.52C228.32 111.52 229.393 112.13 229.393 113.068C229.358 113.19 229.284 113.298 229.182 113.375C229.08 113.452 228.956 113.494 228.828 113.494C228.701 113.494 228.576 113.452 228.475 113.375C228.373 113.298 228.299 113.19 228.264 113.068C228.264 112.955 227.688 112.672 226.683 112.672C225.874 112.655 225.069 112.793 224.311 113.079C224.311 113.158 224.296 113.235 224.264 113.308C224.233 113.38 224.188 113.445 224.131 113.499C224.074 113.553 224.006 113.595 223.932 113.621C223.858 113.648 223.78 113.66 223.702 113.655Z" fill="#455A64"/>
<path d="M210.185 113.158H210.117L197.21 112.028C196.607 111.43 195.888 110.961 195.098 110.649L210.253 112.051C210.404 112.07 210.543 112.149 210.638 112.269C210.733 112.39 210.777 112.542 210.761 112.695C210.734 112.827 210.662 112.946 210.557 113.031C210.451 113.116 210.32 113.161 210.185 113.158Z" fill="#455A64"/>
<path d="M157.19 126.628C161.413 120.978 164.293 116.717 168.143 111.938C170.334 109.192 171.734 107.225 173.789 104.412C175.235 102.468 176.048 100.83 177.697 100.231C179.478 99.5004 181.083 98.3986 182.405 96.9989C183.218 96.099 183.973 95.1479 184.664 94.1513C187.084 90.8913 189.959 87.9954 193.201 85.552C196.589 82.9982 200.372 81.032 203.861 78.6025C205.939 77.1448 208.163 74.7266 205.634 72.4666C204.858 71.8128 203.93 71.3658 202.935 71.1671C196.781 69.8337 191.428 71.9468 185.409 73.4836C182.795 74.1366 180.238 75.002 177.764 76.0713C176.548 76.5528 175.407 77.2074 174.377 78.0149C172.937 79.4678 171.756 81.1572 170.887 83.0095C168.256 87.7103 162.61 91.9139 158.658 95.6316C154.039 99.9821 149.906 103.971 144.633 108.762C139.89 113.09 135.249 117.068 130.901 121.791C127.299 125.69 128.642 128.741 129.117 129.803C132.053 135.837 135.339 138.007 139.28 141.747C146.055 148.222 169.487 166.856 177.245 173.014C178.912 174.324 180.221 176.034 181.05 177.986L182.541 181.433C191.394 183.06 197.3 169.76 189.971 153.748C188.758 151.158 186.904 148.922 184.585 147.25C175.325 140.504 157.19 126.628 157.19 126.628Z" fill="#FFA8A7"/>
<path d="M157.19 126.627C154.372 130.096 150.617 132.681 146.372 134.074C146.372 134.074 152.018 135.521 159.753 128.571L157.19 126.627Z" fill="#F28F8F"/>
<path d="M271.988 208.948L270.543 207.705C270.327 207.563 270.08 207.473 269.823 207.444C269.566 207.414 269.306 207.446 269.063 207.535L253.378 211.807C252.588 212.07 251.864 212.502 251.256 213.071C250.648 213.641 250.17 214.335 249.855 215.106L238.563 247.684C238.427 247.95 238.373 248.25 238.409 248.546C238.446 248.842 238.57 249.121 238.766 249.345L240.256 250.634C240.473 250.783 240.723 250.878 240.985 250.909C241.247 250.941 241.512 250.908 241.758 250.814L257.466 246.543C258.256 246.279 258.98 245.848 259.588 245.279C260.196 244.709 260.674 244.015 260.989 243.243C263.248 236.836 270.023 217.073 272.282 210.666C272.553 209.863 272.417 209.253 271.988 208.948Z" fill="#455A64"/>
<path d="M240.042 248.939L251.334 216.361C251.648 215.59 252.126 214.897 252.734 214.329C253.342 213.761 254.067 213.332 254.857 213.073L270.531 208.801C271.988 208.406 272.79 209.242 272.27 210.666C270.012 217.073 263.236 236.837 260.978 243.244C260.663 244.015 260.185 244.709 259.577 245.279C258.969 245.848 258.245 246.28 257.455 246.543L241.781 250.86C240.335 251.199 239.556 250.363 240.042 248.939Z" fill="#4949EB"/>
<path d="M253.152 213.977C252.337 214.595 251.705 215.423 251.323 216.372L240.03 248.939C239.901 249.197 239.847 249.487 239.875 249.775C239.903 250.063 240.012 250.337 240.189 250.566L238.788 249.368C238.588 249.146 238.46 248.868 238.421 248.571C238.383 248.274 238.436 247.973 238.574 247.707L249.866 215.129C250.223 214.243 250.803 213.465 251.549 212.869L253.152 213.977Z" fill="#37474F"/>
<path d="M267.686 223.796C266.556 227.107 262.638 229.322 256.156 230.859C249.674 232.395 246.094 239.277 247.122 241.368C248.15 243.458 258.629 245.413 262.819 244.814C267.008 244.215 271.209 238.158 272.485 236.283C273.761 234.407 275.229 221.321 273.885 219.525C272.541 217.728 269.707 218.011 269.707 218.011L267.686 223.796Z" fill="#F28F8F"/>
</svg>
