<svg width="533" height="534" viewBox="0 0 533 534" fill="none" xmlns="http://www.w3.org/2000/svg">
<g clip-path="url(#clip0_0_902)">
<path d="M140.3 196.896C140.3 197.131 138.601 197.313 136.508 197.313C134.414 197.313 132.716 197.131 132.716 196.896C132.716 196.662 134.414 196.48 136.508 196.48C138.601 196.48 140.3 196.672 140.3 196.896Z" fill="#263238"/>
<path d="M144.315 186.59C144.55 186.59 144.743 188.31 144.743 190.435C144.743 192.56 144.55 194.28 144.315 194.28C144.081 194.28 143.899 192.56 143.899 190.435C143.899 188.31 144.091 186.59 144.315 186.59Z" fill="#263238"/>
<path d="M148.609 196.651C148.609 196.416 150.297 196.234 152.391 196.234C154.484 196.234 156.182 196.416 156.182 196.651C156.182 196.886 154.484 197.067 152.391 197.067C150.297 197.067 148.609 196.886 148.609 196.651Z" fill="#263238"/>
<path d="M144.583 206.957C144.348 206.957 144.166 205.238 144.166 203.112C144.166 200.987 144.348 199.268 144.583 199.268C144.818 199.268 144.999 200.987 144.999 203.112C144.999 205.238 144.818 206.957 144.583 206.957Z" fill="#263238"/>
<path d="M150.703 202.536C150.532 202.685 149.784 202.087 149.037 201.19C148.289 200.293 147.83 199.46 147.969 199.31C148.107 199.161 148.898 199.769 149.635 200.656C150.372 201.542 150.885 202.386 150.703 202.536Z" fill="#263238"/>
<path d="M150.351 190.852C150.522 191.012 150.02 191.781 149.283 192.56C148.546 193.34 147.755 193.831 147.584 193.628C147.413 193.426 147.915 192.699 148.652 191.92C149.389 191.14 150.191 190.691 150.351 190.852Z" fill="#263238"/>
<path d="M141.667 193.831C141.517 194.002 140.802 193.65 140.065 193.041C139.328 192.432 138.858 191.792 138.996 191.61C139.135 191.428 139.862 191.781 140.588 192.4C141.314 193.02 141.816 193.65 141.667 193.831Z" fill="#263238"/>
<path d="M141.325 198.979C141.496 199.139 141.068 199.887 140.363 200.656C139.659 201.425 138.954 201.916 138.783 201.724C138.612 201.532 139.05 200.816 139.744 200.047C140.438 199.278 141.154 198.819 141.325 198.979Z" fill="#263238"/>
<path d="M150.329 291.564L150.575 292.162C150.789 292.675 151.103 293.141 151.499 293.532C151.895 293.922 152.366 294.23 152.882 294.437L153.523 294.704L152.903 294.95C152.383 295.164 151.911 295.479 151.513 295.877C151.115 296.275 150.8 296.747 150.585 297.267L150.415 297.705L150.148 297.16C149.68 296.167 148.84 295.399 147.808 295.024L147.242 294.821L147.979 294.458C148.896 294.013 149.623 293.256 150.03 292.322L150.329 291.564Z" fill="#263238"/>
<path d="M35.3979 215.405L35.6436 216.003C35.8576 216.515 36.1706 216.979 36.5647 217.37C36.9588 217.76 37.4263 218.069 37.9401 218.278L38.581 218.534L37.9722 218.791C37.4498 219.001 36.9752 219.315 36.577 219.713C36.1787 220.111 35.8649 220.586 35.6543 221.108L35.4727 221.546L35.2164 221.001C34.9844 220.508 34.6574 220.066 34.2542 219.699C33.8509 219.333 33.3794 219.049 32.8665 218.865L32.311 218.662L33.0374 218.299C33.9572 217.859 34.686 217.1 35.0882 216.163L35.3979 215.405Z" fill="#263238"/>
<path d="M504.879 123.792H172.17C164.99 123.792 159.17 129.611 159.17 136.79V347.97C159.17 355.148 164.99 360.968 172.17 360.968H504.879C512.058 360.968 517.879 355.148 517.879 347.97V136.79C517.879 129.611 512.058 123.792 504.879 123.792Z" fill="#263238"/>
<path d="M144.19 343.429H532.797V348.309C532.797 352.52 531.123 356.559 528.145 359.537C525.167 362.515 521.127 364.188 516.915 364.188H160.027C155.815 364.188 151.775 362.515 148.797 359.537C145.818 356.559 144.145 352.52 144.145 348.309V343.429H144.19Z" fill="#263238"/>
<path d="M507.243 133.221H168.797V333.517H507.243V133.221Z" fill="#455A64"/>
<path d="M303.157 343.429L307.984 351.101H375.838L380.316 343.429H303.157Z" fill="#455A64"/>
<path d="M498.044 140.001H178.683C177.071 140.001 175.765 141.308 175.765 142.919V329.958C175.765 331.569 177.071 332.875 178.683 332.875H498.044C499.656 332.875 500.962 331.569 500.962 329.958V142.919C500.962 141.308 499.656 140.001 498.044 140.001Z" fill="#EBEBEB"/>
<path d="M500.962 154.132H175.765V332.875H500.962V154.132Z" fill="#FAFAFA"/>
<path d="M202.443 147.451C202.443 147.966 202.29 148.47 202.004 148.898C201.718 149.327 201.311 149.661 200.835 149.858C200.359 150.055 199.835 150.107 199.329 150.006C198.824 149.906 198.36 149.657 197.995 149.293C197.631 148.929 197.383 148.465 197.282 147.959C197.182 147.454 197.234 146.93 197.431 146.454C197.628 145.978 197.962 145.571 198.39 145.285C198.819 144.999 199.322 144.846 199.838 144.846C200.529 144.846 201.191 145.121 201.68 145.609C202.169 146.098 202.443 146.76 202.443 147.451Z" fill="#263238"/>
<path d="M186.695 147.451C186.693 147.964 186.539 148.465 186.253 148.891C185.966 149.317 185.56 149.648 185.086 149.843C184.611 150.038 184.089 150.088 183.586 149.987C183.083 149.886 182.621 149.638 182.259 149.275C181.897 148.911 181.651 148.449 181.551 147.945C181.452 147.442 181.504 146.921 181.7 146.447C181.897 145.973 182.23 145.568 182.657 145.283C183.084 144.998 183.585 144.846 184.098 144.846C184.44 144.846 184.778 144.914 185.094 145.045C185.41 145.176 185.696 145.368 185.937 145.61C186.179 145.852 186.37 146.139 186.5 146.455C186.63 146.771 186.696 147.109 186.695 147.451Z" fill="#263238"/>
<path d="M194.252 147.451C194.25 147.964 194.097 148.465 193.81 148.891C193.524 149.317 193.118 149.648 192.643 149.843C192.169 150.038 191.647 150.088 191.144 149.987C190.641 149.886 190.179 149.638 189.817 149.275C189.455 148.911 189.208 148.449 189.109 147.945C189.009 147.442 189.061 146.921 189.258 146.447C189.455 145.973 189.788 145.568 190.214 145.283C190.641 144.998 191.143 144.846 191.656 144.846C191.998 144.846 192.336 144.914 192.652 145.045C192.967 145.176 193.254 145.368 193.495 145.61C193.736 145.852 193.927 146.139 194.057 146.455C194.187 146.771 194.253 147.109 194.252 147.451Z" fill="#263238"/>
<path d="M514.791 343.429C514.791 343.563 435.179 343.661 336.99 343.661C238.801 343.661 159.17 343.563 159.17 343.429C159.17 343.295 238.765 343.197 336.99 343.197C435.214 343.197 514.791 343.331 514.791 343.429Z" fill="#455A64"/>
<path d="M272.509 244.173H198.303V249.133H272.509V244.173Z" fill="#E0E0E0"/>
<path d="M368.36 175.258H294.154V180.218H368.36V175.258Z" fill="#E0E0E0"/>
<path d="M478.773 193.742C478.773 193.867 437.445 193.974 386.49 193.974C335.535 193.974 294.19 193.867 294.19 193.742C294.19 193.617 335.509 193.51 386.49 193.51C437.472 193.51 478.773 193.617 478.773 193.742Z" fill="#E0E0E0"/>
<path d="M478.773 204.581C478.773 204.706 437.445 204.813 386.49 204.813C335.535 204.813 294.19 204.706 294.19 204.581C294.19 204.456 335.509 204.349 386.49 204.349C437.472 204.349 478.773 204.456 478.773 204.581Z" fill="#E0E0E0"/>
<path d="M478.773 215.42C478.773 215.545 437.445 215.652 386.49 215.652C335.535 215.652 294.19 215.545 294.19 215.42C294.19 215.295 335.509 215.188 386.49 215.188C437.472 215.188 478.773 215.286 478.773 215.42Z" fill="#E0E0E0"/>
<path d="M478.773 226.26C478.773 226.385 437.445 226.492 386.49 226.492C335.535 226.492 294.19 226.385 294.19 226.26C294.19 226.135 335.509 226.028 386.49 226.028C437.472 226.028 478.773 226.126 478.773 226.26Z" fill="#E0E0E0"/>
<path d="M478.773 237.098C478.773 237.223 437.445 237.33 386.49 237.33C335.535 237.33 294.19 237.223 294.19 237.098C294.19 236.974 335.509 236.866 386.49 236.866C437.472 236.866 478.773 236.965 478.773 237.098Z" fill="#E0E0E0"/>
<path d="M366.21 247.938C366.21 248.062 350.078 248.169 330.182 248.169C310.285 248.169 294.154 248.062 294.154 247.938C294.154 247.813 310.285 247.706 330.182 247.706C350.078 247.706 366.21 247.804 366.21 247.938Z" fill="#E0E0E0"/>
<path d="M477.389 268.974C477.389 269.099 450.221 269.206 416.718 269.206C383.215 269.206 356.047 269.099 356.047 268.974C356.047 268.849 383.207 268.742 416.718 268.742C450.23 268.742 477.389 268.84 477.389 268.974Z" fill="#E0E0E0"/>
<path d="M477.389 280.473C477.389 280.606 450.221 280.705 416.718 280.705C383.215 280.705 356.047 280.606 356.047 280.473C356.047 280.339 383.207 280.241 416.718 280.241C450.23 280.241 477.389 280.348 477.389 280.473Z" fill="#E0E0E0"/>
<path d="M477.389 291.981C477.389 292.106 450.221 292.213 416.718 292.213C383.215 292.213 356.047 292.106 356.047 291.981C356.047 291.856 383.207 291.749 416.718 291.749C450.23 291.749 477.389 291.856 477.389 291.981Z" fill="#E0E0E0"/>
<path d="M477.389 303.489C477.389 303.614 450.221 303.721 416.718 303.721C383.215 303.721 356.047 303.614 356.047 303.489C356.047 303.364 383.207 303.257 416.718 303.257C450.23 303.257 477.389 303.355 477.389 303.489Z" fill="#E0E0E0"/>
<path d="M272.67 267.867C272.67 268.001 256.476 268.099 236.508 268.099C216.54 268.099 200.346 268.001 200.346 267.867C200.346 267.733 216.531 267.635 236.508 267.635C256.485 267.635 272.67 267.742 272.67 267.867Z" fill="#E0E0E0"/>
<path d="M272.67 276.904C272.67 277.029 256.476 277.136 236.508 277.136C216.54 277.136 200.346 277.029 200.346 276.904C200.346 276.779 216.531 276.672 236.508 276.672C256.485 276.672 272.67 276.779 272.67 276.904Z" fill="#E0E0E0"/>
<path d="M272.67 285.942C272.67 286.067 256.476 286.174 236.508 286.174C216.54 286.174 200.346 286.067 200.346 285.942C200.346 285.817 216.531 285.71 236.508 285.71C256.485 285.71 272.67 285.808 272.67 285.942Z" fill="#E0E0E0"/>
<path d="M272.669 294.978C272.669 295.103 256.476 295.21 236.508 295.21C216.54 295.21 200.399 295.103 200.399 294.978C200.399 294.853 216.584 294.746 236.561 294.746C256.538 294.746 272.669 294.844 272.669 294.978Z" fill="#E0E0E0"/>
<path d="M272.67 304.006C272.67 304.14 256.476 304.247 236.508 304.247C216.54 304.247 200.346 304.14 200.346 304.006C200.346 303.873 216.531 303.774 236.508 303.774C256.485 303.774 272.67 303.881 272.67 304.006Z" fill="#E0E0E0"/>
<path d="M346.76 263.478H294.11V314.409H346.76V263.478Z" fill="#F5F5F5"/>
<path d="M298.196 310.055L312.757 283.845L324.668 300.598L331.913 291.704L342.682 310.055H298.196Z" fill="#EBEBEB"/>
<path d="M329.771 278.751C329.771 279.501 329.549 280.234 329.132 280.858C328.716 281.481 328.123 281.967 327.431 282.254C326.738 282.541 325.975 282.616 325.24 282.47C324.504 282.324 323.828 281.963 323.298 281.432C322.768 280.902 322.407 280.227 322.26 279.491C322.114 278.756 322.189 277.993 322.476 277.301C322.763 276.608 323.249 276.016 323.873 275.599C324.496 275.182 325.229 274.96 325.979 274.96C326.478 274.959 326.971 275.056 327.432 275.246C327.893 275.436 328.311 275.716 328.663 276.068C329.016 276.42 329.295 276.839 329.485 277.299C329.675 277.76 329.773 278.253 329.771 278.751Z" fill="#EBEBEB"/>
<path d="M342.682 310.198C342.676 310.127 342.676 310.055 342.682 309.984C342.682 309.832 342.682 309.636 342.682 309.395C342.682 308.851 342.682 308.084 342.682 307.102C342.682 305.077 342.682 302.16 342.628 298.449C342.628 291.009 342.566 280.419 342.521 267.698L342.736 267.912H298.249C298.187 267.965 298.722 267.439 298.499 267.671V273.425C298.499 275.334 298.499 277.226 298.499 279.099V290.072C298.499 297.209 298.499 303.944 298.499 310.153L298.285 309.93L330.45 310.046L339.524 310.1H341.924H342.548H342.771H342.575H341.977H339.613L330.583 310.162L298.285 310.269H298.062V310.055C298.062 303.81 298.062 297.102 298.062 289.974C298.062 286.405 298.062 282.739 298.062 279.001V267.716C297.83 267.93 298.365 267.403 298.312 267.457H342.798H343.012V267.671C343.012 280.446 342.923 291.089 342.905 298.565C342.905 302.249 342.905 305.157 342.843 307.165C342.843 308.128 342.843 308.878 342.843 309.413C342.843 309.654 342.843 309.841 342.843 309.984C342.796 310.06 342.742 310.131 342.682 310.198Z" fill="#EBEBEB"/>
<path d="M271.117 166.783H199.704V235.859H271.117V166.783Z" fill="#F5F5F5"/>
<path d="M205.244 229.953L224.998 194.402L241.156 217.124L250.97 205.054L265.576 229.953H205.244Z" fill="#E0E0E0"/>
<path d="M248.035 187.488C248.035 188.505 247.734 189.498 247.169 190.343C246.604 191.188 245.802 191.847 244.863 192.236C243.924 192.625 242.89 192.726 241.893 192.528C240.897 192.33 239.981 191.841 239.262 191.122C238.543 190.403 238.054 189.488 237.856 188.491C237.657 187.494 237.759 186.461 238.148 185.522C238.537 184.583 239.196 183.78 240.041 183.216C240.886 182.651 241.88 182.35 242.896 182.35C244.259 182.35 245.566 182.891 246.53 183.855C247.494 184.819 248.035 186.126 248.035 187.488Z" fill="#E0E0E0"/>
<path d="M265.576 230.14C265.576 230.14 265.576 230.042 265.576 229.864C265.576 229.685 265.576 229.391 265.576 229.052C265.576 228.32 265.576 227.268 265.576 225.947C265.576 223.208 265.531 219.248 265.496 214.216C265.496 204.126 265.406 189.754 265.344 172.501L265.638 172.795H205.306L205.645 172.465V180.289C205.645 182.876 205.645 185.437 205.645 187.979C205.645 193.055 205.645 198.024 205.645 202.86C205.645 212.539 205.645 221.683 205.645 230.096L205.351 229.801L248.972 229.953L261.275 230.033H264.541H265.433H265.728C265.642 230.048 265.554 230.048 265.469 230.033H264.648H261.445L249.204 230.113L205.396 230.265H205.092V229.962C205.092 221.549 205.092 212.405 205.092 202.726C205.092 197.89 205.092 192.913 205.092 187.845V172.51L205.44 172.162L265.772 172.207H266.067V172.492C266.004 189.826 265.951 204.251 265.915 214.421C265.915 219.417 265.861 223.342 265.844 226.081C265.844 227.392 265.844 228.418 265.844 229.132C265.844 229.462 265.844 229.712 265.844 229.908C265.767 229.999 265.676 230.077 265.576 230.14Z" fill="#E0E0E0"/>
<path d="M376.871 213.589L368.326 213.472L368.646 190.211C368.642 186.125 367.833 182.08 366.265 178.308C364.698 174.535 362.402 171.107 359.51 168.221C356.618 165.335 353.185 163.047 349.409 161.488C345.632 159.928 341.585 159.128 337.499 159.132C333.413 159.136 329.368 159.945 325.594 161.512C321.821 163.08 318.393 165.375 315.507 168.267C309.678 174.107 306.408 182.024 306.416 190.275L306.096 213.589L297.551 213.472L297.871 190.211C297.88 179.694 302.066 169.611 309.51 162.18C316.954 154.749 327.045 150.579 337.563 150.588C348.082 150.596 358.166 154.782 365.598 162.225C373.029 169.668 377.2 179.758 377.191 190.275L376.871 213.589Z" fill="#263238"/>
<path d="M377.661 202.258H298.32C287.53 202.258 278.784 211.003 278.784 221.792V298.399C278.784 309.187 287.53 317.933 298.32 317.933H377.661C388.451 317.933 397.197 309.187 397.197 298.399V221.792C397.197 211.003 388.451 202.258 377.661 202.258Z" fill="#4949EB"/>
<g opacity="0.3">
<path d="M349.782 253.992C349.79 251.933 349.259 249.909 348.242 248.119C347.225 246.33 345.757 244.837 343.985 243.79C342.213 242.743 340.197 242.177 338.139 242.15C336.08 242.122 334.051 242.633 332.251 243.632C330.451 244.631 328.944 246.083 327.879 247.845C326.814 249.606 326.228 251.616 326.18 253.673C326.132 255.731 326.623 257.766 327.604 259.575C328.585 261.385 330.023 262.906 331.774 263.988L328.751 277.968H348.106C348.106 277.968 345.969 269.179 344.559 263.764C346.163 262.686 347.477 261.232 348.388 259.528C349.299 257.824 349.777 255.923 349.782 253.992Z" fill="black"/>
</g>
<g opacity="0.2">
<path d="M286.357 282.86C285.588 282.86 285.289 269.35 285.599 252.721C285.908 236.092 286.848 222.614 287.617 222.635C288.386 222.657 288.686 236.145 288.376 252.774C288.066 269.403 287.126 282.87 286.357 282.86Z" fill="white"/>
</g>
<g opacity="0.2">
<path d="M286.442 296.242C285.673 296.242 285.043 294.939 285.022 293.305C285 291.671 285.598 290.346 286.367 290.336C287.136 290.325 287.777 291.638 287.799 293.273C287.82 294.907 287.211 296.231 286.442 296.242Z" fill="white"/>
</g>
<g opacity="0.2">
<path d="M323.592 279.891C322.983 279.688 324.425 273.536 326.935 265.355L327.256 266.701C326.113 265.569 324.927 264.383 323.688 263.07C321.772 260.885 320.644 258.121 320.484 255.22C320.355 252.889 320.904 250.57 322.065 248.545C322.801 247.207 323.827 246.051 325.066 245.159C325.942 244.551 326.53 244.39 326.626 244.54C326.903 244.871 325.098 246.302 323.827 249.41C323.031 251.354 322.788 253.48 323.125 255.554C323.463 257.627 324.367 259.567 325.739 261.158L329.179 264.789L329.745 265.398L329.488 266.146C326.679 274.273 324.201 280.083 323.592 279.891Z" fill="white"/>
</g>
<g opacity="0.2">
<path d="M372.47 210.289C372.47 210.674 367.738 210.994 360.101 211.186C352.464 211.378 341.942 211.453 330.193 211.368C324.361 211.368 318.807 211.24 313.754 211.133C308.702 211.026 304.141 210.716 300.499 211.133C297.608 211.342 294.818 212.283 292.392 213.867C290.693 215.031 289.999 216.003 289.807 215.875C289.614 215.747 290.074 214.582 291.708 213.034C294.116 210.94 297.088 209.602 300.253 209.189C302.373 208.86 304.516 208.692 306.662 208.687L313.84 208.612C318.892 208.612 324.446 208.612 330.278 208.612C341.942 208.698 352.496 208.943 360.133 209.253C367.77 209.563 372.47 209.905 372.47 210.289Z" fill="white"/>
</g>
<path d="M15.5842 480.771L14.8259 483.611C14.8259 483.611 4.53972 500.347 5.7574 501.96C6.58877 502.998 7.71694 503.759 8.99163 504.141C10.2663 504.522 11.627 504.507 12.8925 504.096C16.4708 503.199 31.5742 488.855 31.5742 488.855L32.4394 486.559L15.5842 480.771Z" fill="#4949EB"/>
<g opacity="0.3">
<path d="M6.78286 498.115C6.78286 498.115 11.237 496.15 13.8112 501.906C13.8112 501.906 15.7338 501.18 21.0745 496.716C26.4152 492.251 31.5743 487.873 31.5743 487.873C31.5743 487.873 32.1297 487.424 31.9695 487.873C31.8093 488.321 31.5743 489.08 31.5743 489.08L21.2668 498.168C21.2668 498.168 15.093 503.508 13.5442 503.893C11.9954 504.277 10.4252 504.833 8.45984 503.957C7.20133 503.494 6.15624 502.586 5.52246 501.404C5.52246 501.148 6.78286 498.115 6.78286 498.115Z" fill="black"/>
</g>
<path d="M14.4091 503.786C14.345 503.786 14.2382 503.22 13.8644 502.365C13.3813 501.254 12.648 500.269 11.7217 499.487C10.7953 498.705 9.70087 498.148 8.52371 497.858C7.6158 497.645 7.02832 497.634 7.02832 497.581C7.53567 497.506 8.05322 497.542 8.54507 497.688C9.79214 497.917 10.9586 498.465 11.9311 499.279C12.8882 500.097 13.623 501.144 14.0673 502.323C14.2738 502.784 14.3898 503.281 14.4091 503.786Z" fill="#263238"/>
<path d="M32.4396 487.136C32.3707 487.226 32.2919 487.309 32.2046 487.381L31.4783 488.022L28.84 490.35L19.8997 497.912C18.2974 499.358 16.575 500.666 14.7513 501.821C13.2163 502.773 11.4119 503.197 9.61354 503.028C8.38749 502.896 7.24985 502.327 6.40913 501.426C6.10855 501.12 5.87245 500.756 5.71484 500.358C5.94378 500.738 6.20845 501.096 6.50526 501.426C7.3573 502.221 8.45215 502.706 9.61354 502.803C11.3494 502.921 13.0775 502.483 14.5483 501.554C16.3491 500.406 18.0531 499.113 19.6433 497.688C23.1148 494.804 26.2444 492.187 28.6477 490.212L31.3928 487.969L32.1619 487.371C32.243 487.28 32.3365 487.201 32.4396 487.136Z" fill="#263238"/>
<path d="M16.1398 494.174C15.4693 493.845 14.8325 493.451 14.2385 492.999C13.5856 492.632 12.9671 492.206 12.3906 491.728C13.126 491.917 13.816 492.251 14.4201 492.711C15.0846 493.08 15.6692 493.577 16.1398 494.174Z" fill="#263238"/>
<path d="M18.3506 491.771C17.5446 491.514 16.762 491.189 16.0114 490.799C15.2168 490.517 14.4513 490.16 13.7256 489.731C14.5727 489.843 15.3934 490.103 16.1503 490.5C16.9498 490.797 17.6936 491.227 18.3506 491.771Z" fill="#263238"/>
<path d="M20.4016 489.71C20.3269 489.785 19.3976 488.962 18.0517 488.311C16.7059 487.659 15.4882 487.392 15.5096 487.243C16.4507 487.241 17.3756 487.488 18.1906 487.958C19.0656 488.343 19.8269 488.946 20.4016 489.71Z" fill="#263238"/>
<path d="M21.5873 487.253C21.5873 487.328 20.6687 486.698 19.4511 486.185C18.2334 485.673 17.208 485.427 17.2293 485.331C18.0506 485.312 18.8631 485.503 19.5899 485.886C20.3658 486.156 21.0554 486.628 21.5873 487.253Z" fill="#263238"/>
<path d="M21.0745 484.925C20.5979 484.722 20.1632 484.433 19.7928 484.071C19.3744 483.71 18.9884 483.313 18.6392 482.885C18.4264 482.631 18.2302 482.363 18.0517 482.084C17.9374 481.935 17.8473 481.77 17.7847 481.593C17.7417 481.485 17.7289 481.367 17.7477 481.252C17.7665 481.138 17.8162 481.03 17.8915 480.941C18.0508 480.807 18.246 480.723 18.4528 480.698C18.6597 480.673 18.8693 480.71 19.0557 480.803C19.3787 480.936 19.6698 481.136 19.9102 481.39C20.3007 481.813 20.5701 482.333 20.69 482.896C20.7749 483.263 20.8109 483.64 20.7968 484.017C20.7968 484.284 20.7968 484.434 20.7327 484.434C20.6686 484.434 20.7327 483.836 20.4657 482.96C20.3219 482.45 20.054 481.984 19.6859 481.604C19.4723 481.389 19.2182 481.218 18.9382 481.102C18.8184 481.031 18.682 480.994 18.543 480.994C18.4041 480.994 18.2676 481.031 18.1478 481.102C17.9769 481.272 18.1478 481.582 18.3187 481.849C18.4896 482.116 18.6926 482.394 18.8742 482.639C19.2018 483.066 19.5587 483.469 19.9423 483.846C20.6259 484.551 21.0959 484.872 21.0745 484.925Z" fill="#263238"/>
<path d="M20.85 484.637C20.85 484.637 20.85 484.477 20.9569 484.22C21.1143 483.867 21.3231 483.54 21.5764 483.248C22.1738 482.536 22.9815 482.031 23.8836 481.806C24.0806 481.764 24.2846 481.764 24.4817 481.806C24.5997 481.834 24.708 481.893 24.7946 481.978C24.8813 482.063 24.943 482.17 24.973 482.287C24.9825 482.487 24.9472 482.687 24.8696 482.872C24.7919 483.057 24.674 483.222 24.5244 483.355C24.3002 483.617 24.0415 483.847 23.7554 484.039C23.2725 484.361 22.7262 484.576 22.1532 484.669C21.7677 484.733 21.3743 484.733 20.9889 484.669C20.7219 484.669 20.583 484.562 20.583 484.541C21.0908 484.552 21.5986 484.516 22.0998 484.434C22.6297 484.312 23.1305 484.087 23.5738 483.772C23.8385 483.593 24.076 483.377 24.2788 483.131C24.3927 483.031 24.484 482.908 24.5466 482.769C24.6093 482.631 24.6417 482.481 24.6419 482.33C24.6419 482.084 24.2574 482.031 23.9476 482.095C23.6405 482.166 23.3428 482.274 23.0611 482.415C22.5707 482.652 22.126 482.974 21.7473 483.366C21.4157 483.765 21.1157 484.19 20.85 484.637Z" fill="#263238"/>
<path d="M29.5127 485.801C29.0319 485.68 28.5258 485.706 28.06 485.875C26.9564 486.352 26.0431 487.182 25.4644 488.236C24.8828 489.29 24.6438 490.5 24.7808 491.696C24.8876 492.614 25.1333 493.148 25.0799 493.17C24.7875 492.74 24.6042 492.245 24.5458 491.728C24.334 490.474 24.5563 489.186 25.176 488.075C25.7833 486.95 26.7831 486.087 27.9852 485.651C28.2311 485.542 28.501 485.499 28.7686 485.525C29.0363 485.551 29.2926 485.646 29.5127 485.801Z" fill="#263238"/>
<path d="M23.4135 492.54C22.918 493.187 22.3316 493.759 21.6725 494.238C21.091 494.81 20.4332 495.299 19.7178 495.691C20.2133 495.044 20.7997 494.472 21.4588 493.993C22.0426 493.423 22.7 492.935 23.4135 492.54Z" fill="#263238"/>
<path d="M25.4538 491.451C25.55 491.451 25.6674 491.664 25.7315 491.942C25.7956 492.22 25.7315 492.465 25.7315 492.497C25.7315 492.529 25.5179 492.316 25.4538 492.006C25.3897 491.696 25.3684 491.461 25.4538 491.451Z" fill="#263238"/>
<path d="M25.7211 489.346C25.8065 489.346 25.8279 489.635 25.7211 489.902C25.6143 490.169 25.5181 490.393 25.4327 490.382C25.3472 490.372 25.3259 490.126 25.4327 489.827C25.5395 489.528 25.6356 489.314 25.7211 489.346Z" fill="#263238"/>
<path d="M26.8422 487.552C26.9169 487.627 26.8422 487.83 26.6285 488.065C26.4149 488.3 26.2547 488.428 26.1799 488.385C26.1052 488.343 26.1799 488.097 26.3722 487.851C26.5645 487.606 26.7888 487.488 26.8422 487.552Z" fill="#263238"/>
<path d="M28.6582 486.442C28.6582 486.527 28.498 486.698 28.2416 486.826C27.9853 486.954 27.7396 486.976 27.6862 486.901C27.6328 486.826 27.825 486.655 28.1027 486.516C28.3805 486.378 28.6261 486.356 28.6582 486.442Z" fill="#263238"/>
<path d="M30.7623 486.196C30.7623 486.292 30.506 486.367 30.2283 486.367C29.9506 486.367 29.7049 486.292 29.6942 486.207C29.6835 486.121 29.9185 486.036 30.2283 486.036C30.538 486.036 30.773 486.1 30.7623 486.196Z" fill="#263238"/>
<path d="M157.475 215.736C156.813 216.537 155.873 225.017 155.873 225.017C155.873 225.017 140.225 251.717 138.046 252.09C135.867 252.464 126.371 233.561 126.371 233.561L116.619 242.542C116.619 242.542 121.703 266.402 137.597 270.492C145.074 272.425 158.191 248.63 166.928 228.84C167.078 228.52 171.596 217.754 171.596 217.754L157.475 215.736Z" fill="#FFBE9D"/>
<path d="M171.425 218.683C171.425 218.683 171.425 218.801 171.372 218.95C170.966 220.232 168.541 225.508 167.794 225.455C167.046 225.401 165.316 224.173 165.497 223.415C165.679 222.656 168.755 216.857 168.755 216.857C168.755 216.857 169.289 215.971 170.977 216.441C172.023 216.74 171.425 218.683 171.425 218.683Z" fill="#FFBE9D"/>
<path d="M169.075 215.362C169.075 215.362 169.075 215.479 169.075 215.64C168.669 216.911 166.245 222.197 165.497 222.133C164.749 222.069 163.019 220.851 163.211 220.093C163.403 219.335 166.416 213.546 166.416 213.546C166.416 213.546 166.96 212.66 168.637 213.13C169.673 213.418 169.075 215.362 169.075 215.362Z" fill="#FFBE9D"/>
<path d="M166.373 213.034C166.373 213.034 166.373 213.151 166.373 213.301C165.967 214.582 163.542 219.869 162.795 219.805C162.047 219.741 160.327 218.523 160.509 217.765C160.691 217.007 163.713 211.218 163.713 211.218C163.713 211.218 164.258 210.332 165.946 210.791C166.971 211.09 166.373 213.034 166.373 213.034Z" fill="#FFBE9D"/>
<path d="M163.671 210.77C163.686 210.858 163.686 210.948 163.671 211.037C163.254 212.318 160.84 217.605 160.092 217.541C159.345 217.477 157.614 216.259 157.796 215.501C157.978 214.743 161 208.943 161 208.943C161 208.943 161.545 208.057 163.233 208.527C164.258 208.826 163.671 210.77 163.671 210.77Z" fill="#FFBE9D"/>
<path d="M166.159 221.845C166.733 221.086 167.2 220.252 167.548 219.367C168.016 218.552 168.375 217.68 168.616 216.772C168.057 217.54 167.591 218.372 167.227 219.249C166.767 220.068 166.408 220.939 166.159 221.845Z" fill="#EB996E"/>
<path d="M163.019 220.488C163.767 219.364 164.411 218.173 164.942 216.932C165.582 215.747 166.115 214.506 166.533 213.226C165.785 214.35 165.142 215.541 164.611 216.782C163.97 217.968 163.438 219.208 163.019 220.488Z" fill="#EB996E"/>
<g opacity="0.78">
<path d="M159.954 218.822C160.696 217.696 161.335 216.506 161.866 215.266C162.511 214.083 163.044 212.842 163.457 211.56C162.715 212.684 162.072 213.87 161.534 215.106C160.896 216.294 160.366 217.538 159.954 218.822Z" fill="#EB996E"/>
</g>
<path d="M157.497 226.234L156.429 221.556C155.96 219.508 156.3 217.357 157.379 215.554L158.212 214.176L168.435 219.345C168.435 219.345 165.882 222.667 163.307 220.712L165.187 224.749L157.497 226.234Z" fill="#FFBE9D"/>
<path d="M164.28 225.113C164.216 225.113 164.28 224.568 164.184 223.66C163.988 222.402 163.333 221.261 162.346 220.456L161.364 219.666L162.56 220.05L165.22 220.915H165.156C165.734 221.016 166.33 220.95 166.873 220.725C167.416 220.5 167.883 220.125 168.221 219.644C168.274 219.572 168.317 219.493 168.349 219.409L168.488 219.751C165.54 218.416 162.891 217.167 161.011 216.152C159.976 215.653 158.995 215.048 158.084 214.347C159.145 214.766 160.179 215.248 161.182 215.789C163.073 216.707 165.732 217.925 168.659 219.228L168.894 219.335L168.809 219.58C168.76 219.695 168.703 219.806 168.638 219.911C168.259 220.534 167.673 221.003 166.982 221.236C166.356 221.442 165.691 221.504 165.038 221.417L162.41 220.499L162.624 220.104C163.672 220.997 164.324 222.267 164.44 223.639C164.518 224.136 164.463 224.644 164.28 225.113Z" fill="#EB996E"/>
<path d="M166.971 220.585C167.078 220.585 166.886 221.161 166.971 221.92C167.002 222.117 167.092 222.301 167.229 222.446C167.366 222.591 167.545 222.69 167.74 222.731C167.999 222.724 168.251 222.647 168.47 222.51C168.69 222.373 168.869 222.181 168.99 221.952C169.674 220.884 170.357 219.891 170.774 219.164C171.19 218.438 171.415 217.968 171.49 217.989C171.564 218.011 171.49 218.545 171.126 219.346C170.634 220.355 170.074 221.329 169.449 222.261C169.272 222.565 169.015 222.814 168.706 222.981C168.397 223.149 168.049 223.229 167.698 223.212C167.409 223.142 167.15 222.983 166.958 222.756C166.766 222.53 166.651 222.248 166.629 221.952C166.596 221.588 166.651 221.222 166.79 220.884C166.864 220.692 166.939 220.574 166.971 220.585Z" fill="#EB996E"/>
<path d="M122.601 288.862C122.601 288.862 113.895 267.427 113.938 267.021L116.192 259.043L117.1 254.429L120.048 257.857L134.436 242.82C134.703 243.183 127.92 233.336 121.052 223.703C116.267 216.996 111.086 215.522 108.063 215.308C106.806 214.923 105.515 214.659 104.207 214.518L79.4479 214.304C74.0441 214.356 68.8233 216.268 64.6649 219.719C63.522 220.659 54.0369 233.272 47.5747 245.746L67.4848 260.111L70.7639 254.344V254.461C71.0417 256.416 72.2273 262.119 72.6118 264.073C73.8188 270.086 74.2033 277.327 71.266 282.293C69.0342 287.855 67.1296 293.543 65.5621 299.328H126.66C126.66 299.328 124.694 294.02 122.601 288.862Z" fill="#455A64"/>
<path d="M73.445 279.901L71.3088 278.214V278.021L71.2233 278.128L57.4123 267L63.3405 257.227L49.0275 246.772C49.0915 247.466 35.7505 267.245 37.5557 271.133C40.1085 276.622 57.4444 287.601 64.5368 291.927C62.6055 292.178 60.693 292.556 58.8116 293.059C57.0064 293.646 62.8919 295.195 64.3232 295.505C64.8786 295.611 66.0215 294.725 67.2392 293.55L67.5703 293.742L67.9548 292.845C69.2585 291.503 70.4717 290.076 71.5865 288.573C71.8856 288.114 71.8749 286.031 71.7574 283.831L73.445 279.901Z" fill="#FFBE9D"/>
<path d="M150.02 486.581L149.934 484.562L129.458 485.149L129.64 491.814H130.9C136.54 491.953 159.569 492.156 163.297 490.991C167.452 489.742 150.02 486.581 150.02 486.581Z" fill="#4949EB"/>
<g opacity="0.3">
<path d="M137.021 491.472C136.657 489.847 135.681 488.424 134.297 487.499C132.891 486.532 131.189 486.089 129.49 486.249L129.65 491.589L137.021 491.472Z" fill="black"/>
</g>
<g opacity="0.3">
<path d="M158.543 488.407C158.543 488.407 164.664 489.87 163.884 490.82C163.104 491.771 139.926 492.348 129.64 491.814V491.397L156.792 490.895C156.792 490.895 157.358 488.481 158.543 488.407Z" fill="black"/>
</g>
<path d="M129.341 491.387H129.683H130.751H134.457C137.598 491.387 141.934 491.387 146.698 491.269C151.462 491.152 155.809 490.949 158.928 490.767L162.635 490.522L163.639 490.447H162.571L158.864 490.618C155.745 490.757 151.387 490.927 146.645 491.056C141.902 491.184 137.533 491.216 134.404 491.237H130.697H129.693L129.341 491.387Z" fill="#263238"/>
<path d="M156.824 491.194C156.967 490.614 157.182 490.055 157.465 489.528C157.819 489.032 158.227 488.577 158.682 488.172C158.075 488.404 157.568 488.843 157.251 489.411C157.064 489.664 156.93 489.953 156.856 490.259C156.783 490.566 156.772 490.884 156.824 491.194Z" fill="#263238"/>
<path d="M150.714 488.514C150.778 488.514 151.056 488.215 151.334 487.766C151.611 487.318 151.804 486.933 151.75 486.901C151.697 486.869 151.408 487.211 151.131 487.649C150.853 488.087 150.661 488.482 150.714 488.514Z" fill="#263238"/>
<path d="M149.037 487.744C149.09 487.744 149.4 487.584 149.742 487.275C150.084 486.965 150.329 486.698 150.276 486.644C150.223 486.591 149.923 486.805 149.571 487.114C149.219 487.424 148.994 487.702 149.037 487.744Z" fill="#263238"/>
<path d="M147.948 485.94C148.293 486.048 148.657 486.081 149.016 486.036C149.377 486.069 149.741 486.025 150.084 485.908C149.739 485.801 149.375 485.768 149.016 485.812C148.655 485.771 148.289 485.815 147.948 485.94Z" fill="#263238"/>
<path d="M147.542 484.733C148.305 485.085 149.176 485.123 149.967 484.84C149.567 484.78 149.163 484.762 148.76 484.786C148.356 484.735 147.949 484.717 147.542 484.733Z" fill="#263238"/>
<path d="M151.355 486.837C151.789 486.915 152.234 486.915 152.669 486.837C153.141 486.775 153.606 486.667 154.057 486.516C154.333 486.437 154.598 486.326 154.848 486.185C154.923 486.146 154.99 486.092 155.043 486.026C155.097 485.96 155.136 485.883 155.158 485.801C155.172 485.709 155.16 485.614 155.122 485.529C155.084 485.443 155.022 485.371 154.944 485.32C154.44 485.102 153.878 485.056 153.345 485.189C152.812 485.323 152.338 485.628 151.996 486.057C151.794 486.293 151.655 486.576 151.59 486.88C151.59 487.083 151.59 487.211 151.59 487.211C151.709 486.822 151.901 486.46 152.156 486.143C152.44 485.814 152.81 485.57 153.224 485.438C153.736 485.263 154.295 485.282 154.794 485.491C155.008 485.63 154.933 485.865 154.709 485.993C154.476 486.124 154.229 486.228 153.972 486.303C153.538 486.461 153.091 486.583 152.637 486.666C151.857 486.783 151.355 486.805 151.355 486.837Z" fill="#263238"/>
<path d="M151.675 486.89C151.753 486.766 151.805 486.627 151.827 486.482C151.849 486.337 151.841 486.188 151.803 486.047C151.75 485.724 151.618 485.419 151.419 485.16C151.302 484.983 151.144 484.836 150.958 484.734C150.772 484.631 150.563 484.576 150.351 484.573C150.288 484.584 150.228 484.608 150.175 484.643C150.122 484.678 150.076 484.723 150.04 484.775C150.004 484.828 149.979 484.887 149.967 484.95C149.954 485.012 149.954 485.076 149.966 485.139C150.005 485.335 150.085 485.521 150.201 485.683C150.385 485.947 150.6 486.188 150.842 486.399C151.054 486.619 151.319 486.78 151.611 486.869C151.611 486.869 151.344 486.666 150.97 486.282C150.755 486.062 150.562 485.822 150.393 485.566C150.212 485.32 150.073 484.861 150.393 484.797C150.714 484.733 151.066 485.053 151.269 485.288C151.457 485.516 151.592 485.782 151.665 486.068C151.699 486.341 151.702 486.617 151.675 486.89Z" fill="#263238"/>
<path d="M129.597 486.196C129.597 486.196 130.174 486.132 131.103 486.196C132.295 486.289 133.44 486.695 134.425 487.371C135.373 488.03 136.114 488.945 136.561 490.009C136.893 490.81 136.946 491.355 136.989 491.355C137.031 491.355 136.989 491.216 136.989 490.97C136.949 490.605 136.862 490.246 136.732 489.902C136.32 488.781 135.575 487.812 134.596 487.125C133.575 486.423 132.374 486.027 131.135 485.983C130.762 485.945 130.387 485.945 130.014 485.983C129.863 486.028 129.722 486.101 129.597 486.196Z" fill="#263238"/>
<path d="M139.531 489.56C141.51 489.853 143.524 489.817 145.491 489.453C145.491 489.389 144.156 489.453 142.511 489.517C140.866 489.581 139.541 489.485 139.531 489.56Z" fill="#263238"/>
<path d="M135.536 489.656C135.536 489.656 135.654 489.912 135.803 490.19C135.953 490.468 136.027 490.724 136.092 490.724C136.156 490.724 136.188 490.414 136.017 490.094C135.846 489.774 135.579 489.603 135.536 489.656Z" fill="#263238"/>
<path d="M133.977 487.947C133.977 488.001 134.073 488.193 134.286 488.385C134.5 488.577 134.714 488.695 134.767 488.652C134.82 488.609 134.671 488.417 134.457 488.214C134.244 488.011 134.03 487.905 133.977 487.947Z" fill="#263238"/>
<path d="M131.797 487.211C131.797 487.275 132.086 487.264 132.385 487.36C132.684 487.456 132.908 487.595 132.962 487.542C133.015 487.488 132.834 487.243 132.46 487.136C132.086 487.029 131.776 487.157 131.797 487.211Z" fill="#263238"/>
<path d="M130.312 486.88C130.312 486.933 130.409 487.029 130.58 487.093C130.75 487.157 130.9 487.147 130.932 487.093C130.964 487.04 130.825 486.944 130.654 486.88C130.483 486.816 130.312 486.816 130.312 486.88Z" fill="#263238"/>
<path d="M90.0228 164.002C88.8252 162.992 87.3406 162.383 85.7785 162.263C84.2165 162.142 82.6561 162.515 81.3175 163.329C80.0037 164.173 78.9676 165.465 77.5469 166.084C75.1864 167.152 72.4092 166.319 69.8563 166.725C67.971 167.088 66.275 168.106 65.0687 169.6C63.8624 171.093 63.2238 172.965 63.2659 174.885C63.3728 176.935 64.2486 179.157 63.2659 180.94C62.3901 182.521 60.414 183.076 58.9934 184.208C57.8316 185.223 57.0983 186.641 56.9416 188.175C56.785 189.709 57.2167 191.246 58.1496 192.475C58.9998 193.282 59.8022 194.137 60.5529 195.038C61.5569 196.608 61.4181 198.616 61.6744 200.452C61.9308 202.289 62.9882 204.383 64.8788 204.5C66.3849 204.596 67.7201 203.347 69.2155 203.432C71.3517 203.603 72.1742 206.124 73.3919 207.843C74.1762 208.921 75.2345 209.77 76.4571 210.301C77.6797 210.832 79.0222 211.027 80.3455 210.865C82.2574 210.609 84.148 209.605 86.0066 210.075C88.3565 210.673 89.7664 213.418 92.159 213.76C93.9428 214.016 95.5984 212.831 96.9229 211.624C98.2474 210.417 99.5933 209.007 101.366 208.687C103.503 208.302 105.553 209.595 107.7 209.894C109.095 210.057 110.507 209.808 111.761 209.178C113.016 208.547 114.059 207.564 114.761 206.348C115.936 204.212 115.936 201.585 117.036 199.406C117.904 198.017 118.856 196.683 119.888 195.412C120.409 194.776 120.776 194.03 120.961 193.23C121.147 192.429 121.145 191.597 120.956 190.798C120.571 189.73 119.632 188.843 119.172 187.765C118.489 186.141 118.991 184.304 119.172 182.553C119.354 180.801 118.991 178.676 117.388 177.95C116.686 177.772 115.997 177.543 115.327 177.266C114.077 176.497 114.141 174.714 114.034 173.251C113.998 172.174 113.704 171.122 113.176 170.184C112.648 169.245 111.902 168.447 111.001 167.857C109.132 166.789 106.365 167.323 105.425 169.246" fill="#263238"/>
<path d="M78.0704 183.696C77.1064 181.937 76.535 179.99 76.3954 177.989C76.2559 175.988 76.5516 173.981 77.2622 172.105C77.9727 170.23 79.0813 168.53 80.5115 167.124C81.9418 165.718 83.6598 164.638 85.5473 163.959C88.2533 163.097 91.1007 162.767 93.9322 162.987C96.3602 162.973 98.7646 163.464 100.993 164.429C102.1 164.923 103.074 165.674 103.834 166.619C104.593 167.565 105.117 168.677 105.361 169.865" fill="#4949EB"/>
<path d="M91.4004 226.928C92.7169 227.03 94.0404 226.865 95.2914 226.442C96.5425 226.02 97.6953 225.349 98.6808 224.471C99.6663 223.592 100.464 222.523 101.027 221.329C101.589 220.134 101.904 218.838 101.954 217.519C102.157 212.179 102.338 206.775 102.338 206.775C102.338 206.775 110.435 206.027 111.022 198.017C111.61 190.007 111.342 171.51 111.342 171.51C106.904 169.275 101.95 168.265 96.991 168.584C92.032 168.903 87.2481 170.54 83.133 173.325L81.8833 174.169L82.3426 217.252C82.37 219.705 83.315 222.059 84.9915 223.85C86.668 225.641 88.9544 226.739 91.4004 226.928Z" fill="#FFBE9D"/>
<path d="M107.529 185.607C107.366 185.445 107.255 185.237 107.21 185.011C107.165 184.786 107.188 184.551 107.276 184.339C107.364 184.126 107.513 183.944 107.705 183.816C107.896 183.688 108.121 183.619 108.352 183.619C108.582 183.619 108.807 183.688 108.999 183.816C109.19 183.944 109.34 184.126 109.428 184.339C109.516 184.551 109.539 184.786 109.493 185.011C109.448 185.237 109.337 185.445 109.174 185.607C108.956 185.825 108.66 185.948 108.352 185.948C108.043 185.948 107.748 185.825 107.529 185.607Z" fill="#263238"/>
<path d="M110.649 184.251C110.52 184.39 109.762 183.738 108.662 183.664C107.562 183.589 106.729 184.112 106.611 183.963C106.494 183.813 106.696 183.653 107.06 183.407C107.549 183.1 108.124 182.957 108.7 182.999C109.277 183.042 109.825 183.267 110.264 183.642C110.617 183.941 110.713 184.198 110.649 184.251Z" fill="#263238"/>
<path d="M97.0615 184.102C97.1979 184.184 97.3158 184.294 97.408 184.424C97.5002 184.554 97.5647 184.702 97.5974 184.858C97.6302 185.014 97.6305 185.175 97.5984 185.331C97.5663 185.488 97.5024 185.636 97.4108 185.766C97.3191 185.897 97.2016 186.007 97.0656 186.09C96.9295 186.173 96.7778 186.228 96.6199 186.25C96.4619 186.272 96.3011 186.262 96.1474 186.219C95.9937 186.177 95.8504 186.103 95.7263 186.003C95.5899 185.92 95.4719 185.81 95.3798 185.68C95.2876 185.55 95.2231 185.402 95.1903 185.246C95.1576 185.09 95.1573 184.929 95.1894 184.773C95.2215 184.617 95.2853 184.469 95.377 184.338C95.4687 184.208 95.5862 184.097 95.7222 184.014C95.8583 183.931 96.01 183.877 96.1679 183.854C96.3258 183.832 96.4866 183.843 96.6404 183.885C96.7941 183.928 96.9374 184.001 97.0615 184.102Z" fill="#263238"/>
<path d="M98.6104 184.507C98.3489 184.26 98.0326 184.078 97.6874 183.976C97.3421 183.874 96.9776 183.854 96.6236 183.92C95.5555 183.824 94.6796 184.368 94.5621 184.219C94.4446 184.069 94.6476 183.909 95.0214 183.664C95.5105 183.351 96.0875 183.205 96.6663 183.247C97.2492 183.29 97.803 183.519 98.2472 183.899C98.5676 184.198 98.6744 184.454 98.6104 184.507Z" fill="#263238"/>
<path d="M102.541 193.083C103.124 192.894 103.734 192.804 104.346 192.816C104.645 192.816 104.87 192.752 104.902 192.592C104.928 192.305 104.873 192.016 104.741 191.759C104.507 191.011 104.261 190.253 104.004 189.463C103.3 187.513 102.789 185.499 102.477 183.45C102.648 183.397 103.545 186.003 104.613 189.271L105.297 191.588C105.463 191.969 105.493 192.395 105.382 192.795C105.336 192.903 105.264 192.998 105.173 193.072C105.081 193.146 104.974 193.198 104.859 193.222C104.693 193.247 104.523 193.247 104.357 193.222C103.748 193.28 103.134 193.233 102.541 193.083Z" fill="#263238"/>
<path d="M102.36 206.668C98.6557 206.509 95.0829 205.252 92.0947 203.059C92.0947 203.059 94.231 208.975 102.253 208.74L102.36 206.668Z" fill="#EB996E"/>
<path d="M89.2 168.744C89.3919 170.396 90.1242 171.939 91.2831 173.132C92.442 174.326 93.9626 175.103 95.6088 175.344C97.5742 175.579 99.7104 175.034 101.484 175.921C102.679 176.71 103.697 177.739 104.474 178.943C104.867 179.543 105.389 180.047 106.003 180.416C106.617 180.786 107.307 181.013 108.021 181.079C108.705 180.997 109.379 180.84 110.029 180.609C110.355 180.496 110.702 180.456 111.046 180.493C111.389 180.53 111.721 180.643 112.015 180.823C113.031 178.469 113.439 175.899 113.201 173.347C113.068 172.078 112.583 170.871 111.802 169.861C111.021 168.852 109.974 168.08 108.779 167.633C107.187 167.152 105.468 167.462 103.833 167.174C102.498 166.864 101.207 166.391 99.9882 165.764C97.9677 164.673 95.677 164.184 93.3871 164.354C91.1226 164.696 88.9436 166.554 89.0077 168.84" fill="#263238"/>
<path d="M82.4495 190.659C85.3548 192.998 88.8583 186.953 90.4071 183.183C91.8242 179.295 92.5858 175.199 92.6609 171.061C92.8782 169.72 92.6294 168.344 91.9559 167.163C91.1227 166.031 90.7489 167.42 89.8196 166.362C88.0358 164.29 84.746 165.412 83.1224 166.117C80.42 167.281 78.7324 170.303 78.1983 173.368C77.8282 176.464 77.9399 179.598 78.5294 182.66C78.7324 184.07 78.9353 185.479 79.1276 186.932C79.1954 187.933 79.4836 188.907 79.9714 189.784C80.2023 190.204 80.5746 190.529 81.0224 190.701C81.4702 190.873 81.9644 190.881 82.4174 190.723" fill="#263238"/>
<path d="M82.3426 184.069C82.3402 183.757 82.218 183.458 82.0014 183.234C81.7847 183.009 81.4901 182.876 81.1783 182.863C79.683 182.863 77.2369 183.418 77.0126 187.54C76.6922 193.436 82.3533 191.962 82.3533 191.812C82.3533 191.663 82.3533 186.366 82.3426 184.069Z" fill="#FFBE9D"/>
<path d="M81.0826 189.484C81.0826 189.484 80.9758 189.548 80.7942 189.612C80.5467 189.708 80.2726 189.708 80.0251 189.612C79.6543 189.351 79.3599 188.996 79.1722 188.583C78.9844 188.17 78.9101 187.714 78.957 187.263C78.967 186.758 79.0912 186.261 79.3201 185.81C79.3873 185.629 79.4971 185.466 79.6402 185.336C79.7833 185.206 79.9556 185.112 80.1426 185.063C80.2625 185.039 80.3869 185.058 80.4942 185.117C80.6016 185.175 80.685 185.27 80.7301 185.383C80.7942 185.554 80.7301 185.661 80.7835 185.682C80.8369 185.704 80.9224 185.586 80.8796 185.34C80.8607 185.192 80.7886 185.055 80.6767 184.956C80.5188 184.823 80.3167 184.755 80.1106 184.764C79.8664 184.799 79.6354 184.896 79.4392 185.046C79.2429 185.195 79.088 185.392 78.989 185.618C78.7143 186.117 78.5606 186.673 78.5404 187.242C78.4839 187.764 78.5824 188.292 78.8236 188.759C79.0648 189.226 79.4381 189.612 79.8969 189.869C80.052 189.928 80.2186 189.95 80.3836 189.933C80.5486 189.916 80.7075 189.861 80.8476 189.773C81.0612 189.623 81.1039 189.495 81.0826 189.484Z" fill="#EB996E"/>
<path d="M99.7107 194.504C99.5063 194.856 99.4467 195.274 99.5445 195.669C99.6424 196.064 99.89 196.406 100.235 196.622C100.58 196.838 100.996 196.912 101.394 196.828C101.793 196.743 102.143 196.507 102.37 196.17C102.492 196.004 102.58 195.815 102.63 195.615C102.679 195.415 102.688 195.207 102.657 195.003C102.625 194.799 102.554 194.603 102.448 194.427C102.341 194.251 102.2 194.097 102.034 193.975C101.868 193.853 101.679 193.765 101.479 193.716C101.278 193.667 101.07 193.658 100.867 193.689C100.663 193.72 100.467 193.791 100.291 193.898C100.114 194.005 99.9609 194.145 99.8388 194.312" fill="#EB996E"/>
<path d="M103.385 195.647C102.986 195.811 102.558 195.889 102.127 195.876C101.697 195.863 101.273 195.759 100.885 195.572C99.5289 195.091 98.7492 194.141 98.9094 194.045C99.0696 193.949 99.8493 194.621 101.046 195.038C102.242 195.454 103.374 195.444 103.385 195.647Z" fill="#263238"/>
<path d="M88.3565 164.13C86.1668 163.831 84.618 161.695 84.2442 159.527C84.0368 157.329 84.2989 155.112 85.0132 153.023C86.8129 154.274 88.114 156.119 88.6883 158.235C89.2626 160.35 89.0733 162.6 88.1536 164.589" fill="#4949EB"/>
<path d="M88.3348 163.799C88.1213 162.986 88.1838 162.126 88.5124 161.352C88.8411 160.579 89.4173 159.937 90.1506 159.527C91.6208 158.737 93.3049 158.438 94.9572 158.672C95.1036 158.677 95.2466 158.717 95.3738 158.79C95.4468 158.852 95.5063 158.929 95.5485 159.015C95.5908 159.102 95.6149 159.196 95.6195 159.292C95.6779 160.108 95.4903 160.922 95.0809 161.631C94.6715 162.339 94.0592 162.908 93.323 163.265C91.8356 163.941 90.225 164.305 88.5911 164.333C88.3406 164.376 88.083 164.354 87.8435 164.269C87.7843 164.245 87.7303 164.21 87.6848 164.166C87.6392 164.121 87.603 164.068 87.5781 164.009C87.5533 163.951 87.5403 163.888 87.54 163.824C87.5397 163.76 87.5521 163.697 87.5764 163.639" fill="#4949EB"/>
<path d="M117.495 174.383C117.495 174.383 117.495 174.265 117.356 174.105C117.269 173.992 117.159 173.898 117.034 173.828C116.91 173.759 116.772 173.715 116.63 173.699C116.412 173.641 116.18 173.669 115.982 173.776C115.783 173.883 115.633 174.062 115.562 174.276C115.498 174.553 115.528 174.843 115.648 175.1C115.768 175.358 115.971 175.568 116.224 175.696C116.549 175.815 116.904 175.822 117.233 175.715C117.562 175.609 117.846 175.395 118.04 175.109C118.26 174.761 118.389 174.365 118.417 173.954C118.445 173.544 118.371 173.133 118.2 172.759C117.807 171.867 117.111 171.141 116.237 170.71C115.362 170.278 114.363 170.168 113.415 170.399L113.095 170.495L111.61 170.965L112.827 170.015C113.181 169.704 113.436 169.297 113.561 168.844C113.687 168.39 113.677 167.91 113.532 167.462C113.385 167.037 113.145 166.651 112.829 166.331C112.513 166.011 112.129 165.767 111.706 165.614C110.954 165.37 110.157 165.302 109.375 165.417C108.593 165.532 107.848 165.826 107.198 166.277C106.622 166.629 106.13 167.045 105.628 167.345C105.205 167.61 104.718 167.758 104.218 167.772C103.364 167.772 103.043 167.323 103.075 167.323C103.42 167.515 103.815 167.596 104.208 167.558C104.662 167.51 105.097 167.345 105.468 167.078C105.917 166.789 106.387 166.351 106.995 165.956C107.647 165.518 108.37 165.196 109.132 165.006C110.037 164.774 110.992 164.826 111.866 165.155C112.361 165.327 112.81 165.608 113.18 165.978C113.55 166.348 113.831 166.797 114.002 167.291C114.197 167.851 114.217 168.457 114.061 169.029C113.905 169.601 113.579 170.112 113.127 170.495L112.86 170.015L113.233 169.897C114.31 169.632 115.445 169.76 116.436 170.257C117.427 170.754 118.208 171.588 118.638 172.61C118.834 173.065 118.912 173.562 118.863 174.055C118.815 174.549 118.642 175.021 118.36 175.429C118.1 175.79 117.723 176.051 117.294 176.167C116.864 176.284 116.407 176.25 116 176.07C115.675 175.896 115.419 175.615 115.277 175.274C115.135 174.934 115.115 174.555 115.22 174.201C115.274 174.057 115.358 173.926 115.466 173.817C115.575 173.708 115.706 173.624 115.85 173.571C116.083 173.486 116.334 173.467 116.577 173.518C116.742 173.544 116.899 173.609 117.034 173.708C117.169 173.806 117.28 173.935 117.356 174.084C117.57 174.265 117.495 174.383 117.495 174.383Z" fill="#263238"/>
<path d="M58.8544 183.899C59.0471 183.849 59.2492 183.849 59.4419 183.899C59.9062 184.042 60.3161 184.323 60.6174 184.705C60.9187 185.086 61.0973 185.55 61.1295 186.035C61.1429 186.287 61.1064 186.539 61.0221 186.778C60.9378 187.016 60.8074 187.235 60.6382 187.423C60.2413 187.851 59.7098 188.13 59.1321 188.213C58.807 188.267 58.4741 188.249 58.1566 188.161C57.8392 188.072 57.5451 187.915 57.2949 187.701C56.8238 187.16 56.5106 186.501 56.39 185.794C56.2694 185.088 56.346 184.361 56.6113 183.696C56.8766 182.907 57.3101 182.185 57.8818 181.58C58.4535 180.975 59.1498 180.502 59.9226 180.193C60.745 179.872 61.6102 179.744 62.422 179.498C62.825 179.401 63.2041 179.223 63.5364 178.976C63.8687 178.728 64.1473 178.415 64.3553 178.057C64.7147 177.257 64.8191 176.365 64.6544 175.504C64.4924 174.578 64.242 173.67 63.9067 172.791C63.5646 171.863 63.3699 170.886 63.3299 169.897C63.343 168.89 63.7227 167.921 64.398 167.174C65.0364 166.467 65.8567 165.95 66.7693 165.678C67.6338 165.436 68.5385 165.37 69.429 165.486C71.1807 165.668 72.6334 166.554 74.022 166.757C74.6885 166.889 75.3801 166.795 75.9873 166.49C76.5448 166.172 77.0433 165.76 77.4614 165.273C78.1637 164.342 79.0511 163.568 80.0676 162.998C80.8752 162.626 81.7681 162.478 82.6525 162.571C83.2071 162.623 83.7469 162.779 84.244 163.03C84.3723 163.094 84.4971 163.166 84.6179 163.243L84.7247 163.34C84.0672 163.037 83.3627 162.849 82.6418 162.784C81.8009 162.73 80.9607 162.9 80.2065 163.275C79.2422 163.855 78.4062 164.626 77.7497 165.54C77.3074 166.068 76.7804 166.519 76.1903 166.875C75.5033 167.229 74.7194 167.349 73.9579 167.216C72.3984 166.981 70.9991 166.148 69.3756 165.999C68.5475 165.861 67.6983 165.93 66.9029 166.198C66.1075 166.466 65.3903 166.926 64.8146 167.537C64.24 168.193 63.9248 169.036 63.9281 169.908C63.961 170.836 64.145 171.752 64.4728 172.62C64.8211 173.529 65.0788 174.47 65.2419 175.429C65.4221 176.405 65.2952 177.412 64.8787 178.313C64.6382 178.733 64.3141 179.1 63.9265 179.39C63.5389 179.68 63.0959 179.888 62.6249 180C61.7491 180.267 60.8946 180.385 60.1469 180.662C59.4382 180.947 58.7987 181.38 58.2717 181.933C57.7448 182.486 57.3425 183.145 57.092 183.866C56.8214 184.461 56.721 185.12 56.8021 185.768C56.8832 186.417 57.1425 187.03 57.5513 187.54C57.9677 187.865 58.4896 188.024 59.0162 187.986C59.5429 187.949 60.037 187.718 60.4032 187.337C60.6721 187.035 60.8335 186.652 60.8625 186.249C60.8915 185.845 60.7863 185.443 60.5634 185.105C60.3201 184.618 59.9056 184.238 59.3992 184.037C59.0574 183.92 58.8544 183.92 58.8544 183.899Z" fill="#263238"/>
<path d="M92.8423 189.559C92.8116 189.575 92.7779 189.585 92.7433 189.588C92.7086 189.591 92.6738 189.587 92.6408 189.576C92.6079 189.565 92.5775 189.547 92.5515 189.524C92.5255 189.501 92.5045 189.473 92.4898 189.441C92.4726 189.376 92.4807 189.307 92.5124 189.248C92.5441 189.188 92.597 189.143 92.6607 189.121C92.7236 189.094 92.7944 189.09 92.8595 189.112C92.9246 189.134 92.9793 189.179 93.0132 189.239C93.0303 189.304 93.0223 189.373 92.9906 189.432C92.9589 189.492 92.9059 189.537 92.8423 189.559Z" fill="#263238"/>
<path d="M94.947 189.388C94.9082 189.392 94.869 189.389 94.8316 189.378C94.7943 189.367 94.7596 189.348 94.7296 189.323C94.6997 189.298 94.6751 189.267 94.6574 189.233C94.6396 189.198 94.6291 189.16 94.6265 189.121C94.6187 189.082 94.6186 189.043 94.6262 189.004C94.6339 188.965 94.649 188.929 94.6708 188.896C94.6927 188.863 94.7208 188.835 94.7535 188.813C94.7862 188.791 94.8229 188.776 94.8615 188.769C94.9341 188.775 95.0024 188.805 95.0553 188.855C95.1081 188.905 95.1423 188.972 95.1523 189.044C95.1622 189.116 95.1473 189.19 95.11 189.252C95.0727 189.315 95.0152 189.363 94.947 189.388Z" fill="#263238"/>
<path d="M96.8588 189.826C96.7783 189.803 96.7094 189.751 96.6658 189.68C96.6222 189.609 96.6072 189.523 96.6238 189.441C96.6238 189.239 96.7947 189.1 96.9442 189.121C97.0247 189.144 97.0936 189.196 97.1372 189.267C97.1808 189.338 97.1958 189.424 97.1792 189.506C97.1741 189.589 97.1387 189.667 97.0797 189.726C97.0207 189.785 96.9421 189.821 96.8588 189.826Z" fill="#263238"/>
<path d="M94.5941 191.14C94.7475 191.14 94.8718 191.02 94.8718 190.873C94.8718 190.725 94.7475 190.606 94.5941 190.606C94.4407 190.606 94.3164 190.725 94.3164 190.873C94.3164 191.02 94.4407 191.14 94.5941 191.14Z" fill="#263238"/>
<path d="M107.882 190.104C107.821 190.118 107.758 190.114 107.7 190.091C107.642 190.069 107.592 190.03 107.557 189.979C107.521 189.928 107.502 189.867 107.501 189.805C107.501 189.743 107.519 189.682 107.553 189.63C107.588 189.579 107.637 189.539 107.695 189.515C107.752 189.492 107.816 189.486 107.876 189.499C107.937 189.512 107.992 189.543 108.035 189.588C108.078 189.633 108.107 189.69 108.117 189.751C108.13 189.829 108.113 189.909 108.069 189.974C108.025 190.039 107.958 190.086 107.882 190.104Z" fill="#263238"/>
<path d="M109.302 190.168C109.153 190.168 109.099 189.901 109.174 189.687C109.249 189.473 109.42 189.335 109.569 189.377C109.719 189.42 109.772 189.644 109.698 189.869C109.623 190.093 109.452 190.221 109.302 190.168Z" fill="#263238"/>
<path d="M108.598 192.101C108.559 192.093 108.523 192.078 108.491 192.056C108.458 192.034 108.431 192.006 108.41 191.973C108.389 191.94 108.375 191.903 108.369 191.864C108.362 191.826 108.364 191.786 108.373 191.748C108.377 191.71 108.389 191.674 108.407 191.64C108.425 191.607 108.45 191.577 108.48 191.553C108.51 191.529 108.544 191.512 108.581 191.501C108.617 191.491 108.656 191.488 108.694 191.492C108.732 191.498 108.768 191.512 108.8 191.533C108.832 191.554 108.86 191.581 108.881 191.614C108.902 191.646 108.916 191.682 108.923 191.72C108.929 191.758 108.927 191.796 108.918 191.834C108.91 191.911 108.872 191.982 108.812 192.032C108.752 192.082 108.675 192.107 108.598 192.101Z" fill="#263238"/>
<path d="M151.441 485.16L127.343 310.585L126.671 299.317L66.3742 296.455L63.8534 305.95C55.3938 335.768 12.647 479.959 12.647 479.959L33.529 486.548L95.6946 321.329L124.63 484.872L151.441 485.16Z" fill="#263238"/>
<path d="M123.594 297.63C123.434 297.63 123.284 297.299 123.242 296.861C123.199 296.423 123.242 296.049 123.434 296.039C123.626 296.028 123.744 296.37 123.786 296.808C123.829 297.246 123.744 297.619 123.594 297.63Z" fill="#455A64"/>
<path d="M124.225 303.985C124.075 303.985 123.872 303.301 123.787 302.425C123.701 301.55 123.787 300.823 123.904 300.813C124.022 300.802 124.257 301.496 124.342 302.372C124.427 303.248 124.374 303.974 124.225 303.985Z" fill="#455A64"/>
<path d="M124.887 310.339C124.726 310.339 124.534 309.655 124.438 308.78C124.342 307.904 124.438 307.178 124.545 307.156C124.652 307.135 124.897 307.84 124.993 308.716C125.09 309.591 125.036 310.317 124.887 310.339Z" fill="#455A64"/>
<path d="M125.57 316.683C125.41 316.683 125.217 315.999 125.121 315.124C125.025 314.248 125.121 313.522 125.217 313.511C125.314 313.5 125.581 314.194 125.666 315.07C125.752 315.946 125.72 316.661 125.57 316.683Z" fill="#455A64"/>
<path d="M126.275 323.027C126.126 323.027 125.923 322.343 125.827 321.468C125.73 320.592 125.762 319.876 125.923 319.855C126.083 319.834 126.275 320.539 126.371 321.414C126.467 322.29 126.425 323.006 126.275 323.027Z" fill="#455A64"/>
<path d="M127.012 329.371C126.852 329.371 126.649 328.687 126.542 327.811C126.436 326.936 126.489 326.22 126.639 326.199C126.788 326.177 127.002 326.872 127.098 327.747C127.194 328.623 127.162 329.349 127.012 329.371Z" fill="#455A64"/>
<path d="M127.76 335.715C127.61 335.715 127.397 335.031 127.29 334.155C127.183 333.28 127.226 332.553 127.375 332.543C127.525 332.532 127.738 333.215 127.845 334.091C127.952 334.967 127.909 335.693 127.76 335.715Z" fill="#455A64"/>
<path d="M128.529 342.048C128.379 342.048 128.166 341.375 128.059 340.499C127.952 339.624 127.984 338.897 128.144 338.876C128.304 338.855 128.507 339.549 128.614 340.425C128.721 341.3 128.678 342.027 128.529 342.048Z" fill="#455A64"/>
<path d="M129.319 348.381C129.159 348.381 128.945 347.708 128.839 346.833C128.732 345.957 128.764 345.231 128.924 345.22C129.084 345.209 129.287 345.893 129.394 346.768C129.501 347.644 129.469 348.36 129.319 348.381Z" fill="#455A64"/>
<path d="M130.121 354.714C129.96 354.714 129.747 354.042 129.64 353.166C129.533 352.29 129.565 351.575 129.715 351.553C129.864 351.532 130.078 352.226 130.195 353.102C130.313 353.978 130.313 354.693 130.121 354.714Z" fill="#455A64"/>
<path d="M130.932 361.047C130.783 361.047 130.569 360.375 130.451 359.499C130.334 358.623 130.366 357.908 130.526 357.886C130.686 357.865 130.889 358.559 131.007 359.435C131.124 360.311 131.082 360.983 130.932 361.047Z" fill="#455A64"/>
<path d="M131.755 367.392C131.605 367.392 131.392 366.719 131.274 365.843C131.157 364.967 131.189 364.241 131.349 364.231C131.509 364.22 131.712 364.893 131.83 365.769C131.947 366.644 131.915 367.392 131.755 367.392Z" fill="#455A64"/>
<path d="M132.599 373.714C132.439 373.714 132.225 373.042 132.107 372.166C131.99 371.29 132.022 370.564 132.172 370.542C132.321 370.521 132.545 371.215 132.663 372.091C132.78 372.967 132.748 373.693 132.599 373.714Z" fill="#455A64"/>
<path d="M133.443 380.037C133.282 380.037 133.069 379.364 132.951 378.488C132.834 377.612 132.866 376.897 133.015 376.875C133.165 376.854 133.389 377.548 133.507 378.424C133.624 379.3 133.592 380.015 133.443 380.037Z" fill="#455A64"/>
<path d="M134.286 386.37C134.136 386.37 133.923 385.697 133.795 384.822C133.666 383.946 133.709 383.22 133.859 383.198C134.008 383.177 134.233 383.871 134.35 384.747C134.468 385.623 134.436 386.349 134.286 386.37Z" fill="#455A64"/>
<path d="M135.141 392.693C134.991 392.693 134.767 392.02 134.649 391.144C134.532 390.268 134.564 389.553 134.714 389.531C134.863 389.51 135.087 390.204 135.205 391.069C135.322 391.934 135.301 392.671 135.141 392.693Z" fill="#455A64"/>
<path d="M136.006 399.015C135.846 399.015 135.632 398.353 135.514 397.477C135.397 396.602 135.418 395.875 135.514 395.854C135.611 395.833 135.888 396.527 136.006 397.403C136.123 398.278 136.155 399.005 136.006 399.015Z" fill="#455A64"/>
<path d="M136.882 405.338C136.732 405.338 136.508 404.665 136.38 403.8C136.252 402.935 136.273 402.198 136.38 402.176C136.487 402.155 136.754 402.849 136.871 403.714C136.989 404.579 137.031 405.316 136.882 405.338Z" fill="#455A64"/>
<path d="M137.79 411.65C137.64 411.65 137.416 410.977 137.287 410.112C137.159 409.247 137.17 408.52 137.287 408.488C137.405 408.456 137.672 409.161 137.8 410.026C137.928 410.891 137.96 411.628 137.79 411.65Z" fill="#455A64"/>
<path d="M138.762 417.951C138.612 417.951 138.377 417.289 138.249 416.413C138.121 415.537 138.131 414.822 138.249 414.8C138.366 414.779 138.623 415.462 138.762 416.338C138.9 417.214 138.911 417.93 138.762 417.951Z" fill="#455A64"/>
<path d="M139.713 424.262C139.563 424.262 139.339 423.6 139.2 422.725C139.061 421.849 139.082 421.133 139.2 421.112C139.317 421.09 139.574 421.774 139.713 422.65C139.851 423.525 139.926 424.241 139.713 424.262Z" fill="#455A64"/>
<path d="M140.674 430.564C140.524 430.564 140.289 429.902 140.161 429.036C140.033 428.171 140.044 427.434 140.161 427.413C140.279 427.392 140.546 428.075 140.674 428.951C140.802 429.827 140.823 430.542 140.674 430.564Z" fill="#455A64"/>
<path d="M141.635 436.876C141.475 436.876 141.25 436.203 141.112 435.338C140.973 434.473 141.005 433.746 141.112 433.714C141.218 433.682 141.496 434.387 141.624 435.252C141.752 436.117 141.784 436.812 141.635 436.876Z" fill="#455A64"/>
<path d="M142.596 443.219C142.436 443.219 142.212 442.557 142.073 441.682C141.934 440.806 141.955 440.09 142.073 440.069C142.19 440.047 142.447 440.731 142.586 441.607C142.724 442.483 142.746 443.155 142.596 443.219Z" fill="#455A64"/>
<path d="M143.547 449.5C143.397 449.5 143.173 448.827 143.034 447.962C142.895 447.097 142.917 446.36 143.034 446.338C143.152 446.317 143.419 447.001 143.558 447.876C143.697 448.752 143.707 449.468 143.547 449.5Z" fill="#455A64"/>
<path d="M144.508 455.811C144.359 455.811 144.135 455.138 143.996 454.273C143.857 453.408 143.878 452.671 143.996 452.65C144.113 452.629 144.38 453.312 144.519 454.188C144.658 455.064 144.669 455.779 144.508 455.811Z" fill="#455A64"/>
<path d="M145.47 462.123C145.32 462.123 145.085 461.45 144.957 460.585C144.829 459.72 144.839 458.983 144.957 458.962C145.074 458.941 145.341 459.624 145.47 460.5C145.598 461.376 145.619 462.102 145.47 462.123Z" fill="#455A64"/>
<path d="M146.431 468.435C146.271 468.435 146.047 467.773 145.908 466.897C145.769 466.022 145.801 465.295 145.908 465.274C146.015 465.253 146.292 465.947 146.421 466.812C146.549 467.677 146.581 468.414 146.431 468.435Z" fill="#455A64"/>
<path d="M147.403 474.747C147.243 474.747 147.018 474.085 146.89 473.209C146.762 472.333 146.773 471.618 146.89 471.596C147.008 471.575 147.275 472.258 147.403 473.134C147.531 474.01 147.531 474.725 147.403 474.747Z" fill="#455A64"/>
<path d="M148.322 481.069C148.172 481.069 147.937 480.407 147.809 479.532C147.681 478.656 147.702 477.93 147.809 477.908C147.916 477.887 148.183 478.57 148.322 479.446C148.461 480.322 148.471 481.048 148.322 481.069Z" fill="#455A64"/>
<path d="M149.005 485.854C148.856 485.854 148.685 485.534 148.621 485.096C148.557 484.658 148.621 484.284 148.781 484.263C148.941 484.241 149.112 484.583 149.176 485.021C149.24 485.459 149.155 485.833 149.005 485.854Z" fill="#455A64"/>
<path d="M32.044 481.988C32.1935 481.988 32.2042 482.415 32.044 482.832C31.8838 483.248 31.6915 483.558 31.542 483.515C31.3924 483.472 31.3818 483.088 31.542 482.671C31.7022 482.255 31.9051 481.945 32.044 481.988Z" fill="#455A64"/>
<path d="M34.0309 475.804C34.1697 475.858 34.0309 476.584 33.7959 477.438C33.5609 478.293 33.187 478.944 33.0375 478.901C32.888 478.859 33.0375 478.122 33.2725 477.267C33.5075 476.413 33.8813 475.762 34.0309 475.804Z" fill="#455A64"/>
<path d="M36.0281 469.642C36.1777 469.642 36.0281 470.411 35.7932 471.265C35.5582 472.12 35.1736 472.771 35.0241 472.718C34.8746 472.664 35.0241 471.949 35.2698 471.094C35.5154 470.24 35.8893 469.588 36.0281 469.642Z" fill="#455A64"/>
<path d="M38.0684 463.512C38.2179 463.512 38.0684 464.28 37.8227 465.135C37.577 465.989 37.1925 466.63 37.0536 466.587C36.9148 466.545 37.0536 465.808 37.2993 464.964C37.545 464.12 37.9295 463.426 38.0684 463.512Z" fill="#455A64"/>
<path d="M40.1408 457.328C40.2903 457.328 40.1408 458.097 39.8844 458.951C39.6281 459.806 39.2436 460.446 39.1047 460.393C38.9658 460.34 39.1047 459.624 39.361 458.77C39.6174 457.915 39.9913 457.274 40.1408 457.328Z" fill="#455A64"/>
<path d="M42.234 451.176C42.3835 451.23 42.234 451.956 41.9776 452.81C41.7213 453.665 41.3261 454.306 41.1872 454.252C41.0484 454.199 41.1872 453.472 41.4436 452.629C41.6999 451.785 42.0951 451.134 42.234 451.176Z" fill="#455A64"/>
<path d="M44.3596 445.046C44.5092 445.099 44.3596 445.826 44.0926 446.669C43.8256 447.513 43.441 448.165 43.2915 448.111C43.142 448.058 43.2915 447.332 43.5692 446.488C43.8469 445.644 44.2208 444.993 44.3596 445.046Z" fill="#455A64"/>
<path d="M46.5176 438.948C46.6564 438.948 46.5176 439.727 46.2399 440.571C45.9621 441.415 45.5776 442.066 45.4388 442.013C45.2999 441.959 45.4388 441.233 45.7165 440.389C45.9942 439.546 46.368 438.873 46.5176 438.948Z" fill="#455A64"/>
<path d="M48.686 432.796C48.8355 432.849 48.686 433.576 48.4083 434.419C48.1305 435.263 47.746 435.915 47.5965 435.861C47.4469 435.808 47.5965 435.081 47.8849 434.238C48.1733 433.394 48.5471 432.753 48.686 432.796Z" fill="#455A64"/>
<path d="M50.8861 426.687C51.0356 426.741 50.8861 427.467 50.5977 428.311C50.3093 429.154 49.9355 429.795 49.7859 429.742C49.6364 429.688 49.7859 428.962 50.0743 428.118C50.3627 427.275 50.7472 426.634 50.8861 426.687Z" fill="#455A64"/>
<path d="M53.108 420.589C53.2575 420.642 53.108 421.358 52.8089 422.202C52.5099 423.045 52.136 423.686 51.9971 423.633C51.8583 423.579 51.9971 422.853 52.2855 422.02C52.5739 421.187 52.9691 420.536 53.108 420.589Z" fill="#455A64"/>
<path d="M55.3509 414.49C55.4898 414.49 55.3509 415.27 55.0518 416.103C54.7528 416.936 54.3682 417.588 54.2294 417.534C54.0905 417.481 54.2294 416.755 54.5284 415.911C54.8275 415.067 55.2014 414.437 55.3509 414.49Z" fill="#455A64"/>
<path d="M57.6047 408.392C57.7543 408.446 57.6047 409.172 57.3057 410.016C57.0066 410.859 56.6221 411.489 56.4725 411.436C56.323 411.383 56.4725 410.667 56.7823 409.823C57.092 408.98 57.4659 408.339 57.6047 408.392Z" fill="#455A64"/>
<path d="M59.8799 402.315C60.0295 402.369 59.8799 403.084 59.5702 403.928C59.2604 404.771 58.8866 405.402 58.7477 405.348C58.6089 405.295 58.7477 404.569 59.0575 403.736C59.3672 402.903 59.7411 402.262 59.8799 402.315Z" fill="#455A64"/>
<path d="M62.1762 396.228C62.3151 396.281 62.1762 397.007 61.8664 397.851C61.5567 398.695 61.1722 399.325 61.0226 399.271C60.8731 399.218 61.0226 398.492 61.343 397.648C61.6635 396.804 62.0267 396.228 62.1762 396.228Z" fill="#455A64"/>
<path d="M64.4833 390.161C64.6222 390.215 64.4834 390.93 64.1629 391.774C63.8425 392.618 63.4686 393.248 63.3298 393.194C63.1909 393.141 63.3298 392.415 63.6395 391.571C63.9493 390.727 64.3338 390.097 64.4833 390.161Z" fill="#455A64"/>
<path d="M66.8011 384.085C66.94 384.138 66.8012 384.864 66.4807 385.708C66.1603 386.552 65.7864 387.171 65.6369 387.118C65.4873 387.064 65.6369 386.338 65.9573 385.505C66.2778 384.672 66.6516 384.031 66.8011 384.085Z" fill="#455A64"/>
<path d="M69.1301 378.071C69.2689 378.125 69.1301 378.851 68.8096 379.695C68.4892 380.539 68.1046 381.158 67.9658 381.105C67.8269 381.051 67.9658 380.325 68.2862 379.492C68.6067 378.659 68.9912 377.965 69.1301 378.071Z" fill="#455A64"/>
<path d="M71.4693 371.963C71.6082 372.016 71.4693 372.742 71.1489 373.575C70.8285 374.408 70.4439 375.049 70.2944 374.985C70.1449 374.921 70.2944 374.216 70.6255 373.372C70.9566 372.529 71.3305 371.909 71.4693 371.963Z" fill="#455A64"/>
<path d="M73.8188 365.897C73.9576 365.961 73.8188 366.676 73.4877 367.52C73.1565 368.364 72.7827 368.983 72.6438 368.93C72.505 368.876 72.6438 368.15 72.975 367.317C73.3061 366.484 73.7013 365.843 73.8188 365.897Z" fill="#455A64"/>
<path d="M76.1689 359.852C76.3184 359.905 76.1689 360.621 75.8377 361.464C75.5066 362.308 75.1328 362.927 74.9939 362.874C74.8551 362.821 74.9939 362.094 75.325 361.261C75.6562 360.428 76.03 359.788 76.1689 359.852Z" fill="#455A64"/>
<path d="M78.5297 353.796C78.6793 353.85 78.5297 354.576 78.1986 355.409C77.8675 356.242 77.4936 356.872 77.3548 356.819C77.2159 356.765 77.3548 356.039 77.6859 355.206C78.017 354.373 78.3909 353.743 78.5297 353.796Z" fill="#455A64"/>
<path d="M80.9007 347.74C81.0396 347.804 80.9007 348.52 80.5696 349.364C80.2385 350.207 79.854 350.827 79.7151 350.774C79.5763 350.72 79.7151 349.994 80.0462 349.161C80.3774 348.328 80.7512 347.687 80.9007 347.74Z" fill="#455A64"/>
<path d="M83.3148 341.696C83.4643 341.76 83.3148 342.475 82.9837 343.308C82.6525 344.141 82.2787 344.782 82.1292 344.718C81.9796 344.654 82.1292 343.938 82.471 343.105C82.8128 342.272 83.1225 341.642 83.3148 341.696Z" fill="#455A64"/>
<path d="M85.7394 335.693C85.8783 335.757 85.7394 336.473 85.3656 337.295C84.9917 338.118 84.6179 338.748 84.479 338.684C84.3402 338.62 84.479 337.915 84.8529 337.082C85.2267 336.249 85.6006 335.64 85.7394 335.693Z" fill="#455A64"/>
<path d="M88.527 329.83C88.6659 329.905 88.4523 330.61 88.0571 331.411C87.6619 332.212 87.2239 332.799 87.0851 332.735C86.9462 332.671 87.1491 331.966 87.555 331.165C87.9609 330.364 88.3882 329.755 88.527 329.83Z" fill="#455A64"/>
<path d="M91.9774 324.34C92.0949 324.437 91.7851 325.099 91.2831 325.836C90.7811 326.573 90.215 327.085 90.1295 327.01C90.0441 326.936 90.3111 326.263 90.8238 325.515C91.3365 324.768 91.8599 324.244 91.9774 324.34Z" fill="#455A64"/>
<path d="M95.6945 321.329C95.6945 321.478 95.4488 321.692 95.0856 321.884C94.7225 322.076 94.37 322.183 94.2739 322.066C94.1777 321.948 94.4127 321.617 94.8293 321.393C95.2459 321.168 95.6518 321.179 95.6945 321.329Z" fill="#455A64"/>
<path d="M85.9317 229.833L47.7244 228.765H8.76951C6.26886 228.816 3.8904 229.856 2.15618 231.658C0.421961 233.46 -0.526324 235.877 -0.480544 238.377V264.864C-0.611323 283.165 3.75333 301.22 12.2303 317.441C19.4295 330.951 30.5702 344.857 47.7244 353.689C63.5008 347.772 75.2717 331.977 82.4709 318.445C90.9479 302.224 95.3125 284.169 95.1817 265.867V239.434C95.2275 236.935 94.2789 234.52 92.5443 232.719C90.8098 230.919 88.4314 229.881 85.9317 229.833Z" fill="#DDF344"/>
<path d="M46.4107 291.66L32.2686 279.965L37.0324 274.198L45.5562 281.247L59.4953 265.259L65.1351 270.161L46.4107 291.66Z" fill="white"/>
<g opacity="0.3">
<path d="M85.9317 229.833L47.7244 228.765H8.76951C6.26886 228.816 3.8904 229.856 2.15618 231.658C0.421961 233.46 -0.526324 235.877 -0.480544 238.377V264.864C-0.611323 283.165 3.75333 301.22 12.2303 317.441C19.4295 330.951 30.5702 344.857 47.7244 353.689C63.5008 347.772 75.2717 331.977 82.4709 318.445C90.9479 302.224 95.3125 284.169 95.1817 265.867V239.434C95.2275 236.935 94.2789 234.52 92.5443 232.719C90.8098 230.919 88.4314 229.881 85.9317 229.833ZM84.6713 267.811C84.7744 282.289 81.3192 296.57 74.6094 309.399C68.9163 320.079 60.5421 331.09 46.9661 338.086C33.4007 331.09 25.3363 320.09 19.6431 309.399C12.949 296.565 9.50513 282.285 9.61334 267.811V246.91C9.57895 244.935 10.3282 243.026 11.6972 241.601C13.0662 240.176 14.9438 239.351 16.9194 239.306H77.3759C79.3534 239.348 81.2337 240.172 82.605 241.597C83.9763 243.023 84.727 244.933 84.6926 246.91L84.6713 267.811Z" fill="black"/>
</g>
</g>
<defs>
<clipPath id="clip0_0_902">
<rect width="533" height="534" fill="white"/>
</clipPath>
</defs>
</svg>
