<svg width="533" height="600" viewBox="0 0 533 600" fill="none" xmlns="http://www.w3.org/2000/svg">
<g clip-path="url(#clip0_29_7449)">
<path d="M182.865 220.08C184.977 234.38 182.799 248.986 176.604 262.048C170.41 275.11 160.478 286.041 148.066 293.458C135.654 300.876 121.32 304.446 106.878 303.716C92.4353 302.987 78.534 297.991 66.9331 289.361C55.3323 280.731 46.5534 268.854 41.7075 255.235C36.8617 241.615 36.1667 226.865 39.7105 212.85C43.2543 198.836 50.8776 186.187 61.6156 176.505C72.3536 166.823 85.7237 160.543 100.034 158.46C119.192 155.652 138.682 160.566 154.215 172.122C169.749 183.678 180.055 200.929 182.865 220.08Z" fill="#F5F5F5"/>
<path d="M165.662 222.588C167.269 233.485 165.607 244.614 160.884 254.566C156.162 264.518 148.593 272.846 139.134 278.495C129.675 284.145 118.752 286.863 107.747 286.305C96.742 285.747 86.1503 281.938 77.312 275.36C68.4737 268.782 61.7862 259.731 58.0959 249.352C54.4056 238.974 53.8783 227.734 56.5808 217.055C59.2833 206.377 65.0941 196.74 73.2777 189.364C81.4614 181.988 91.6501 177.205 102.554 175.62C109.783 174.561 117.15 174.936 124.234 176.724C131.318 178.511 137.98 181.676 143.84 186.037C149.701 190.399 154.644 195.871 158.388 202.143C162.132 208.414 164.604 215.362 165.662 222.588Z" fill="#EBEBEB"/>
<path d="M165.386 220.86C165.062 220.86 164.474 218.532 162.985 214.452C160.888 208.706 157.916 203.319 154.174 198.48C151.591 195.187 148.656 192.185 145.423 189.528C141.704 186.512 137.613 183.987 133.25 182.016C130.9 180.94 128.472 180.041 125.987 179.328C123.407 178.564 120.769 178.006 118.1 177.66C115.344 177.278 112.563 177.113 109.781 177.168C106.912 177.237 104.051 177.514 101.222 177.996C98.4014 178.519 95.6214 179.241 92.9028 180.156C90.2649 181.067 87.7005 182.178 85.2319 183.48C82.8483 184.735 80.5647 186.171 78.4014 187.776C76.3164 189.297 74.35 190.973 72.5192 192.792C69.1023 196.131 66.1325 199.898 63.6839 204C61.5592 207.605 59.8363 211.432 58.5459 215.412C56.7003 221.233 55.765 227.305 55.7729 233.412C55.7729 237.768 56.049 240.204 55.7729 240.264C55.4968 240.324 54.6925 237.96 54.1763 233.496C53.5039 227.139 54.0251 220.713 55.7129 214.548C56.8716 210.262 58.5359 206.129 60.6707 202.236C63.1442 197.751 66.2132 193.622 69.7941 189.96C71.7213 187.965 73.8047 186.127 76.0245 184.464C78.3213 182.697 80.7582 181.12 83.3112 179.748C85.9616 178.334 88.7191 177.13 91.5583 176.148C94.4822 175.122 97.48 174.319 100.526 173.748C103.577 173.226 106.662 172.933 109.757 172.872C112.761 172.83 115.764 173.027 118.737 173.46C121.608 173.876 124.442 174.518 127.212 175.38C129.868 176.177 132.458 177.184 134.955 178.392C139.58 180.601 143.885 183.427 147.751 186.792C151.096 189.712 154.082 193.02 156.647 196.644C160.354 201.855 163.057 207.711 164.618 213.912C165.662 218.328 165.662 220.8 165.386 220.86Z" fill="#E0E0E0"/>
<path d="M121.546 262.548L123.082 272.148L114.535 273.516L113.034 264.204C104.487 265.044 95.9399 263.688 90.6459 260.772L93.635 249.6C99.0965 252.233 105.147 253.407 111.198 253.008L108.905 238.728C99.0491 237.948 87.9329 236.472 85.9762 224.244C84.5236 215.184 89.8656 206.352 103.131 202.644L101.606 193.152L110.165 191.784L111.654 201.096C117.824 200.453 124.06 201.276 129.853 203.496L127.26 214.704C122.868 212.992 118.178 212.176 113.466 212.304L115.795 226.836C125.639 227.544 136.587 229.032 138.52 241.092C139.984 250.044 134.714 258.78 121.546 262.548ZM106.948 226.128L105.003 213.984C100.634 215.736 99.2291 218.508 99.6853 221.328C100.141 224.148 102.987 225.6 106.948 226.128ZM124.955 244.38C124.475 241.38 121.738 240.156 117.848 239.46L119.745 251.268C123.874 249.6 125.399 247.116 124.955 244.38Z" fill="#E0E0E0"/>
<path d="M448.236 154.404C453.705 163.375 456.388 173.766 455.947 184.262C455.505 194.757 451.958 204.887 445.755 213.366C439.552 221.846 430.972 228.296 421.1 231.899C411.228 235.502 400.509 236.096 390.299 233.606C380.09 231.117 370.848 225.655 363.745 217.913C356.642 210.17 351.997 200.496 350.397 190.113C348.797 179.73 350.315 169.106 354.758 159.586C359.201 150.066 366.37 142.078 375.357 136.632C381.309 133.014 387.916 130.604 394.8 129.539C401.685 128.475 408.711 128.776 415.479 130.426C422.247 132.077 428.623 135.044 434.244 139.158C439.864 143.272 444.619 148.453 448.236 154.404Z" fill="#F5F5F5"/>
<path d="M437.432 160.944C441.602 167.781 443.65 175.701 443.315 183.701C442.98 191.702 440.279 199.423 435.552 205.888C430.825 212.353 424.285 217.27 416.761 220.018C409.237 222.765 401.066 223.22 393.284 221.323C385.501 219.427 378.457 215.264 373.042 209.364C367.627 203.463 364.085 196.088 362.865 188.174C361.644 180.26 362.8 172.162 366.187 164.905C369.573 157.649 375.037 151.559 381.887 147.408C391.05 141.845 402.047 140.145 412.462 142.683C422.878 145.222 431.859 151.79 437.432 160.944Z" fill="#EBEBEB"/>
<path d="M436.772 159.864C436.568 160.008 435.499 158.58 433.326 156.264C430.3 153.011 426.784 150.25 422.907 148.08C420.243 146.602 417.425 145.423 414.503 144.564C411.16 143.6 407.706 143.068 404.228 142.98C402.351 142.932 400.473 143.02 398.609 143.244C396.667 143.466 394.744 143.839 392.859 144.36C390.904 144.883 388.993 145.562 387.145 146.388C383.332 148.095 379.808 150.387 376.701 153.18C375.196 154.533 373.8 156.001 372.524 157.572C370.092 160.54 368.113 163.852 366.653 167.4C365.313 170.611 364.396 173.984 363.928 177.432C363.529 180.443 363.461 183.49 363.724 186.516C364.138 190.938 365.236 195.27 366.978 199.356C368.178 202.272 369.09 203.832 368.886 203.964C368.682 204.096 367.506 202.764 365.897 199.896C363.647 195.831 362.174 191.384 361.552 186.78C361.112 183.598 361.051 180.376 361.371 177.18C361.971 171.46 363.753 165.927 366.605 160.932C367.668 159.1 368.872 157.355 370.207 155.712C371.564 153.991 373.062 152.386 374.684 150.912C378.008 147.867 381.813 145.394 385.945 143.592C387.944 142.709 390.011 141.991 392.127 141.444C394.162 140.903 396.238 140.526 398.333 140.316C400.327 140.102 402.334 140.046 404.336 140.148C411.302 140.417 418.081 142.484 424.011 146.148C427.968 148.581 431.437 151.731 434.239 155.436C436.196 158.112 436.964 159.768 436.772 159.864Z" fill="#E0E0E0"/>
<path d="M419.257 200.184L422.991 206.184L417.661 209.52L414.059 203.712C408.573 206.688 402.475 208.212 398.093 207.756L396.953 199.356C401.357 199.576 405.743 198.646 409.678 196.656L404.096 187.752C397.277 190.02 389.426 192.192 384.648 184.56C381.107 178.908 382.175 171.48 390.002 165.252L386.293 159.324L391.635 155.988L395.236 161.808C399.202 159.632 403.631 158.435 408.153 158.316L409.594 166.548C406.171 166.662 402.805 167.453 399.69 168.876L405.368 177.948C412.163 175.62 419.906 173.532 424.575 181.044C428.045 186.588 427 193.932 419.257 200.184ZM399.15 180L394.408 172.428C392.007 174.828 391.827 177.084 392.931 178.848C394.036 180.612 396.341 180.672 399.15 180ZM416.376 187.104C415.176 185.244 413.027 185.196 410.23 185.832L414.84 193.188C417.145 190.884 417.445 188.772 416.376 187.056V187.104Z" fill="#E0E0E0"/>
<path d="M376.725 105.252C372.155 108.149 366.828 109.625 361.418 109.494C356.008 109.362 350.759 107.63 346.335 104.515C341.911 101.4 338.51 97.0427 336.564 91.9951C334.619 86.9476 334.215 81.4364 335.404 76.1592C336.593 70.882 339.321 66.076 343.244 62.3497C347.167 58.6235 352.107 56.1443 357.44 55.2262C362.773 54.3081 368.259 54.9922 373.202 57.1921C378.146 59.3919 382.326 63.0085 385.212 67.584C387.13 70.6143 388.431 73.9924 389.042 77.5255C389.653 81.0586 389.562 84.6774 388.774 88.1753C387.986 91.6732 386.516 94.9816 384.449 97.9117C382.382 100.842 379.757 103.336 376.725 105.252Z" fill="#F5F5F5"/>
<path d="M373.256 99.756C369.773 101.962 365.714 103.085 361.592 102.984C357.47 102.883 353.47 101.562 350.1 99.1877C346.729 96.8137 344.139 93.4935 342.656 89.6473C341.174 85.8012 340.867 81.6019 341.773 77.5809C342.679 73.5599 344.757 69.898 347.746 67.0585C350.735 64.219 354.499 62.3295 358.562 61.6293C362.626 60.929 366.806 61.4494 370.573 63.1246C374.34 64.7998 377.526 67.5544 379.726 71.04C381.189 73.35 382.181 75.9253 382.647 78.6189C383.113 81.3124 383.044 84.0714 382.443 86.7381C381.842 89.4049 380.722 91.9271 379.145 94.1608C377.569 96.3945 375.568 98.2957 373.256 99.756Z" fill="#EBEBEB"/>
<path d="M373.797 99.4081C373.737 99.3001 374.457 98.7361 375.633 97.5961C377.279 96.0079 378.668 94.1741 379.751 92.1601C380.486 90.7762 381.066 89.3154 381.479 87.8041C381.948 86.0789 382.191 84.2999 382.2 82.5121C382.217 81.5449 382.157 80.5778 382.02 79.6201C381.887 78.6218 381.678 77.6349 381.395 76.6681C381.102 75.6694 380.733 74.6945 380.291 73.7521C379.828 72.7806 379.299 71.8424 378.706 70.9441C378.1 70.0494 377.43 69.1992 376.702 68.4001C375.991 67.6402 375.224 66.9343 374.409 66.2881C373.617 65.664 372.778 65.1023 371.9 64.6081C371.064 64.1414 370.193 63.7402 369.295 63.4081C367.623 62.7592 365.877 62.3199 364.097 62.1001C362.541 61.9262 360.971 61.9262 359.415 62.1001C357.139 62.3497 354.915 62.9529 352.825 63.8881C352.063 64.3134 351.258 64.6553 350.424 64.9081C350.997 64.2434 351.705 63.7077 352.501 63.3361C354.57 62.1292 356.845 61.3155 359.211 60.9361C360.855 60.6833 362.524 60.6269 364.181 60.7681C366.087 60.9153 367.965 61.3189 369.763 61.9681C370.74 62.3255 371.687 62.7588 372.596 63.2641C373.547 63.7826 374.454 64.3765 375.309 65.0401C376.202 65.7274 377.04 66.4815 377.818 67.2961C378.6 68.1495 379.322 69.0556 379.979 70.0081C380.646 70.985 381.236 72.0121 381.744 73.0801C382.229 74.102 382.63 75.1615 382.944 76.2481C383.242 77.2891 383.455 78.3526 383.58 79.4281C383.705 80.4592 383.753 81.498 383.724 82.5361C383.63 86.1275 382.618 89.6349 380.783 92.7241C379.565 94.7807 377.973 96.5917 376.089 98.0641C375.431 98.6724 374.649 99.1309 373.797 99.4081Z" fill="#E0E0E0"/>
<path d="M352.933 90.756L349.884 92.736L348.131 90L351.084 88.08C349.589 85.6192 348.82 82.7866 348.863 79.908L353.149 79.236C353.079 81.5048 353.596 83.7532 354.649 85.764L359.127 82.8C357.927 79.308 356.726 75.288 360.592 72.756C363.473 70.884 367.302 71.364 370.591 75.336L373.604 73.38L375.369 76.092L372.416 78C373.568 80.014 374.231 82.2709 374.349 84.588L370.123 85.404C370.02 83.6677 369.579 81.9681 368.827 80.4L364.205 83.412C365.465 86.88 366.606 90.852 362.788 93.336C359.955 95.148 356.174 94.68 352.933 90.756ZM363.16 80.22L367.026 77.712C365.765 76.512 364.625 76.428 363.701 77.016C362.776 77.604 362.716 78.78 363.112 80.22H363.16ZM359.655 89.16C360.616 88.536 360.616 87.42 360.267 85.98L356.51 88.38C357.65 89.58 358.743 89.724 359.607 89.16H359.655Z" fill="#E0E0E0"/>
<path d="M533.24 540.528C533.24 540.708 413.807 540.84 266.512 540.84C119.217 540.84 -0.240234 540.708 -0.240234 540.528C-0.240234 540.348 119.169 540.216 266.512 540.216C413.855 540.216 533.24 540.36 533.24 540.528Z" fill="#263238"/>
<path d="M71.1388 503.688C72.4953 498.444 69.05 493.164 65.1366 489.36C61.2231 485.556 56.6614 482.16 54.6566 477.108C51.4034 468.948 55.7731 458.388 50.227 451.584C46.9618 447.576 41.1036 446.232 38.2225 441.984C36.6979 439.74 36.2057 436.98 35.6055 434.34C32.5403 420.777 25.8811 408.289 16.3263 398.184C15.6887 410.254 18.3091 422.274 23.9131 432.984C26.1579 437.256 28.919 441.384 29.6633 446.184C30.8637 453.936 26.5421 461.928 28.4628 469.536C30.6356 478.248 40.4673 484.08 40.8875 493.044C41.2836 500.628 34.6691 507.276 35.1613 514.848C35.5639 518.067 36.7195 521.147 38.5346 523.836C44.4168 533.628 53 540.336 66.0249 540.12L82.0149 540.672L71.1388 503.688Z" fill="#4949EB"/>
<g opacity="0.3">
<path d="M71.1388 503.688C72.4953 498.444 69.05 493.164 65.1366 489.36C61.2231 485.556 56.6614 482.16 54.6566 477.108C51.4034 468.948 55.7731 458.388 50.227 451.584C46.9618 447.576 41.1036 446.232 38.2225 441.984C36.6979 439.74 36.2057 436.98 35.6055 434.34C32.5403 420.777 25.8811 408.289 16.3263 398.184C15.6887 410.254 18.3091 422.274 23.9131 432.984C26.1579 437.256 28.919 441.384 29.6633 446.184C30.8637 453.936 26.5421 461.928 28.4628 469.536C30.6356 478.248 40.4673 484.08 40.8875 493.044C41.2836 500.628 34.6691 507.276 35.1613 514.848C35.5639 518.067 36.7195 521.147 38.5346 523.836C44.4168 533.628 53 540.336 66.0249 540.12L82.0149 540.672L71.1388 503.688Z" fill="black"/>
</g>
<path d="M85.232 540.564C86.6942 540.792 88.1851 540.764 89.6376 540.48C91.4041 540.211 93.1407 539.773 94.8236 539.172C97.1446 538.364 99.315 537.176 101.246 535.656C102.405 534.721 103.312 533.513 103.887 532.14C104.373 530.586 104.624 528.968 104.631 527.34C104.667 525.61 104.795 523.884 105.015 522.168C105.322 520.346 105.983 518.601 106.96 517.032C108.845 513.72 111.978 510.588 112.962 506.088C113.947 501.588 113.274 496.884 112.53 492.084C111.786 487.284 111.066 482.064 112.902 477.072C114.739 472.08 118.124 467.556 119.877 461.928C121.63 456.3 120.813 450.108 121.173 444.072C121.292 441.009 122.001 437.998 123.262 435.204C124.559 432.372 126.347 429.708 127.752 426.72C130.585 420.72 131.089 413.88 131.869 407.196C132.246 403.82 132.646 400.416 133.07 396.984C133.312 393.524 133.907 390.098 134.847 386.76C135.926 383.391 137.205 380.089 138.676 376.872C139.432 375.201 140.05 373.471 140.525 371.7C140.796 369.879 140.968 368.044 141.041 366.204C141.218 362.511 141.078 358.809 140.621 355.14C140.189 351.456 139.516 347.796 139.12 344.1L139.048 343.464L138.964 342.732L138.316 343.056C134.927 344.782 131.981 347.267 129.709 350.316C127.491 353.297 125.709 356.578 124.415 360.06C121.75 366.924 120.813 374.124 119.445 380.988C118.076 387.852 116.444 394.632 112.842 400.344C111.102 403.188 108.977 405.78 107.116 408.564C105.138 411.27 103.785 414.381 103.155 417.672C102.206 424.428 105.928 430.368 105.159 436.356C104.791 439.297 103.797 442.124 102.242 444.648C100.79 447.204 99.0852 449.568 97.4405 451.956C95.7874 454.277 94.3489 456.743 93.1429 459.324C92.0174 461.858 91.3547 464.573 91.1862 467.34C90.79 472.728 91.5583 477.84 91.1862 482.664C90.7448 487.259 89.4071 491.723 87.2487 495.804C85.304 499.728 83.1552 503.292 81.3545 506.736C80.4542 508.464 79.6138 510.144 78.9536 511.824C78.3144 513.46 77.8438 515.157 77.5491 516.888C77.0775 519.907 77.0411 522.978 77.441 526.008C77.8671 530.222 79.4545 534.235 82.0268 537.6C82.416 538.102 82.8456 538.572 83.3112 539.004C83.6328 539.334 83.9867 539.632 84.3676 539.892C84.9559 540.336 85.28 540.528 85.28 540.528C84.1333 539.63 83.0941 538.604 82.1828 537.468C79.7149 534.085 78.2128 530.094 77.8372 525.924C77.4842 522.929 77.5529 519.9 78.0413 516.924C78.3491 515.237 78.8236 513.585 79.4578 511.992C80.142 510.348 80.9824 508.668 81.8587 506.964C83.6834 503.556 85.8562 500.016 87.8609 496.056C90.0925 491.914 91.4798 487.37 91.9425 482.688C92.3626 477.756 91.6304 472.632 92.0385 467.364C92.21 464.69 92.8606 462.068 93.9592 459.624C95.1507 457.098 96.5733 454.688 98.2088 452.424C99.8174 450.024 101.546 447.684 103.011 445.068C104.636 442.444 105.68 439.502 106.072 436.44C106.84 430.056 103.143 424.08 104.103 417.804C104.716 414.652 106.024 411.675 107.932 409.092C109.757 406.356 111.894 403.764 113.695 400.848C117.296 394.968 119.085 388.092 120.417 381.192C121.75 374.292 122.734 367.164 125.363 360.432C126.62 357.043 128.355 353.851 130.513 350.952C132.687 348.026 135.51 345.644 138.76 343.992L138.016 343.584L138.088 344.232C138.496 347.964 139.156 351.636 139.588 355.272C140.039 358.885 140.18 362.531 140.009 366.168C139.944 367.956 139.78 369.739 139.516 371.508C139.06 373.215 138.462 374.881 137.728 376.488C136.25 379.742 134.963 383.08 133.874 386.484C132.913 389.876 132.31 393.359 132.074 396.876C131.689 400.324 131.313 403.732 130.945 407.1C130.177 413.808 129.673 420.528 126.948 426.3C125.591 429.192 123.802 431.868 122.47 434.796C121.168 437.693 120.439 440.814 120.321 443.988C119.973 450.156 120.777 456.192 119.121 461.652C117.464 467.112 113.983 471.624 112.218 476.784C110.453 481.944 111.114 487.392 111.87 492.168C112.626 496.944 113.419 501.66 112.386 505.92C111.354 510.18 108.425 513.312 106.504 516.72C105.499 518.353 104.826 520.167 104.523 522.06C104.309 523.796 104.197 525.543 104.187 527.292C104.185 528.865 103.955 530.429 103.503 531.936C102.968 533.246 102.114 534.401 101.018 535.296C99.1386 536.807 97.0263 538.002 94.7635 538.836C93.1022 539.456 91.3859 539.918 89.6376 540.216C88.5637 540.411 87.4757 540.52 86.3844 540.54C85.6641 540.552 85.232 540.564 85.232 540.564Z" fill="#263238"/>
<path d="M135.795 352.284C135.726 352.442 135.673 352.607 135.639 352.776C135.543 353.16 135.435 353.628 135.291 354.216C134.979 355.476 134.595 357.372 133.995 359.748C133.394 362.124 131.918 364.788 130.681 368.088C129.221 371.801 127.951 375.586 126.876 379.428C125.675 383.688 124.571 388.428 123.443 393.492C122.314 398.556 121.114 403.98 118.329 409.092C117.02 411.684 115.544 414.312 114.367 417.192C113.216 420.138 112.446 423.219 112.074 426.36C111.267 432.861 110.113 439.314 108.617 445.692C105.412 458.796 102.363 471.264 99.5776 482.628L92.0028 512.748C89.902 521.268 88.1854 528.192 86.9849 533.064C86.4327 535.464 85.9885 537.264 85.6644 538.608C85.5444 539.196 85.4363 539.676 85.3523 540.06C85.3045 540.22 85.2803 540.386 85.2803 540.552C85.3565 540.403 85.4168 540.246 85.4603 540.084L85.8685 538.656C86.2406 537.324 86.7328 535.488 87.3691 533.172C88.6535 528.3 90.4782 521.412 92.7111 512.916L100.502 482.856C103.311 471.492 106.384 459.024 109.625 445.92C111.117 439.514 112.267 433.033 113.071 426.504C113.423 423.458 114.153 420.467 115.244 417.6C116.372 414.804 117.824 412.188 119.133 409.56C121.954 404.352 123.118 398.76 124.247 393.72C125.375 388.68 126.372 383.916 127.536 379.656C128.701 375.396 129.937 371.616 131.137 368.34C132.338 365.064 133.718 362.34 134.307 359.88C134.895 357.42 135.171 355.572 135.423 354.288C135.519 353.7 135.603 353.22 135.675 352.836C135.737 352.658 135.777 352.472 135.795 352.284Z" fill="#263238"/>
<path d="M88.1012 540.672C98.5452 534.468 101.546 516.108 97.1886 504.768C92.831 493.428 85.1841 483.072 83.9837 470.988C83.0714 461.7 86.1205 452.16 83.9837 443.076C81.0786 430.8 69.1101 421.332 69.2542 408.732C69.3262 401.664 73.3477 395.016 73.0356 387.948C72.6394 379.296 65.9889 372.42 61.8714 364.788C55.557 353.112 55.1489 339.3 52.9881 326.208C50.8273 313.116 45.7854 299.088 34.237 292.608C32.5204 303.72 29.5913 311.34 30.5156 326.4C30.8397 331.812 37.1301 342.156 37.9824 354C38.4986 361.092 38.8468 368.184 39.2789 375.276C39.6991 382.176 40.1432 389.196 42.6282 395.676C44.5249 400.632 47.562 405.12 48.9786 410.232C51.6196 419.832 48.1382 430.248 50.275 439.98C52.0877 448.224 57.8019 455.328 58.9663 463.692C60.6109 475.44 52.9641 487.692 56.8895 498.852C58.8223 504.42 63.408 508.884 64.7045 514.62C65.7128 519.084 64.6084 523.8 65.5208 528.276C66.9973 535.476 80.7545 541.092 88.1012 540.636" fill="#4949EB"/>
<path d="M37.1061 303.684C37.0873 303.895 37.0873 304.108 37.1061 304.32C37.1061 304.788 37.2502 305.388 37.3462 306.144C37.5863 307.752 37.8504 310.104 38.3906 313.152C38.9308 316.2 40.5634 319.668 41.8239 323.832C43.0844 327.996 44.4769 332.772 45.6533 338.124C46.8298 343.476 47.8381 349.416 48.8825 355.788C49.9269 362.16 51.0794 369.12 54.2365 375.768C55.7011 379.104 57.3457 382.44 58.5822 386.004C59.7874 389.656 60.5255 393.446 60.779 397.284C61.3656 405.437 62.3915 413.553 63.8522 421.596C67.0454 438.072 70.0945 453.756 72.8675 468.048C75.6406 482.34 78.4256 495.084 80.6345 505.872C82.8433 516.66 84.692 525.276 85.9645 531.36C86.6007 534.312 87.1049 536.628 87.465 538.284C87.6331 539.028 87.7771 539.616 87.8852 540.072C87.9199 540.277 87.9762 540.478 88.0532 540.672C88.061 540.461 88.0367 540.251 87.9812 540.048C87.8972 539.592 87.8011 538.992 87.6691 538.236C87.357 536.58 86.9128 534.252 86.3606 531.276C85.1602 525.18 83.4555 516.468 81.3547 505.728C79.2539 494.988 76.637 482.1 73.7919 467.856L64.8605 421.428C63.4209 413.411 62.4111 405.324 61.8354 397.2C61.5642 393.283 60.7978 389.416 59.5545 385.692C58.2821 382.092 56.6254 378.708 55.1489 375.396C52.0037 368.856 50.8993 362.016 49.7709 355.656C48.6424 349.296 47.6461 343.344 46.4096 337.98C45.1732 332.616 43.8046 327.816 42.4121 323.664C41.0196 319.512 39.459 316.068 38.8108 313.08C38.1625 310.092 37.8744 307.704 37.6103 306.12C37.4663 305.376 37.3582 304.776 37.2742 304.308C37.2466 304.093 37.19 303.883 37.1061 303.684Z" fill="#263238"/>
<path d="M492.185 469.2C493.807 469.973 495.257 471.066 496.447 472.412C497.637 473.759 498.543 475.331 499.111 477.036C500.222 480.46 500.538 484.092 500.036 487.656C499.255 494.556 495.33 501.504 491.116 507.012C485.306 501.948 483.913 493.116 483.577 488.592C482.953 481.392 486.158 468.132 492.185 469.2Z" fill="#4949EB"/>
<path d="M497.851 518.4C497.463 516.435 497.599 514.402 498.246 512.507C498.893 510.611 500.028 508.919 501.536 507.6C503.073 506.307 504.851 505.333 506.767 504.734C508.684 504.134 510.701 503.921 512.7 504.108C513.627 504.098 514.545 504.289 515.391 504.668C516.236 505.047 516.99 505.605 517.598 506.304C518.053 507.045 518.301 507.895 518.316 508.765C518.331 509.634 518.112 510.492 517.682 511.248C516.801 512.75 515.538 513.993 514.021 514.848C508.991 518.004 503.541 520.14 497.851 518.448" fill="#4949EB"/>
<path d="M490.408 539.496C490.436 539.019 490.504 538.545 490.612 538.08C490.792 537.084 491.032 535.8 491.321 534.252C491.963 529.981 493.297 525.842 495.27 522C497.313 518.166 500.342 514.948 504.045 512.676C505.176 512.002 506.386 511.47 507.647 511.092C507.986 510.984 508.33 510.896 508.679 510.828C508.919 510.828 509.051 510.756 509.051 510.828C506.179 511.755 503.52 513.246 501.232 515.214C498.944 517.182 497.072 519.587 495.726 522.288C493.794 526.066 492.435 530.11 491.693 534.288C491.333 535.896 491.044 537.192 490.828 538.08C490.738 538.565 490.597 539.04 490.408 539.496Z" fill="#263238"/>
<path d="M490.624 479.508C490.663 479.714 490.687 479.922 490.696 480.132C490.696 480.588 490.756 481.176 490.804 481.908C490.888 483.444 490.972 485.676 491.068 488.448C491.237 493.968 491.381 501.648 491.345 510.048C491.309 518.448 491.105 526.116 490.876 531.648C490.768 534.408 490.648 536.64 490.552 538.188C490.552 538.908 490.468 539.496 490.432 539.964C490.43 540.17 490.406 540.375 490.36 540.576C490.342 540.368 490.342 540.159 490.36 539.952C490.36 539.496 490.36 538.908 490.36 538.176C490.36 536.568 490.456 534.348 490.516 531.636C490.66 526.116 490.804 518.436 490.84 510.036C490.876 501.636 490.84 493.98 490.708 488.436C490.708 485.724 490.636 483.504 490.6 481.896V480.12C490.591 479.916 490.599 479.711 490.624 479.508Z" fill="#263238"/>
<path d="M487.803 522.552C487.103 518.375 485.417 514.425 482.885 511.029C480.352 507.634 477.047 504.891 473.242 503.028C471.309 502.092 468.764 501.492 467.179 502.932C465.595 504.372 465.979 506.976 466.711 508.932C468.421 513.092 471.323 516.653 475.052 519.169C478.782 521.684 483.172 523.041 487.671 523.068" fill="#4949EB"/>
<path d="M474.178 509.568C474.595 509.703 474.998 509.879 475.379 510.096C475.857 510.317 476.322 510.566 476.771 510.84C477.382 511.182 477.975 511.554 478.548 511.956C479.25 512.428 479.928 512.937 480.577 513.48C481.33 514.094 482.051 514.747 482.737 515.436C484.295 517.033 485.668 518.8 486.831 520.704C487.962 522.63 488.868 524.679 489.532 526.812C489.811 527.743 490.04 528.688 490.216 529.644C490.376 530.477 490.493 531.318 490.564 532.164C490.635 532.858 490.667 533.555 490.66 534.252C490.693 534.775 490.693 535.3 490.66 535.824C490.656 536.275 490.608 536.726 490.516 537.168C490.396 537.168 490.6 535.248 490.264 532.2C490.171 531.369 490.035 530.544 489.856 529.728C489.669 528.791 489.429 527.865 489.136 526.956C488.465 524.862 487.563 522.85 486.447 520.956C485.306 519.081 483.966 517.334 482.449 515.748C481.783 515.061 481.082 514.408 480.349 513.792C479.726 513.236 479.072 512.715 478.392 512.232C475.883 510.456 474.178 509.664 474.178 509.568Z" fill="#263238"/>
<path d="M407.145 277.452C407.145 277.452 351.096 237.744 344.001 233.844C337.242 230.124 315.79 227.424 313.87 226.956L275.455 218.556L216.777 220.308L199.971 230.424L157.379 250.08C145.771 255.425 136.621 264.97 131.773 276.792L104.883 342.444L171.664 362.172L173.741 431.424L158.003 540.528H353.292L343.461 331.428L363.796 335.904L407.145 277.452Z" fill="#263238"/>
<path d="M172.865 334.284C172.865 334.284 172.156 334.8 170.8 335.592C168.888 336.752 166.767 337.527 164.557 337.872C161.248 338.104 157.928 337.621 154.822 336.456C150.992 335.181 147.28 333.575 143.73 331.656C139.924 329.676 136.359 327.672 133.022 326.064C130.078 324.594 127.019 323.37 123.874 322.404C121.75 321.765 119.572 321.323 117.368 321.084C116.587 321 115.987 320.964 115.567 320.952H114.943C115.744 320.923 116.546 320.951 117.344 321.036C119.559 321.216 121.751 321.618 123.886 322.236C127.048 323.172 130.125 324.376 133.082 325.836C136.443 327.444 140.008 329.436 143.814 331.428C147.354 333.334 151.048 334.94 154.858 336.228C157.921 337.383 161.194 337.878 164.461 337.68C166.652 337.359 168.759 336.617 170.668 335.496C171.352 335.112 171.868 334.8 172.228 334.584C172.589 334.368 172.865 334.284 172.865 334.284Z" fill="white"/>
<path d="M170.008 301.932H169.564L168.291 301.872C167.187 301.812 165.59 301.692 163.621 301.5C153.366 300.468 143.283 298.145 133.61 294.588C131.749 293.904 130.261 293.316 129.24 292.884L128.04 292.38L127.632 292.188L128.064 292.332L129.264 292.788C130.297 293.196 131.797 293.76 133.658 294.42C143.357 297.888 153.43 300.204 163.669 301.32C165.626 301.536 167.271 301.692 168.315 301.776L169.588 301.884L170.008 301.932Z" fill="white"/>
<path d="M211.987 233.844C211.987 233.844 211.483 234.66 210.427 236.028C208.92 237.949 207.192 239.685 205.277 241.2C202.409 243.42 199.286 245.29 195.973 246.768C191.92 248.58 187.744 250.104 183.477 251.328C178.951 252.672 174.629 253.86 170.752 255.132C167.304 256.223 163.942 257.566 160.692 259.152C158.502 260.218 156.406 261.466 154.426 262.884C153.705 263.364 153.225 263.808 152.841 264.084C152.457 264.36 152.277 264.492 152.277 264.492C152.277 264.492 152.985 263.844 154.366 262.8C156.334 261.353 158.423 260.077 160.608 258.984C163.86 257.381 167.227 256.021 170.68 254.916C174.557 253.62 178.891 252.432 183.405 251.088C187.662 249.87 191.829 248.358 195.877 246.564C199.176 245.096 202.294 243.252 205.169 241.068C207.105 239.585 208.865 237.886 210.415 236.004C210.979 235.356 211.327 234.804 211.615 234.432C211.903 234.06 211.987 233.844 211.987 233.844Z" fill="white"/>
<path d="M332.092 242.784C332.092 242.784 331.912 242.7 331.576 242.508C331.24 242.316 330.784 242.028 330.135 241.704C328.349 240.751 326.485 239.948 324.565 239.304C321.71 238.346 318.789 237.596 315.826 237.06C312.489 236.424 308.779 235.932 304.89 235.38L284.986 232.56L278.984 231.672L277.34 231.42L276.775 231.312L277.352 231.372L278.996 231.576L284.998 232.38L304.914 235.128C308.803 235.668 312.513 236.172 315.862 236.82C318.829 237.365 321.751 238.135 324.601 239.124C326.528 239.789 328.392 240.624 330.171 241.62C331.444 242.328 332.092 242.784 332.092 242.784Z" fill="white"/>
<path d="M304.914 256.032C304.914 256.032 304.47 256.248 303.618 256.62C302.765 256.992 301.493 257.532 299.848 258.192C296.547 259.5 291.733 261.312 285.635 263.088C278.499 265.202 271.222 266.806 263.859 267.888C255.54 269.16 246.26 269.16 236.596 268.836C226.933 268.512 217.677 268.104 209.298 268.632C201.876 268.991 194.533 270.331 187.462 272.616C182.698 274.182 178.174 276.399 174.017 279.204C172.588 280.236 171.472 281.052 170.776 281.676C170.08 282.3 169.671 282.576 169.671 282.576C169.671 282.576 170.032 282.24 170.74 281.64C171.448 281.04 172.528 280.176 173.969 279.12C178.11 276.275 182.633 274.029 187.402 272.448C194.485 270.136 201.844 268.776 209.286 268.404C217.689 267.864 226.921 268.272 236.596 268.584C246.272 268.896 255.528 268.92 263.835 267.66C271.19 266.575 278.459 264.971 285.587 262.86C291.673 261.108 296.499 259.32 299.812 258.06C301.469 257.412 302.741 256.86 303.594 256.524L304.914 256.032Z" fill="white"/>
<path d="M323.305 267.768C323.24 267.816 323.167 267.852 323.089 267.876L322.453 268.104C321.901 268.308 321.096 268.572 320.052 268.86C317.423 269.61 314.707 270.013 311.973 270.06C309.235 270.062 306.513 269.658 303.894 268.86C302.886 268.56 302.081 268.284 301.493 268.068L300.869 267.816L300.653 267.708H300.893L301.529 267.912C302.081 268.104 302.886 268.356 303.93 268.632C306.544 269.36 309.247 269.724 311.961 269.712C314.68 269.633 317.38 269.231 320.004 268.512C321 268.236 321.817 268.008 322.405 267.828L323.041 267.648L323.305 267.768Z" fill="white"/>
<path d="M285.431 301.728C285.431 301.728 279.669 302.928 270.269 304.344C265.564 305.052 259.945 305.748 253.691 306.372C247.437 306.996 240.486 307.464 233.283 307.74C226.081 308.016 219.118 307.992 212.876 307.86C206.633 307.728 200.871 307.392 196.19 307.032C186.706 306.312 180.884 305.52 180.884 305.52L181.94 305.604L184.989 305.904C187.63 306.18 191.46 306.516 196.202 306.852C200.943 307.188 206.597 307.464 212.876 307.62C219.154 307.776 226.081 307.74 233.283 307.488C240.486 307.236 247.413 306.72 253.691 306.144C259.969 305.568 265.564 304.848 270.269 304.164C274.975 303.48 278.769 302.88 281.385 302.412L284.399 301.884L285.431 301.728Z" fill="white"/>
<path d="M332.44 298.32H332.008H330.808C329.715 298.32 328.143 298.32 326.198 298.32C322.309 298.32 316.931 298.164 311.024 297.66C305.118 297.156 299.776 296.352 295.959 295.656C294.038 295.32 292.501 295.008 291.433 294.78L290.233 294.516L289.812 294.408H290.245L291.445 294.624L295.971 295.428C299.8 296.076 305.118 296.844 311.024 297.348C316.931 297.852 322.309 298.02 326.186 298.08H330.796H331.996L332.44 298.32Z" fill="white"/>
<path d="M272.502 347.784C272.502 347.784 272.154 347.856 271.518 347.94L268.685 348.336C267.484 348.516 265.948 348.72 264.183 348.84C262.419 348.96 260.426 349.2 258.181 349.236C255.936 349.272 253.535 349.44 250.978 349.392C249.67 349.392 248.325 349.392 246.933 349.392L242.647 349.248C236.777 349.02 230.342 348.576 223.596 348.048C216.849 347.52 210.391 346.848 204.569 346.5C198.747 346.152 193.441 345.888 188.963 345.96H185.806L182.985 346.104C181.232 346.176 179.707 346.26 178.483 346.416L175.638 346.692L174.642 346.776C174.642 346.776 174.99 346.716 175.638 346.644L178.471 346.308C179.671 346.14 181.22 346.056 182.985 345.96L185.806 345.804H188.963C193.405 345.72 198.699 345.936 204.569 346.296C210.439 346.656 216.849 347.256 223.596 347.82C230.342 348.384 236.801 348.852 242.635 349.104L246.909 349.26C248.301 349.26 249.646 349.26 250.954 349.26C253.559 349.26 255.984 349.2 258.157 349.14C260.33 349.08 262.371 348.876 264.159 348.768C265.948 348.66 267.424 348.48 268.661 348.312L271.494 347.964L272.502 347.784Z" fill="white"/>
<path d="M343.148 333.696L342.62 333.78L341.084 333.936C339.763 334.08 337.83 334.236 335.454 334.404C330.652 334.728 324.085 334.956 316.799 334.776C309.512 334.596 302.921 333.996 298.18 333.42C295.779 333.132 293.894 332.868 292.573 332.664L291.061 332.424L290.533 332.316L291.061 332.376L292.586 332.568C293.906 332.748 295.827 332.988 298.204 333.252C302.945 333.78 309.512 334.332 316.799 334.524C324.085 334.716 330.676 334.524 335.442 334.224C337.842 334.092 339.751 333.948 341.084 333.84L342.608 333.72L343.148 333.696Z" fill="white"/>
<path d="M344.001 377.304L342.248 377.208C341.048 377.208 339.403 376.968 337.219 376.908C332.849 376.68 326.523 376.632 318.708 377.016C310.893 377.4 301.637 378.324 291.385 379.68C281.134 381.036 269.897 382.8 258.097 384.288C246.952 385.79 235.729 386.643 224.484 386.844C215.316 387 206.152 386.337 197.102 384.864C191.003 383.858 184.999 382.341 179.155 380.328C178.111 380.004 177.211 379.656 176.43 379.344L174.437 378.552C173.369 378.132 172.817 377.892 172.817 377.892L174.462 378.504L176.454 379.272C177.235 379.584 178.147 379.92 179.191 380.244C185.04 382.217 191.043 383.702 197.138 384.684C206.179 386.127 215.33 386.774 224.484 386.616C235.729 386.39 246.952 385.516 258.097 384C269.921 382.476 281.158 380.724 291.421 379.404C301.685 378.084 310.917 377.196 318.708 376.8C324.874 376.485 331.052 376.485 337.219 376.8C341.588 377.052 344.001 377.304 344.001 377.304Z" fill="white"/>
<path d="M277.988 422.112C277.988 422.112 272.214 423.096 262.802 424.104C258.109 424.608 252.491 425.064 246.248 425.424C240.006 425.784 233.115 425.952 225.901 425.916C218.686 425.88 211.807 425.544 205.565 425.136C199.323 424.728 193.717 424.152 189.023 423.576C179.623 422.376 173.873 421.368 173.873 421.368L174.929 421.5L177.943 421.944C179.239 422.148 180.848 422.376 182.744 422.604C184.641 422.832 186.73 423.156 189.071 423.396C193.777 423.948 199.383 424.476 205.613 424.908C211.843 425.34 218.722 425.592 225.937 425.664C233.151 425.736 240.03 425.508 246.272 425.196C252.515 424.884 258.121 424.416 262.826 423.924C265.227 423.708 267.304 423.432 269.165 423.228C271.026 423.024 272.634 422.808 273.967 422.628L276.98 422.232L277.988 422.112Z" fill="white"/>
<path d="M343.329 413.52C343.329 413.52 343.101 413.604 342.681 413.724L340.844 414.288C339.235 414.768 336.906 415.428 334.013 416.208C328.239 417.756 320.184 419.676 311.205 421.32C302.225 422.964 294.002 424.032 288.048 424.632C285.071 424.932 282.658 425.136 280.989 425.256L279.069 425.388H278.396L279.057 425.304L280.977 425.124C282.646 424.98 285.059 424.74 288.024 424.416C294.026 423.768 302.177 422.688 311.157 421.044C320.136 419.4 328.179 417.504 333.965 415.992C336.858 415.248 339.187 414.612 340.796 414.156L342.657 413.64L343.329 413.52Z" fill="white"/>
<path d="M232.191 472.14C229.097 472.62 225.979 472.929 222.852 473.064C219.959 473.22 216.501 473.232 212.66 473.064C204.335 472.666 196.087 471.284 188.087 468.948C184.401 467.856 181.136 466.716 178.483 465.624C175.572 464.469 172.723 463.163 169.948 461.712L170.548 461.976L172.241 462.756C172.973 463.104 173.873 463.524 174.942 463.956C176.01 464.388 177.186 464.94 178.543 465.444C181.232 466.524 184.545 467.64 188.147 468.72C192.146 469.849 196.201 470.77 200.295 471.48C204.396 472.128 208.527 472.569 212.672 472.8C216.501 472.968 219.947 472.98 222.84 472.8C224.292 472.8 225.601 472.644 226.753 472.572C227.905 472.5 228.878 472.392 229.694 472.308L231.543 472.116L232.191 472.14Z" fill="white"/>
<path d="M347.674 469.08L346.474 469.296L343.041 469.848C340.063 470.316 335.742 470.976 330.4 471.732C319.716 473.256 304.914 475.152 288.528 476.784C272.142 478.416 257.244 479.448 246.512 480.048C241.122 480.348 236.753 480.564 233.74 480.684L230.27 480.816H229.07L230.27 480.744L233.74 480.564L246.5 479.856C257.304 479.208 272.142 478.128 288.516 476.508C304.89 474.888 319.728 473.016 330.388 471.54L343.041 469.728L346.474 469.224L347.674 469.08Z" fill="white"/>
<path d="M353.965 513.276C353.965 513.276 351.348 513.828 346.558 514.608C341.768 515.388 334.829 516.36 326.15 517.08C316.029 517.905 305.869 518.153 295.719 517.824C284.255 517.452 271.71 516.168 258.589 514.56C245.468 512.952 232.959 511.332 221.543 510.444C211.432 509.572 201.276 509.344 191.136 509.76C184.289 510.079 177.471 510.856 170.728 512.088C168.327 512.544 166.502 512.928 165.266 513.228L163.369 513.66C163.369 513.66 164.017 513.48 165.254 513.18C166.49 512.88 168.327 512.472 170.704 511.98C177.442 510.707 184.261 509.905 191.112 509.58C201.254 509.125 211.415 509.329 221.531 510.192C232.971 511.08 245.468 512.7 258.589 514.308C271.71 515.916 284.254 517.2 295.707 517.572C305.847 517.918 315.999 517.69 326.114 516.888C334.745 516.192 341.72 515.244 346.522 514.488C348.923 514.104 350.771 513.804 352.032 513.576L353.965 513.276Z" fill="white"/>
<path d="M389.186 266.712C389.186 266.712 388.838 267.66 388.058 269.316C386.933 271.644 385.624 273.879 384.144 276C381.943 279.135 379.537 282.122 376.942 284.94C374.037 288.156 370.699 291.54 367.338 295.212C364.128 298.627 361.198 302.295 358.575 306.18C356.438 309.355 354.708 312.786 353.425 316.392C352.55 318.849 351.982 321.404 351.732 324C351.612 324.9 351.648 325.62 351.612 326.1C351.576 326.58 351.612 326.832 351.612 326.832C351.58 325.883 351.604 324.933 351.684 323.988C351.89 321.402 352.427 318.853 353.281 316.404C354.548 312.777 356.27 309.325 358.407 306.132C361.03 302.225 363.964 298.537 367.182 295.104C370.567 291.444 373.917 288.06 376.786 284.856C379.375 282.049 381.781 279.079 383.988 275.964C385.484 273.863 386.812 271.648 387.962 269.34C388.394 268.524 388.646 267.864 388.862 267.432C389.078 267 389.186 266.712 389.186 266.712Z" fill="white"/>
<path d="M333.893 287.388L334.301 287.088L335.502 286.272C336.558 285.588 338.035 284.532 339.811 283.164C341.588 281.796 343.641 280.092 345.814 278.076C348.155 275.879 350.379 273.559 352.476 271.128C354.547 268.669 356.49 266.106 358.298 263.448C359.931 260.976 361.311 258.648 362.368 256.716C363.424 254.784 364.24 253.116 364.769 251.916L365.381 250.608L365.609 250.152C364.708 252.423 363.682 254.642 362.536 256.8C361.491 258.792 360.135 261.096 358.49 263.568C356.701 266.247 354.761 268.824 352.68 271.284C350.578 273.726 348.341 276.049 345.982 278.244C343.785 280.248 341.732 281.964 339.979 283.308C338.029 284.781 335.997 286.143 333.893 287.388Z" fill="white"/>
<path d="M248.097 343.5C248.186 343.441 248.283 343.397 248.385 343.368L249.25 343.032C250.03 342.768 251.122 342.288 252.527 341.64C256.431 339.673 260.014 337.124 263.151 334.08C267.776 329.54 271.857 324.478 275.311 318.996C279.647 312.343 283.607 305.452 287.172 298.356C293.566 285.416 299.179 272.104 303.978 258.492C305.863 253.284 307.327 249.036 308.36 246.12L309.56 242.748C309.692 242.388 309.8 242.112 309.884 241.872C309.968 241.632 310.004 241.584 310.004 241.584C309.998 241.69 309.978 241.795 309.944 241.896C309.872 242.136 309.776 242.424 309.668 242.784C309.416 243.612 309.056 244.752 308.588 246.192C307.64 249.144 306.187 253.392 304.386 258.636C299.695 272.316 294.117 285.676 287.688 298.632C284.117 305.748 280.137 312.652 275.768 319.308C272.262 324.804 268.12 329.867 263.427 334.392C260.246 337.436 256.599 339.951 252.623 341.844C251.541 342.344 250.431 342.781 249.298 343.152L248.409 343.428C248.31 343.467 248.204 343.492 248.097 343.5Z" fill="#455A64"/>
<path d="M246.092 368.892C246.29 368.702 246.507 368.533 246.741 368.388L248.685 367.056C250.354 365.856 252.767 364.164 255.672 361.944C261.494 357.516 269.141 350.904 277.352 343.356C281.482 339.588 285.431 336.024 288.84 332.616C291.888 329.62 294.721 326.412 297.316 323.016C299.056 320.718 300.606 318.282 301.949 315.732C302.453 314.844 302.766 314.112 303.006 313.632C303.119 313.382 303.252 313.142 303.402 312.912C303.342 313.182 303.249 313.444 303.126 313.692C302.91 314.184 302.634 314.892 302.153 315.84C300.887 318.451 299.38 320.937 297.652 323.268C295.105 326.726 292.295 329.984 289.248 333.012C285.839 336.468 281.902 340.044 277.772 343.812C270.811 350.337 263.523 356.505 255.936 362.292C252.995 364.488 250.546 366.144 248.817 367.26C247.965 367.824 247.281 368.22 246.825 368.46C246.59 368.62 246.346 368.764 246.092 368.892Z" fill="#455A64"/>
<path d="M213.68 497.184L213.824 496.908C213.956 496.716 214.112 496.464 214.304 496.152C214.725 495.48 215.373 494.52 216.237 493.296C217.978 490.896 220.655 487.452 224.184 483.444C231.303 475.452 241.267 464.568 252.251 452.508L280.473 421.728L289.08 412.44L291.481 409.932L292.106 409.296C292.25 409.152 292.322 409.08 292.334 409.092C292.346 409.104 292.274 409.176 292.154 409.332L291.565 410.016L289.309 412.596C287.268 414.852 284.387 418.068 280.845 422.004L252.743 452.916L224.484 483.72C220.883 487.692 218.194 491.052 216.405 493.44C215.505 494.64 214.833 495.576 214.376 496.212L213.86 496.944C213.813 497.032 213.752 497.113 213.68 497.184Z" fill="#455A64"/>
<path d="M325.754 281.508C325.559 280.912 325.411 280.302 325.31 279.684C325.178 279.096 325.034 278.364 324.926 277.512C324.818 276.66 324.638 275.688 324.59 274.608C324.542 273.528 324.41 272.34 324.422 271.008C324.434 269.676 324.422 268.368 324.518 266.928C324.935 260.709 326.455 254.614 329.007 248.928C329.62 247.632 330.208 246.396 330.832 245.328C331.456 244.26 332.033 243.192 332.645 242.28C333.257 241.368 333.845 240.564 334.301 239.88C334.722 239.276 335.175 238.695 335.658 238.14C336.022 237.643 336.424 237.173 336.858 236.736C336.548 237.282 336.19 237.8 335.79 238.284C335.43 238.764 334.986 239.352 334.529 240.072C334.073 240.792 333.485 241.572 332.957 242.472C332.429 243.372 331.756 244.404 331.216 245.532C330.676 246.66 330.016 247.932 329.464 249.132C326.984 254.79 325.482 260.828 325.022 266.988C324.95 268.404 324.842 269.748 324.866 271.008C324.89 272.268 324.866 273.408 324.962 274.524C325.058 275.64 325.13 276.564 325.214 277.416C325.298 278.268 325.394 279 325.49 279.6C325.64 280.226 325.728 280.865 325.754 281.508Z" fill="#455A64"/>
<path d="M343.221 324.564C343.077 324.564 340.916 319.86 338.419 313.908C335.922 307.956 334.001 303.108 334.145 303.012C335.924 306.481 337.527 310.037 338.947 313.668C340.562 317.222 341.988 320.859 343.221 324.564Z" fill="#455A64"/>
<path d="M171.664 286.512C171.568 286.572 170.632 284.856 168.867 282.252C164.257 275.454 158.3 269.675 151.365 265.272C148.712 263.592 146.971 262.704 147.019 262.608C147.461 262.737 147.888 262.914 148.292 263.136C149.096 263.508 150.224 264.108 151.593 264.912C155.146 267.031 158.442 269.556 161.412 272.436C164.377 275.326 166.999 278.547 169.227 282.036C170.068 283.38 170.704 284.496 171.1 285.288C171.329 285.675 171.518 286.086 171.664 286.512Z" fill="#455A64"/>
<path d="M218.782 258.144C218.713 257.747 218.713 257.341 218.782 256.944C218.986 254.689 219.956 252.571 221.531 250.944L221.603 250.872V250.956C221.689 251.123 221.753 251.301 221.795 251.484C221.795 251.484 221.663 251.328 221.495 251.016H221.603C220.825 251.935 220.189 252.967 219.718 254.076C219.219 255.382 218.904 256.751 218.782 258.144Z" fill="#455A64"/>
<path d="M234.676 266.4C234.524 266.017 234.439 265.611 234.424 265.2C234.32 264.217 234.344 263.225 234.496 262.248C234.649 261.272 234.928 260.32 235.324 259.416C235.468 259.035 235.671 258.678 235.925 258.36C235.383 259.625 234.981 260.944 234.724 262.296C234.562 263.658 234.546 265.034 234.676 266.4Z" fill="#455A64"/>
<path d="M251.999 265.008C251.943 263.889 251.79 262.776 251.542 261.684C251.207 260.608 250.769 259.567 250.234 258.576C250.475 258.811 250.677 259.082 250.834 259.38C251.249 260.078 251.568 260.828 251.782 261.612C251.99 262.395 252.099 263.201 252.107 264.012C252.128 264.347 252.092 264.684 251.999 265.008Z" fill="#455A64"/>
<path d="M267.148 258.372C266.638 257.305 266.035 256.285 265.348 255.324C264.579 254.426 263.736 253.595 262.827 252.84C263.153 252.973 263.456 253.155 263.727 253.38C264.405 253.896 265.014 254.497 265.54 255.168C266.063 255.842 266.498 256.58 266.836 257.364C266.994 257.681 267.099 258.021 267.148 258.372Z" fill="#455A64"/>
<path d="M277.58 248.088C277.195 246.826 276.478 245.69 275.503 244.8C274.492 243.957 273.265 243.413 271.962 243.228C271.962 243.228 272.082 243.228 272.286 243.228C272.573 243.237 272.858 243.274 273.138 243.336C274.074 243.559 274.943 244.003 275.671 244.632C276.401 245.257 276.966 246.053 277.316 246.948C277.429 247.213 277.509 247.491 277.556 247.776C277.578 247.878 277.586 247.983 277.58 248.088Z" fill="#455A64"/>
<path d="M283.162 229.092C282.239 228.354 281.159 227.837 280.005 227.58C278.834 227.4 277.637 227.499 276.512 227.868C277.596 227.301 278.838 227.112 280.043 227.329C281.247 227.546 282.344 228.158 283.162 229.068V229.092Z" fill="#455A64"/>
<path d="M208.362 245.34C208.385 244.984 208.47 244.635 208.614 244.308C209.253 242.7 210.462 241.384 212.011 240.612C212.325 240.441 212.666 240.328 213.02 240.276C211.932 240.747 210.955 241.441 210.153 242.313C209.35 243.186 208.74 244.217 208.362 245.34Z" fill="#455A64"/>
<path d="M204.569 232.692C204.713 232.34 204.916 232.016 205.169 231.732C205.731 231 206.408 230.363 207.174 229.848C207.94 229.322 208.782 228.917 209.671 228.648C210.03 228.522 210.407 228.457 210.787 228.456C208.292 229.097 206.095 230.58 204.569 232.656V232.692Z" fill="#455A64"/>
<path d="M174.726 306.444C174.726 306.444 174.726 306.372 174.654 306.444C174.603 306.567 174.567 306.696 174.545 306.828C174.485 307.2 174.425 307.74 174.353 308.448C174.209 309.852 174.053 311.892 173.885 314.448C173.537 319.5 173.141 326.448 172.769 334.212C172.397 341.976 172.109 348.924 171.941 353.988C171.856 356.388 171.796 358.476 171.748 359.988C171.748 360.636 171.748 361.188 171.676 361.62C171.694 361.807 171.694 361.996 171.676 362.184C171.623 362.001 171.603 361.81 171.616 361.62C171.616 361.176 171.616 360.636 171.616 359.988C171.616 358.572 171.616 356.52 171.616 353.988C171.616 348.924 171.88 341.916 172.265 334.188C172.649 326.46 173.105 319.476 173.561 314.424C173.789 311.892 174.017 309.852 174.233 308.424C174.341 307.728 174.449 307.224 174.545 306.816C174.579 306.671 174.635 306.533 174.714 306.408C174.714 306.3 174.75 306.468 174.726 306.444Z" fill="#263238"/>
<path d="M306.991 64.0558C296.979 60.9958 286.583 69.9598 276.26 67.9438C270.017 66.7438 265.311 61.7398 259.753 58.6438C251.458 54.0118 239.718 53.2558 231.243 57.5638C222.767 61.8718 217.281 66.4558 216.141 75.8998C208.422 71.4718 195.553 81.1798 191.172 90.5518C186.79 99.9237 187.882 109.596 190.367 119.64C194.685 136.963 202.36 153.271 212.96 167.64C213.896 168.912 215.361 170.316 216.813 169.644C217.261 169.33 217.629 168.916 217.887 168.435C218.146 167.953 218.288 167.418 218.302 166.872C219.778 157.692 218.614 148.32 217.81 139.056C217.005 129.792 216.609 120.24 219.55 111.456C222.491 102.672 229.394 94.5838 238.517 92.7838C245.264 91.4518 252.263 93.6357 258.253 97.0077C264.243 100.38 269.513 104.868 275.215 108.696C280.917 112.524 287.328 115.752 294.194 116.04C301.061 116.328 308.432 113.112 311.349 106.896C314.266 100.68 311.001 91.8477 304.278 90.4198C307.409 90.1456 310.346 88.7896 312.584 86.585C314.823 84.3805 316.223 81.465 316.545 78.3401C316.866 75.2152 316.088 72.076 314.344 69.4625C312.601 66.849 310 64.9244 306.991 64.0198V64.0558Z" fill="#263238"/>
<path d="M276.103 225.036L275.131 205.2C275.131 205.2 301.325 200.184 300.737 173.844C300.449 161.136 297.712 134.988 294.975 111.36C293.563 99.0976 287.582 87.8171 278.222 79.7664C268.862 71.7156 256.812 67.4858 244.472 67.9198L241.927 68.0038C214.592 70.5718 201.483 95.2198 204.809 122.472L211.111 228.552C211.619 237.131 215.502 245.16 221.912 250.886C228.322 256.613 236.739 259.571 245.324 259.116C253.919 258.656 261.983 254.813 267.751 248.427C273.519 242.04 276.522 233.63 276.103 225.036Z" fill="#FFBE9D"/>
<path d="M275.167 205.2C275.167 205.2 258.565 207.132 240.486 196.644C240.486 196.644 249.274 215.316 275.467 212.016L275.167 205.2Z" fill="#EB996E"/>
<path d="M286.103 129.18C286.143 130.158 285.801 131.113 285.149 131.843C284.497 132.573 283.587 133.021 282.61 133.092C282.133 133.147 281.65 133.105 281.189 132.971C280.728 132.836 280.299 132.611 279.926 132.308C279.554 132.005 279.246 131.63 279.02 131.206C278.794 130.783 278.656 130.318 278.613 129.84C278.566 128.861 278.904 127.903 279.555 127.17C280.205 126.437 281.116 125.987 282.094 125.916C282.573 125.859 283.058 125.9 283.521 126.034C283.984 126.169 284.416 126.395 284.79 126.7C285.164 127.004 285.473 127.38 285.698 127.807C285.924 128.233 286.062 128.7 286.103 129.18Z" fill="#263238"/>
<path d="M289.764 124.392C289.308 124.896 286.391 122.892 282.346 123.048C278.3 123.204 275.407 125.328 274.951 124.848C274.723 124.632 275.167 123.732 276.427 122.748C278.133 121.472 280.192 120.755 282.322 120.696C284.428 120.613 286.506 121.206 288.252 122.388C289.536 123.288 289.981 124.164 289.764 124.392Z" fill="#263238"/>
<path d="M246.344 132C246.387 132.98 246.046 133.938 245.394 134.671C244.742 135.403 243.829 135.853 242.851 135.924C242.374 135.979 241.89 135.937 241.43 135.803C240.969 135.668 240.539 135.443 240.167 135.14C239.794 134.837 239.486 134.462 239.261 134.038C239.035 133.615 238.897 133.15 238.853 132.672C238.81 131.692 239.151 130.734 239.803 130.001C240.455 129.268 241.368 128.819 242.347 128.748C242.824 128.693 243.307 128.734 243.768 128.869C244.229 129.004 244.658 129.229 245.031 129.532C245.403 129.835 245.711 130.21 245.937 130.633C246.162 131.057 246.301 131.522 246.344 132Z" fill="#263238"/>
<path d="M250.006 126.54C249.562 127.044 246.632 125.04 242.587 125.196C238.541 125.352 235.648 127.476 235.192 126.996C234.964 126.78 235.408 125.88 236.669 124.896C238.379 123.62 240.442 122.903 242.575 122.844C244.678 122.762 246.752 123.355 248.493 124.536C249.778 125.448 250.234 126.312 250.006 126.54Z" fill="#263238"/>
<path d="M265.743 156C265.743 155.76 268.216 155.244 272.274 154.584C273.306 154.44 274.279 154.2 274.435 153.48C274.478 152.41 274.198 151.352 273.63 150.444C272.574 147.984 271.47 145.392 270.305 142.692C265.659 131.64 262.262 122.532 262.718 122.292C263.174 122.052 267.28 130.92 271.914 141.972C273.042 144.692 274.111 147.296 275.119 149.784C275.812 151.006 276.055 152.433 275.803 153.816C275.666 154.185 275.447 154.519 275.162 154.791C274.877 155.063 274.534 155.267 274.159 155.388C273.59 155.563 273.001 155.664 272.406 155.688C268.312 156.156 265.767 156.264 265.743 156Z" fill="#263238"/>
<path d="M253.931 159.252C254.591 159.18 254.759 163.572 258.625 166.56C262.49 169.548 267.148 168.9 267.208 169.512C267.28 169.788 266.2 170.4 264.219 170.52C261.632 170.664 259.078 169.881 257.016 168.312C255.067 166.806 253.776 164.604 253.415 162.168C253.187 160.332 253.631 159.228 253.931 159.252Z" fill="#263238"/>
<path d="M249.694 105.804C249.334 106.908 245.276 106.536 240.546 107.268C235.816 108 232.023 109.44 231.363 108.468C231.063 108 231.687 106.944 233.199 105.828C235.219 104.445 237.528 103.543 239.95 103.189C242.371 102.835 244.842 103.04 247.173 103.788C248.925 104.4 249.838 105.276 249.694 105.804Z" fill="#263238"/>
<path d="M287.868 112.799C287.183 113.735 284.362 112.883 281.013 112.955C277.664 113.027 274.843 113.795 274.146 112.847C273.846 112.391 274.266 111.455 275.479 110.543C277.092 109.414 279.02 108.822 280.989 108.851C282.949 108.782 284.883 109.323 286.523 110.399C287.735 111.347 288.168 112.271 287.868 112.799Z" fill="#263238"/>
<path d="M207.678 141.888C207.222 141.708 189.395 137.172 190.596 155.088C191.796 173.004 209.611 168.144 209.611 167.628C209.611 167.112 207.678 141.888 207.678 141.888Z" fill="#FFBE9D"/>
<path d="M203.62 161.244C203.536 161.244 203.32 161.484 202.804 161.76C202.09 162.144 201.253 162.23 200.475 162C198.518 161.424 196.718 158.52 196.418 155.28C196.268 153.744 196.465 152.194 196.994 150.744C197.122 150.169 197.389 149.634 197.772 149.186C198.155 148.738 198.642 148.391 199.191 148.176C199.544 148.055 199.929 148.063 200.278 148.196C200.626 148.33 200.917 148.582 201.099 148.908C201.375 149.4 201.279 149.76 201.375 149.784C201.471 149.808 201.748 149.46 201.544 148.728C201.412 148.29 201.138 147.91 200.763 147.648C200.241 147.312 199.608 147.191 198.999 147.312C198.27 147.505 197.604 147.883 197.063 148.408C196.523 148.934 196.127 149.589 195.913 150.312C195.255 151.922 194.999 153.668 195.169 155.4C195.529 159 197.57 162.276 200.259 162.852C200.751 162.961 201.26 162.958 201.751 162.844C202.241 162.73 202.699 162.507 203.092 162.192C203.62 161.688 203.68 161.28 203.62 161.244Z" fill="#EB996E"/>
<path d="M300.352 105.6C294.573 107.3 288.471 107.605 282.551 106.489C276.63 105.373 271.059 102.868 266.296 99.1797C259.693 93.9717 254.483 86.3397 246.368 84.1437C243.603 83.5122 240.74 83.4363 237.946 83.9205C235.152 84.4046 232.481 85.439 230.09 86.9637C225.318 90.0365 221.231 94.0604 218.086 98.7837C223.644 111.984 220.751 127.044 217.773 141.048C217.61 142.638 216.921 144.128 215.817 145.284C213.752 146.988 210.511 145.824 208.614 143.952C205.529 140.94 204.22 136.584 203.32 132.384C201.09 122.811 200.792 112.889 202.444 103.2C204.134 93.4772 208.642 84.4646 215.409 77.2797C224.219 68.5439 236.084 63.5775 248.493 63.4317C260.837 63.3796 272.884 67.2174 282.922 74.3997C287.58 77.6637 291.901 81.5997 294.422 86.7477" fill="#263238"/>
<path d="M314.77 70.1397C314.846 70.6655 314.809 71.2013 314.662 71.7117C314.282 73.1971 313.441 74.5244 312.261 75.5037C310.368 77.017 308.044 77.8909 305.623 77.9997C304.134 78.1315 302.636 78.0912 301.157 77.8797C299.458 77.6511 297.853 76.9668 296.511 75.8997C295.757 75.303 295.148 74.5422 294.732 73.6751C294.316 72.808 294.104 71.8574 294.11 70.8957C294.205 69.849 294.594 68.8502 295.231 68.014C295.868 67.1777 296.728 66.5378 297.712 66.1677C298.733 65.7439 299.838 65.5631 300.941 65.6397C302.088 65.7536 303.177 66.1998 304.074 66.9237C304.976 67.6858 305.702 68.6337 306.204 69.7024C306.705 70.771 306.97 71.9354 306.979 73.1157C307.023 75.6064 306.087 78.0147 304.374 79.8237C302.626 81.674 300.418 83.028 297.976 83.7477C293.03 85.2957 287.508 84.5517 282.538 82.6197C277.716 80.638 273.14 78.1052 268.901 75.0717C264.994 72.3025 260.862 69.8659 256.548 67.7877C252.66 65.9326 248.381 65.0474 244.076 65.2077C240.343 65.4794 236.716 66.5692 233.452 68.3997C228.692 71.1085 224.708 74.9922 221.879 79.6797C221.078 80.9233 220.345 82.2092 219.682 83.5317C219.479 84.0115 219.242 84.4766 218.974 84.9237C218.996 84.7908 219.036 84.6615 219.094 84.5397C219.178 84.2997 219.31 83.9277 219.514 83.4597C220.096 82.078 220.774 80.7387 221.543 79.4517C224.296 74.6165 228.28 70.5962 233.091 67.7997C236.444 65.8931 240.18 64.7576 244.028 64.4757C248.461 64.2688 252.879 65.1461 256.896 67.0317C261.275 69.129 265.467 71.5938 269.429 74.3997C273.611 77.3828 278.117 79.8827 282.862 81.8517C287.724 83.7237 293.03 84.4437 297.736 82.9797C300.025 82.2642 302.086 80.9608 303.714 79.1997C305.264 77.5875 306.125 75.4356 306.115 73.1997C306.115 72.1359 305.886 71.0844 305.443 70.1173C304.999 69.1501 304.352 68.29 303.546 67.5957C302.766 66.9793 301.832 66.5894 300.845 66.4688C299.858 66.3481 298.857 66.5014 297.952 66.9117C297.081 67.2173 296.313 67.7622 295.738 68.4838C295.162 69.2055 294.802 70.0747 294.699 70.9917C294.698 71.8528 294.891 72.7029 295.263 73.4796C295.635 74.2563 296.176 74.9398 296.847 75.4797C298.103 76.4817 299.603 77.1319 301.193 77.3637C302.63 77.588 304.088 77.6484 305.539 77.5437C307.92 77.4914 310.224 76.6847 312.117 75.2397C313.256 74.304 314.092 73.051 314.518 71.6397C314.634 71.1456 314.718 70.6446 314.77 70.1397Z" fill="#455A64"/>
<path d="M188.471 106.164C190.278 106.734 192.135 107.136 194.017 107.364C196.053 107.473 198.091 107.188 200.019 106.524C202.388 105.683 204.623 104.507 206.658 103.032C210.333 100.29 213.017 96.4279 214.304 92.0279C214.755 90.1788 215.088 88.303 215.301 86.4119C215.431 86.9209 215.48 87.4475 215.445 87.9719C215.441 89.3968 215.259 90.8157 214.905 92.1959C213.755 96.8345 211.02 100.926 207.174 103.764C205.071 105.31 202.743 106.524 200.271 107.364C198.234 108.034 196.078 108.267 193.945 108.048C192.521 107.885 191.13 107.513 189.815 106.944C189.324 106.765 188.869 106.501 188.471 106.164Z" fill="#455A64"/>
<path d="M189.743 119.16C189.743 118.992 191.879 119.388 195.277 119.076C199.692 118.699 203.926 117.144 207.535 114.573C211.144 112.002 213.996 108.509 215.792 104.46C217.197 101.352 217.509 99.2276 217.677 99.2636C217.71 99.7681 217.661 100.275 217.533 100.764C217.269 102.113 216.867 103.432 216.333 104.7C214.641 108.955 211.759 112.634 208.032 115.296C204.304 117.959 199.889 119.491 195.313 119.712C193.941 119.782 192.566 119.718 191.207 119.52C190.703 119.477 190.209 119.356 189.743 119.16Z" fill="#455A64"/>
<path d="M237.161 144.216C237.101 144.228 237.039 144.228 236.979 144.215C236.919 144.203 236.862 144.179 236.812 144.144C236.761 144.109 236.718 144.065 236.686 144.013C236.653 143.962 236.631 143.904 236.621 143.844C236.6 143.785 236.593 143.724 236.598 143.662C236.603 143.601 236.62 143.541 236.65 143.487C236.679 143.433 236.719 143.385 236.768 143.348C236.817 143.31 236.873 143.283 236.933 143.268C237.051 143.256 237.17 143.287 237.267 143.356C237.364 143.425 237.433 143.526 237.461 143.642C237.489 143.758 237.474 143.88 237.418 143.985C237.363 144.091 237.272 144.172 237.161 144.216Z" fill="#EB996E"/>
<path d="M244.892 142.188C244.762 142.187 244.636 142.142 244.535 142.061C244.434 141.98 244.363 141.867 244.334 141.741C244.305 141.615 244.319 141.483 244.375 141.365C244.43 141.248 244.523 141.153 244.64 141.096C244.772 141.085 244.904 141.125 245.009 141.207C245.113 141.289 245.183 141.408 245.204 141.54C245.246 141.667 245.237 141.806 245.179 141.927C245.121 142.048 245.018 142.142 244.892 142.188Z" fill="#EB996E"/>
<path d="M250.042 141.876C249.79 141.876 249.55 141.624 249.478 141.228C249.406 140.832 249.562 140.472 249.802 140.436C250.042 140.4 250.294 140.688 250.366 141.084C250.438 141.48 250.282 141.84 250.042 141.876Z" fill="#EB996E"/>
<path d="M241.134 148.932C240.894 148.932 240.678 148.824 240.678 148.668C240.678 148.512 240.87 148.368 241.11 148.368C241.35 148.368 241.567 148.476 241.567 148.632C241.567 148.788 241.386 148.92 241.134 148.932Z" fill="#EB996E"/>
<path d="M248.169 147.036C248.043 147.042 247.92 147 247.826 146.917C247.732 146.834 247.674 146.717 247.665 146.592C247.652 146.529 247.653 146.465 247.666 146.403C247.678 146.341 247.703 146.282 247.739 146.23C247.775 146.177 247.821 146.132 247.874 146.098C247.927 146.063 247.986 146.039 248.049 146.028C248.175 146.024 248.298 146.07 248.392 146.155C248.486 146.24 248.544 146.358 248.553 146.484C248.574 146.608 248.546 146.735 248.474 146.838C248.402 146.941 248.292 147.012 248.169 147.036Z" fill="#EB996E"/>
<path d="M284.927 141.336C284.865 141.348 284.802 141.347 284.741 141.335C284.679 141.322 284.621 141.297 284.569 141.261C284.518 141.225 284.474 141.179 284.441 141.126C284.407 141.073 284.385 141.014 284.375 140.952C284.355 140.893 284.347 140.83 284.352 140.768C284.356 140.706 284.374 140.645 284.403 140.59C284.433 140.535 284.473 140.487 284.522 140.448C284.57 140.409 284.627 140.38 284.687 140.364C284.809 140.348 284.934 140.378 285.035 140.448C285.137 140.518 285.21 140.623 285.24 140.743C285.269 140.863 285.254 140.99 285.196 141.099C285.138 141.208 285.043 141.293 284.927 141.336Z" fill="#EB996E"/>
<path d="M290.173 140.676C290.042 140.664 289.919 140.608 289.824 140.518C289.729 140.427 289.669 140.306 289.652 140.176C289.635 140.045 289.663 139.913 289.732 139.801C289.8 139.689 289.905 139.604 290.029 139.56C290.269 139.56 290.497 139.752 290.545 140.052C290.575 140.184 290.552 140.322 290.483 140.438C290.414 140.554 290.303 140.639 290.173 140.676Z" fill="#EB996E"/>
<path d="M280.269 141.6C280.193 141.607 280.117 141.592 280.049 141.557C279.981 141.523 279.925 141.469 279.887 141.403C279.849 141.336 279.831 141.261 279.835 141.184C279.839 141.108 279.865 141.035 279.91 140.973C279.955 140.911 280.016 140.864 280.088 140.836C280.159 140.809 280.236 140.802 280.311 140.818C280.386 140.833 280.454 140.87 280.509 140.924C280.563 140.977 280.601 141.045 280.617 141.12C280.632 141.229 280.603 141.34 280.539 141.429C280.474 141.518 280.378 141.579 280.269 141.6Z" fill="#EB996E"/>
<path d="M284.363 146.772C284.243 146.812 284.112 146.806 283.997 146.755C283.881 146.704 283.789 146.612 283.738 146.496C283.706 146.441 283.686 146.38 283.677 146.317C283.669 146.254 283.673 146.189 283.69 146.128C283.707 146.067 283.736 146.009 283.775 145.959C283.814 145.909 283.863 145.867 283.919 145.836C284.037 145.806 284.162 145.818 284.273 145.87C284.384 145.922 284.473 146.011 284.525 146.121C284.578 146.232 284.59 146.357 284.561 146.476C284.531 146.594 284.461 146.699 284.363 146.772Z" fill="#EB996E"/>
<path d="M288.828 145.704C288.774 145.696 288.723 145.678 288.676 145.651C288.629 145.623 288.588 145.586 288.556 145.543C288.523 145.499 288.5 145.45 288.487 145.397C288.474 145.344 288.472 145.289 288.48 145.236C288.518 145.133 288.594 145.05 288.693 145.003C288.792 144.956 288.905 144.949 289.008 144.984C289.115 144.999 289.211 145.055 289.276 145.14C289.341 145.226 289.37 145.333 289.356 145.44C289.321 145.544 289.245 145.631 289.147 145.68C289.048 145.73 288.933 145.738 288.828 145.704Z" fill="#EB996E"/>
<path d="M279.921 444.768L279.633 418.092C279.633 418.092 261.83 393.432 268.829 366.684C268.829 366.684 280.437 358.524 311.565 363.3C311.565 363.3 350.64 325.248 403.015 334.932C455.391 344.616 460.265 390.228 460.769 402.648C461.273 415.068 461.153 439.188 443.122 462.768L441.922 486.168C441.922 486.168 437.624 494.976 425.2 494.376C412.775 493.776 413.471 491.976 413.471 491.976C413.471 491.976 397.865 504.564 397.193 507.852C396.521 511.14 394.072 523.608 394.072 523.608C394.072 523.608 388.658 530.964 376.977 531.828C372.357 532.155 367.736 531.209 363.616 529.092C362.054 528.301 360.664 527.207 359.529 525.874C358.393 524.541 357.534 522.996 357.002 521.328C355.886 517.634 354.001 514.218 351.47 511.304C348.94 508.39 345.822 506.044 342.32 504.42L334.253 502.308C334.253 502.308 331 505.272 319.68 506.484C308.36 507.696 308.312 503.688 308.312 503.688C308.312 503.688 290.701 507.756 277.472 490.488C267.028 476.832 261.35 452.268 279.921 444.768Z" fill="#DDF344"/>
<path d="M388.489 446.304C388.666 446.018 388.863 445.746 389.078 445.488C389.474 444.96 390.062 444.192 390.794 443.184C392.271 441.18 394.336 438.216 396.617 434.388C399.271 429.9 401.575 425.214 403.507 420.372C404.6 417.636 405.62 414.72 406.52 411.66C407.421 408.6 408.177 405.288 407.385 402.06C406.431 398.931 404.387 396.249 401.622 394.5C399.074 392.791 396.345 391.371 393.483 390.264C388.638 388.352 383.545 387.14 378.358 386.664C374.86 386.332 371.339 386.332 367.842 386.664C366.641 386.772 365.645 386.892 364.985 386.988C364.657 387.056 364.323 387.092 363.988 387.096C364.31 386.994 364.639 386.918 364.973 386.868C365.609 386.736 366.569 386.568 367.818 386.424C371.326 385.988 374.871 385.919 378.394 386.22C383.657 386.616 388.831 387.792 393.747 389.712C396.656 390.816 399.431 392.245 402.019 393.972C404.91 395.801 407.042 398.614 408.021 401.892C408.861 405.336 408.021 408.768 407.144 411.828C406.268 414.888 405.188 417.828 404.071 420.588C402.11 425.446 399.757 430.137 397.037 434.616C395.2 437.63 393.196 440.538 391.034 443.328C390.266 444.324 389.642 445.068 389.222 445.56C389.003 445.831 388.757 446.08 388.489 446.304Z" fill="#263238"/>
<path d="M315.262 364.464C315.354 364.657 315.414 364.864 315.442 365.076C315.559 365.689 315.587 366.315 315.526 366.936C315.224 369.232 314.168 371.363 312.525 372.996C310.569 375.156 307.591 376.92 304.686 379.296C301.504 381.854 298.566 384.702 295.911 387.804C291.076 393.442 287.177 399.819 284.363 406.692C283.282 409.332 282.574 411.492 282.094 413.052C281.89 413.76 281.71 414.348 281.566 414.816C281.517 415.023 281.444 415.225 281.35 415.416C281.352 415.2 281.384 414.986 281.446 414.78C281.566 414.3 281.698 413.712 281.866 412.98C282.437 410.793 283.134 408.642 283.955 406.536C286.667 399.549 290.552 393.076 295.443 387.396C298.122 384.269 301.097 381.407 304.326 378.852C307.291 376.452 310.268 374.76 312.213 372.696C313.825 371.142 314.901 369.117 315.286 366.912C315.366 366.097 315.358 365.277 315.262 364.464Z" fill="#263238"/>
<g opacity="0.5">
<path d="M336.198 367.727L352.128 371.795C352.128 371.795 375.452 345.599 401.07 338.963L391.467 336.695C370.415 341.441 351.206 352.226 336.198 367.727Z" fill="black"/>
</g>
<path d="M395.872 337.703C374.924 342.412 355.864 353.278 341.144 368.903L336.198 367.703C336.198 367.703 358.79 342.923 391.478 336.671L395.872 337.703Z" fill="#4949EB"/>
<g opacity="0.7">
<path d="M395.872 337.703C374.924 342.412 355.864 353.278 341.144 368.903L336.198 367.703C336.198 367.703 358.79 342.923 391.478 336.671L395.872 337.703Z" fill="black"/>
</g>
<path d="M272.226 450.204C281.049 437.58 303.186 441.444 313.281 452.796C323.377 464.148 327.855 479.772 321.289 493.236C318.479 498.984 313.101 504.036 306.703 503.916C309.895 500.336 312.183 496.044 313.373 491.398C314.564 486.752 314.623 481.889 313.546 477.216C311.493 467.796 305.551 459.48 298.036 453.432C294.23 450.36 289.945 446.988 285.071 446.508C280.197 446.028 276.296 445.884 272.226 450.204Z" fill="#DDF344"/>
<g opacity="0.3">
<path d="M272.226 450.204C281.049 437.58 303.186 441.444 313.281 452.796C323.377 464.148 327.855 479.772 321.289 493.236C318.479 498.984 313.101 504.036 306.703 503.916C309.895 500.336 312.183 496.044 313.373 491.398C314.564 486.752 314.623 481.889 313.546 477.216C311.493 467.796 305.551 459.48 298.036 453.432C294.23 450.36 289.945 446.988 285.071 446.508C280.197 446.028 276.296 445.884 272.226 450.204Z" fill="black"/>
</g>
<g opacity="0.3">
<path d="M389.378 445.56C389.21 448.236 391.659 450.6 394.312 450.912C395.651 450.992 396.991 450.753 398.22 450.215C399.449 449.677 400.533 448.855 401.382 447.816C403.054 445.718 404.28 443.3 404.984 440.712C407.745 432.06 409.173 419.112 407.721 410.196C403.903 421.8 397.085 436.272 389.174 445.584" fill="black"/>
</g>
<g opacity="0.3">
<path d="M397.745 405.66C396.028 400.584 390.77 397.62 385.741 395.868C380.582 394.069 375.194 393.01 369.739 392.724C368.022 392.537 366.286 392.704 364.637 393.216C363.819 393.482 363.082 393.952 362.496 394.582C361.91 395.212 361.494 395.981 361.287 396.816C361.179 397.5 361.285 398.202 361.59 398.825C361.895 399.448 362.385 399.961 362.992 400.296C371.692 410.361 378.182 422.138 382.043 434.868C382.207 435.427 382.519 435.933 382.947 436.33C383.374 436.727 383.901 437.002 384.471 437.125C385.041 437.247 385.635 437.214 386.188 437.028C386.741 436.842 387.233 436.51 387.613 436.068C391.695 431.412 394.048 425.136 396.161 419.184C397.673 414.816 399.234 410.04 397.745 405.66Z" fill="black"/>
</g>
<g opacity="0.3">
<path d="M282.97 408C277.513 399.514 274.705 389.598 274.903 379.512C274.903 377.388 275.215 375.084 276.691 373.572C278.48 371.736 281.385 371.7 283.894 371.868C290.966 372.309 297.994 373.296 304.914 374.82C305.454 374.94 306.115 375.12 306.283 375.636C306.473 376.033 306.529 376.481 306.445 376.913C306.361 377.345 306.14 377.739 305.814 378.036C295.07 384.624 287.448 396.744 283.39 408.6" fill="black"/>
</g>
<path d="M269.585 367.632C269.608 368.237 269.58 368.843 269.501 369.444C269.405 370.644 269.297 372.288 269.225 374.364C268.86 382.76 269.916 391.158 272.346 399.204C273.162 401.832 274.015 404.148 274.831 406.068C275.647 407.988 276.356 409.512 276.872 410.544C277.176 411.069 277.426 411.624 277.616 412.2C277.253 411.716 276.932 411.202 276.656 410.664C276.067 409.656 275.299 408.144 274.435 406.236C273.421 404.005 272.54 401.717 271.794 399.384C270.905 396.514 270.191 393.592 269.657 390.636C268.751 385.274 268.457 379.828 268.781 374.4C268.913 372.324 269.081 370.632 269.261 369.48C269.309 368.855 269.418 368.236 269.585 367.632Z" fill="#FAFAFA"/>
<path d="M390.542 335.832C390.344 335.931 390.134 336.007 389.918 336.06L388.118 336.588C387.325 336.804 386.365 337.068 385.26 337.428C384.156 337.788 382.86 338.136 381.527 338.628C378.754 339.552 375.525 340.788 371.984 342.3C368.442 343.812 364.637 345.684 360.759 347.844C356.882 350.004 353.329 352.32 350.171 354.516C347.014 356.712 344.289 358.872 342.068 360.756C340.928 361.656 339.955 362.556 339.079 363.312C338.203 364.068 337.471 364.74 336.882 365.304L335.49 366.564C335.166 366.852 334.986 366.996 334.974 366.972C335.099 366.792 335.244 366.627 335.406 366.48L336.714 365.124C337.278 364.536 337.987 363.84 338.851 363.06C339.715 362.28 340.652 361.356 341.78 360.42C343.977 358.488 346.702 356.316 349.835 354.048C353.261 351.622 356.807 349.372 360.459 347.304C364.128 345.268 367.898 343.422 371.755 341.772C375.357 340.284 378.598 339.084 381.359 338.172C382.752 337.704 384.024 337.38 385.14 337.056C386.257 336.732 387.229 336.492 388.034 336.312L389.858 335.904C390.081 335.845 390.312 335.821 390.542 335.832Z" fill="#FAFAFA"/>
<path d="M404.551 399.24C404.455 399.348 402.642 397.5 399.161 395.28C397.119 393.99 394.975 392.871 392.751 391.932C390.036 390.796 387.223 389.908 384.348 389.28C379.092 388.126 373.69 387.798 368.334 388.308C364.228 388.728 361.743 389.412 361.707 389.28C362.273 389.067 362.855 388.899 363.448 388.776C365.026 388.367 366.63 388.066 368.25 387.876C373.657 387.222 379.137 387.49 384.456 388.668C387.377 389.308 390.231 390.225 392.979 391.404C395.222 392.377 397.372 393.554 399.401 394.92L400.602 395.748L401.646 396.576C402.214 396.997 402.752 397.458 403.255 397.956C403.721 398.348 404.154 398.778 404.551 399.24Z" fill="#FAFAFA"/>
<path d="M297.171 501.972C296.973 501.948 296.778 501.896 296.595 501.816C296.053 501.651 295.52 501.459 294.998 501.24C293.054 500.472 291.179 499.54 289.392 498.456C283.434 494.892 278.475 489.88 274.974 483.886C271.473 477.892 269.545 471.11 269.369 464.172C269.299 462.086 269.407 459.999 269.693 457.932C269.777 457.2 269.909 456.636 269.969 456.252C270.002 456.056 270.05 455.864 270.113 455.676C270.103 456.439 270.043 457.201 269.933 457.956C269.742 460.018 269.698 462.091 269.801 464.16C270.099 470.998 272.06 477.661 275.513 483.572C278.966 489.483 283.809 494.464 289.62 498.084C291.377 499.185 293.206 500.167 295.094 501.024C296.427 501.6 297.183 501.924 297.171 501.972Z" fill="#FAFAFA"/>
<g opacity="0.2">
<path d="M300.316 474.252C299.383 473.933 298.377 473.894 297.421 474.14C296.466 474.385 295.603 474.903 294.938 475.632C294.289 476.373 293.816 477.251 293.552 478.2C293.288 479.149 293.241 480.146 293.414 481.116C293.594 482.994 294.402 484.756 295.707 486.12C296.789 487.167 298.176 487.844 299.668 488.052C300.6 488.031 301.508 487.754 302.293 487.253C303.078 486.751 303.711 486.044 304.122 485.208C304.639 484.248 304.951 483.191 305.038 482.104C305.125 481.017 304.985 479.924 304.627 478.894C304.269 477.864 303.702 476.919 302.959 476.12C302.217 475.321 301.317 474.685 300.316 474.252Z" fill="black"/>
</g>
<path d="M298.456 474C297.591 475.043 297.006 476.289 296.755 477.62C296.504 478.952 296.596 480.325 297.022 481.612C297.448 482.898 298.194 484.055 299.191 484.973C300.187 485.892 301.401 486.543 302.717 486.864C302.177 487.348 301.53 487.697 300.829 487.883C300.128 488.068 299.393 488.085 298.684 487.932C296.921 487.346 295.407 486.185 294.384 484.636C293.36 483.086 292.888 481.238 293.042 479.388C293.117 477.871 293.735 476.431 294.782 475.332C295.799 474.448 297.109 473.973 298.456 474Z" fill="#4949EB"/>
<g opacity="0.4">
<path d="M298.456 474C297.591 475.043 297.006 476.289 296.755 477.62C296.504 478.952 296.596 480.325 297.022 481.612C297.448 482.898 298.194 484.055 299.191 484.973C300.187 485.892 301.401 486.543 302.717 486.864C302.177 487.348 301.53 487.697 300.829 487.883C300.128 488.068 299.393 488.085 298.684 487.932C296.921 487.346 295.407 486.185 294.384 484.636C293.36 483.086 292.888 481.238 293.042 479.388C293.117 477.871 293.735 476.431 294.782 475.332C295.799 474.448 297.109 473.973 298.456 474Z" fill="black"/>
</g>
<g opacity="0.2">
<path d="M282.622 467.424C281.72 467.123 280.75 467.09 279.83 467.329C278.91 467.567 278.078 468.067 277.436 468.768C276.809 469.483 276.351 470.33 276.095 471.246C275.84 472.162 275.793 473.124 275.959 474.06C276.158 475.859 276.938 477.544 278.18 478.86C279.229 479.868 280.569 480.519 282.01 480.72C282.906 480.701 283.781 480.436 284.537 479.953C285.293 479.471 285.901 478.789 286.295 477.984C286.793 477.056 287.092 476.036 287.175 474.986C287.258 473.937 287.123 472.882 286.778 471.888C286.433 470.893 285.885 469.981 285.17 469.209C284.455 468.436 283.587 467.821 282.622 467.4" fill="black"/>
</g>
<path d="M280.833 467.208C279.994 468.213 279.426 469.416 279.182 470.702C278.938 471.988 279.026 473.315 279.439 474.557C279.851 475.799 280.573 476.916 281.538 477.801C282.503 478.687 283.677 479.311 284.951 479.616C284.428 480.084 283.803 480.423 283.125 480.604C282.447 480.785 281.736 480.804 281.049 480.66C279.349 480.091 277.889 478.968 276.903 477.471C275.917 475.974 275.462 474.19 275.611 472.404C275.68 470.946 276.273 469.561 277.28 468.504C278.275 467.636 279.561 467.173 280.881 467.208" fill="#4949EB"/>
<g opacity="0.4">
<path d="M280.833 467.208C279.994 468.213 279.426 469.416 279.182 470.702C278.938 471.988 279.026 473.315 279.439 474.557C279.851 475.799 280.573 476.916 281.538 477.801C282.503 478.687 283.677 479.311 284.951 479.616C284.428 480.084 283.803 480.423 283.125 480.604C282.447 480.785 281.736 480.804 281.049 480.66C279.349 480.091 277.889 478.968 276.903 477.471C275.917 475.974 275.462 474.19 275.611 472.404C275.68 470.946 276.273 469.561 277.28 468.504C278.275 467.636 279.561 467.173 280.881 467.208" fill="black"/>
</g>
<path d="M328.167 434.399C328.167 434.399 328.287 434.399 328.334 434.316H328.418L328.167 434.399Z" fill="#263238"/>
<path d="M337.242 438.144C336.672 436.609 335.569 435.332 334.133 434.544C332.994 433.973 331.735 433.681 330.46 433.692H330.352C329.643 433.735 328.953 433.941 328.335 434.292C327.002 434.955 325.861 435.948 325.021 437.177C324.18 438.406 323.668 439.829 323.533 441.312C323.449 443.207 323.929 445.085 324.912 446.708C325.894 448.331 327.336 449.627 329.055 450.432C330.19 451.015 331.485 451.209 332.741 450.984C333.985 450.628 335.072 449.863 335.826 448.812C336.974 447.312 337.71 445.538 337.958 443.667C338.207 441.795 337.96 439.89 337.242 438.144Z" fill="#263238"/>
<path d="M291.061 422.723C291.11 422.695 291.162 422.671 291.216 422.652H291.288L291.061 422.723Z" fill="#263238"/>
<path d="M298.912 426C298.429 424.649 297.468 423.522 296.211 422.832C295.228 422.336 294.142 422.081 293.042 422.088H292.91C292.297 422.128 291.701 422.309 291.169 422.616C290.011 423.188 289.021 424.048 288.291 425.114C287.562 426.179 287.118 427.414 287.003 428.7C286.932 430.341 287.351 431.967 288.205 433.371C289.06 434.775 290.313 435.893 291.805 436.584C292.772 437.156 293.923 437.33 295.016 437.071C296.109 436.811 297.058 436.137 297.663 435.192C298.649 433.898 299.283 432.371 299.502 430.76C299.72 429.149 299.517 427.509 298.912 426Z" fill="#263238"/>
<path d="M301.313 446.052C301.566 446.068 301.816 446.116 302.057 446.196C302.764 446.375 303.461 446.592 304.146 446.844C306.673 447.769 309.051 449.059 311.205 450.672C314.428 453.054 317.17 456.027 319.284 459.432C321.848 463.614 323.553 468.264 324.302 473.112C325.067 477.951 325.01 482.884 324.134 487.704C323.498 491.693 321.774 495.43 319.152 498.504C317.348 500.54 315.011 502.032 312.405 502.812C311.465 503.12 310.476 503.255 309.488 503.208C310.452 503.077 311.403 502.868 312.333 502.584C314.851 501.73 317.093 500.218 318.828 498.204C321.333 495.167 322.972 491.51 323.569 487.62C324.408 482.859 324.445 477.992 323.677 473.22C322.945 468.452 321.285 463.874 318.792 459.744C316.735 456.381 314.073 453.427 310.941 451.032C308.83 449.418 306.517 448.087 304.062 447.072C302.345 446.4 301.313 446.112 301.313 446.052Z" fill="#263238"/>
<path d="M289.849 431.856C289.789 431.856 289.476 431.64 289.152 431.076C288.762 430.335 288.553 429.513 288.54 428.676C288.544 427.839 288.75 427.016 289.14 426.276C289.464 425.712 289.765 425.448 289.837 425.496C289.485 426.537 289.26 427.617 289.164 428.712C289.274 429.782 289.504 430.837 289.849 431.856Z" fill="#FAFAFA"/>
<path d="M326.042 445.116C325.97 445.116 325.67 444.84 325.406 444.204C325.082 443.359 324.995 442.442 325.154 441.552C325.29 440.664 325.673 439.833 326.258 439.152C326.715 438.624 327.099 438.432 327.147 438.492C326.522 439.472 326.056 440.545 325.766 441.672C325.663 442.827 325.756 443.991 326.042 445.116Z" fill="#FAFAFA"/>
<path d="M348.815 508.524C348.755 508.62 347.302 507.612 344.757 506.34C341.423 504.732 337.977 503.368 334.445 502.26C330.304 500.916 326.534 499.764 323.833 498.804C322.489 498.336 321.433 497.928 320.664 497.604C320.272 497.469 319.897 497.287 319.548 497.064C321.047 497.425 322.525 497.866 323.978 498.384C326.691 499.236 330.484 500.316 334.638 501.672C338.203 502.779 341.659 504.213 344.961 505.956C345.598 506.28 346.162 506.628 346.63 506.928C347.047 507.175 347.448 507.447 347.83 507.744C348.191 507.96 348.522 508.222 348.815 508.524Z" fill="#263238"/>
<path d="M433.987 469.872C433.664 470.464 433.295 471.03 432.882 471.564C432.162 472.632 431.022 474.132 429.569 475.932C425.705 480.574 421.509 484.93 417.012 488.964C411.766 493.764 406.881 497.832 403.423 500.904L399.342 504.504C398.866 504.977 398.352 505.41 397.805 505.8C398.219 505.274 398.677 504.784 399.174 504.336C400.086 503.412 401.443 502.116 403.135 500.532C406.52 497.376 411.358 493.2 416.58 488.46C421.054 484.439 425.276 480.147 429.221 475.608C430.722 473.856 431.91 472.404 432.69 471.384C433.083 470.847 433.516 470.341 433.987 469.872Z" fill="#263238"/>
<g opacity="0.2">
<path d="M413.579 492.096C420.038 492.624 427.372 490.644 431.958 486.096C434.26 483.754 435.814 480.781 436.423 477.555C437.032 474.329 436.669 470.995 435.379 467.976C431.61 473.352 427.36 479.064 422.174 483.456C418.909 486.228 416.736 489.588 413.579 492.132" fill="black"/>
</g>
<g opacity="0.5">
<path d="M390.578 341.172C398.981 353.532 416.208 357.444 424.539 369.828C427.768 374.628 429.341 380.292 430.901 385.86L450.108 455.136C450.901 440.124 447.287 425.268 443.686 410.664C440.149 396.264 436.599 381.864 433.038 367.464C432.451 364.242 431.279 361.155 429.581 358.356C427.684 355.632 424.863 353.724 422.114 351.876C412.246 345.252 402.09 338.508 390.518 335.868" fill="black"/>
</g>
<g opacity="0.3">
<path d="M331.66 378.588C332.189 380.268 329.884 382.56 326.294 385.404C324.482 386.82 322.369 388.44 320.04 390.204C317.711 391.968 315.238 393.9 312.633 395.988C310.028 398.076 307.675 400.152 305.431 401.988C303.186 403.824 301.229 405.66 299.428 407.136C295.911 410.076 293.21 411.864 291.661 411C290.113 410.136 290.221 406.728 292.274 401.952C293.502 399.181 295.062 396.57 296.919 394.176C301.467 388.283 307.318 383.523 314.014 380.268C316.739 378.944 319.612 377.949 322.573 377.304C327.723 376.308 331.156 376.98 331.66 378.588Z" fill="white"/>
</g>
<path d="M299.548 473.292C298.667 473.61 297.753 473.832 296.823 473.952C295.939 474.257 295.026 474.47 294.098 474.588C294.806 473.919 295.712 473.498 296.679 473.388C297.602 473.056 298.605 473.023 299.548 473.292Z" fill="#FAFAFA"/>
<path d="M281.326 466.679C280.491 466.877 279.645 467.025 278.793 467.123C277.436 467.423 276.392 467.987 276.32 467.831C276.248 467.675 277.16 466.847 278.649 466.511C279.084 466.36 279.545 466.297 280.004 466.326C280.464 466.355 280.913 466.475 281.326 466.679Z" fill="#FAFAFA"/>
<path d="M362.14 522.48C361.972 522.564 360.375 519.876 358.154 516.72C355.934 513.564 353.953 511.152 354.085 511.032C355.858 512.582 357.402 514.376 358.671 516.36C360.105 518.229 361.272 520.289 362.14 522.48Z" fill="#FAFAFA"/>
<path d="M290.629 396.54C290.797 396.648 288.432 400.14 286.379 404.82C284.326 409.5 283.342 413.592 283.15 413.544C283.177 412.625 283.339 411.715 283.63 410.844C284.179 408.695 284.905 406.596 285.803 404.568C286.693 402.536 287.749 400.582 288.96 398.724C289.421 397.927 289.982 397.194 290.629 396.54Z" fill="#FAFAFA"/>
<path d="M348.827 373.308C346.515 373.082 344.248 372.528 342.092 371.664C339.869 370.986 337.749 370.009 335.79 368.76C335.874 368.592 338.707 369.816 342.296 371.064C345.886 372.312 348.875 373.128 348.827 373.308Z" fill="#FAFAFA"/>
<path d="M442.462 353.856C439.655 357.686 435.528 360.341 430.877 361.308C432.983 360.362 435.039 359.309 437.036 358.152C438.916 356.813 440.727 355.379 442.462 353.856Z" fill="#EB996E"/>
<path d="M477.623 345.828C471.165 330.948 406.652 278.124 406.652 278.124L370.279 325.332C370.807 324.624 429.617 360.432 429.617 360.432L446.964 439.488L449.953 453.6C449.953 453.6 442.15 460.404 442.474 467.58C442.678 472.38 431.67 482.712 431.67 482.712C429.053 480.54 427.372 479.928 426.052 480.18L414.347 491.136L417.132 493.68C420.237 496.511 424.324 498.022 428.525 497.892L448.536 497.28C451.39 497.197 454.099 496.005 456.087 493.956C462.245 487.632 475.234 473.484 475.486 466.668C475.642 462.852 475.666 459.216 475.654 456.288C475.594 456.252 484.069 360.708 477.623 345.828Z" fill="#FFBE9D"/>
<path d="M458.464 472.248C458.133 472.546 457.756 472.79 457.347 472.968C456.615 473.376 455.487 473.856 454.178 474.576C452.671 475.445 451.339 476.589 450.253 477.948C448.878 479.661 447.26 481.165 445.451 482.412C442.105 484.638 438.133 485.732 434.119 485.532C433.415 485.531 432.716 485.409 432.054 485.172C431.786 485.078 431.552 484.907 431.382 484.68C431.211 484.454 431.11 484.183 431.093 483.9C431.082 483.723 431.115 483.546 431.188 483.385C431.261 483.224 431.373 483.083 431.514 482.976C431.718 482.856 431.85 482.88 431.85 482.892C431.85 482.904 431.742 482.892 431.586 483.072C431.482 483.178 431.405 483.307 431.361 483.449C431.317 483.591 431.308 483.741 431.334 483.888C431.368 484.114 431.467 484.326 431.618 484.498C431.769 484.67 431.966 484.796 432.186 484.86C432.816 485.048 433.473 485.129 434.131 485.1C438.031 485.175 441.863 484.062 445.115 481.908C446.875 480.696 448.455 479.241 449.808 477.588C450.954 476.197 452.361 475.043 453.95 474.192C455.319 473.508 456.459 473.1 457.227 472.752C457.624 472.548 458.038 472.38 458.464 472.248Z" fill="#EB996E"/>
<path d="M449.316 482.664C449.4 482.82 447.744 483.792 445.967 485.304C444.19 486.816 442.942 488.268 442.798 488.16C443.452 486.851 444.406 485.716 445.583 484.848C446.629 483.824 447.911 483.074 449.316 482.664Z" fill="#EB996E"/>
<path d="M457.371 449.916C457.371 450.096 455.607 450.204 453.674 451.116C451.741 452.028 450.517 453.312 450.385 453.18C451.14 452.048 452.19 451.144 453.421 450.565C454.652 449.985 456.018 449.753 457.371 449.892V449.916Z" fill="#EB996E"/>
<path d="M444.887 488.832C444.887 488.94 443.602 488.316 441.441 487.812C437.847 486.924 434.073 487.083 430.565 488.268C430.174 488.415 429.773 488.535 429.365 488.628C428.917 488.71 428.455 488.61 428.08 488.352L424.959 486C423.953 485.335 423.008 484.579 422.138 483.744C423.216 484.291 424.248 484.925 425.223 485.64L428.453 487.836C428.969 488.232 429.653 487.932 430.409 487.656C431.195 487.383 431.997 487.159 432.81 486.984C435.715 486.41 438.714 486.534 441.561 487.344C442.416 487.587 443.247 487.905 444.046 488.292C444.611 488.616 444.911 488.796 444.887 488.832Z" fill="#EB996E"/>
<path d="M309.152 305.471C301.457 303.275 298.048 302.327 298.048 302.327V298.799H301.109C304.182 298.799 308.6 294.971 308.6 294.971L315.166 284.927L316.006 278.483C315.31 270.539 305.731 273.683 305.731 273.683C305.274 270.911 293.006 268.127 283.786 266.411C280.699 265.835 277.521 265.951 274.484 266.752C271.446 267.553 268.625 269.019 266.224 271.043L257.376 278.507L230.87 301.679L162.445 359.459L117.464 346.187C117.464 346.187 103.155 389.927 100.838 405.599C96.36 435.707 137.764 455.771 156.058 440.279C170.248 428.279 253.007 339.143 266.716 324.371H266.824C275.227 323.303 289.488 314.771 289.488 314.771L296.799 315.635C296.799 315.635 316.223 319.343 318.527 315.539C320.256 312.599 316.847 307.667 309.152 305.471Z" fill="#FFBE9D"/>
<path d="M269.309 296.736C269.309 296.736 269.501 297.012 269.729 297.576C270.062 298.372 270.327 299.195 270.521 300.036C271.174 302.817 271.28 305.698 270.833 308.52C270.391 311.343 269.396 314.051 267.904 316.488C267.461 317.226 266.955 317.925 266.392 318.576C265.996 319.044 265.755 319.284 265.719 319.248C265.683 319.212 266.488 318.144 267.52 316.272C270.246 311.356 271.159 305.64 270.101 300.12C269.681 298.02 269.201 296.772 269.309 296.736Z" fill="#EB996E"/>
<path d="M274.267 272.232C274.511 272.169 274.76 272.125 275.011 272.1C275.515 272.028 276.211 271.932 277.184 271.848C279.866 271.553 282.575 271.581 285.251 271.932C287.108 272.205 288.915 272.747 290.617 273.54C292.593 274.439 294.338 275.777 295.719 277.452C297.293 279.316 298.164 281.672 298.18 284.112C298.157 285.405 297.832 286.675 297.231 287.82C296.591 288.974 295.782 290.025 294.83 290.94C293.035 292.674 291.068 294.222 288.96 295.56C287.963 296.231 286.906 296.81 285.803 297.288C285.231 297.515 284.617 297.617 284.002 297.588C283.682 297.572 283.37 297.49 283.084 297.345C282.799 297.2 282.547 296.997 282.346 296.748C281.976 296.255 281.793 295.647 281.829 295.032C281.842 294.471 281.943 293.916 282.13 293.388C282.476 292.407 282.948 291.475 283.534 290.616C284.592 289.066 286.009 287.794 287.664 286.908L287.736 287.328L279.549 285.768L277.328 285.312C277.064 285.274 276.807 285.206 276.559 285.108C276.825 285.107 277.09 285.132 277.352 285.18L279.585 285.528L287.808 286.884L288.444 286.992L287.88 287.304C286.31 288.179 284.969 289.412 283.966 290.904C283.412 291.729 282.972 292.625 282.658 293.568C282.453 294.015 282.36 294.504 282.385 294.995C282.41 295.486 282.553 295.964 282.802 296.388C283.173 296.731 283.644 296.949 284.146 297.009C284.648 297.069 285.157 296.969 285.599 296.724C286.659 296.262 287.672 295.699 288.624 295.044C290.695 293.728 292.626 292.204 294.386 290.496C295.304 289.688 296.053 288.707 296.59 287.61C297.128 286.512 297.444 285.319 297.519 284.1C297.508 281.801 296.698 279.578 295.226 277.812C293.903 276.195 292.233 274.895 290.341 274.008C288.692 273.216 286.937 272.666 285.131 272.376C282.492 271.989 279.819 271.892 277.16 272.088L274.975 272.22C274.74 272.254 274.502 272.258 274.267 272.232Z" fill="#EB996E"/>
<path d="M305.827 274.056C305.948 274.478 306.016 274.913 306.031 275.352C306.149 276.548 306.197 277.75 306.175 278.952C306.183 282.931 305.152 286.844 303.186 290.304C300.785 294.324 297.027 296.916 293.918 297.324C293.299 297.408 292.669 297.344 292.08 297.135C291.491 296.926 290.96 296.579 290.533 296.124C290.311 295.871 290.139 295.578 290.029 295.26C289.98 295.155 289.959 295.039 289.969 294.924C290.176 295.295 290.426 295.642 290.713 295.956C291.137 296.334 291.642 296.611 292.189 296.765C292.736 296.919 293.311 296.946 293.87 296.844C296.727 296.376 300.353 293.82 302.645 289.956C304.553 286.575 305.611 282.783 305.731 278.904C305.887 275.916 305.719 274.056 305.827 274.056Z" fill="#EB996E"/>
<path d="M288.84 308.328C288.768 308.244 289.392 307.704 290.137 306.624C291.092 305.235 291.686 303.631 291.865 301.956C292.018 300.274 291.741 298.581 291.061 297.036C290.545 295.836 290.041 295.188 290.125 295.128C290.708 295.577 291.167 296.167 291.457 296.844C292.303 298.427 292.663 300.226 292.49 302.013C292.317 303.8 291.619 305.496 290.485 306.888C290.064 307.496 289.499 307.991 288.84 308.328Z" fill="#EB996E"/>
<path d="M277.172 285.6C277.605 286.404 277.741 287.334 277.556 288.228C277.48 289.213 277.193 290.171 276.716 291.036C276.172 292.093 275.486 293.07 274.675 293.94C273.149 295.464 271.31 296.639 269.285 297.384C268.489 297.771 267.645 298.053 266.776 298.224C267.505 297.738 268.287 297.336 269.105 297.024C271.006 296.183 272.739 295.004 274.219 293.544C274.995 292.71 275.664 291.783 276.212 290.784C276.68 289.991 276.99 289.115 277.124 288.204C277.23 287.34 277.246 286.467 277.172 285.6Z" fill="#EB996E"/>
<path d="M328.215 289.128L294.446 307.524C294.446 307.524 312.513 312 328.923 329.34C337.844 338.784 344.826 349.886 349.475 362.016L383.088 339.648C383.088 339.648 364.997 298.68 328.215 289.128Z" fill="#455A64"/>
<path d="M300.4 306.84L327.663 291.24H327.747H327.831C332.651 292.537 337.286 294.445 341.624 296.916C346.553 299.767 351.151 303.155 355.333 307.02C359.97 311.271 364.22 315.925 368.034 320.928C372.169 326.262 375.836 331.943 378.994 337.908L379.126 338.16L378.886 338.316L377.121 339.516L351.167 356.856L350.855 357.06L350.723 356.724C347.054 347.646 342.009 339.187 335.766 331.644C330.805 325.731 325.066 320.516 318.707 316.14C314.559 313.262 310.136 310.802 305.502 308.796C303.87 308.1 302.597 307.596 301.721 307.32L300.737 306.984L300.4 306.864L300.749 306.936L301.757 307.224C302.645 307.5 303.93 307.944 305.574 308.604C310.275 310.539 314.764 312.952 318.971 315.804C325.395 320.156 331.191 325.369 336.198 331.296C342.511 338.865 347.613 347.365 351.324 356.496L350.879 356.364L376.821 339L378.586 337.8L378.478 338.196C375.339 332.269 371.701 326.62 367.602 321.312C363.817 316.333 359.599 311.699 354.997 307.464C350.838 303.615 346.269 300.235 341.372 297.384C337.082 294.911 332.496 292.992 327.723 291.672H327.891L300.4 306.84Z" fill="white"/>
<path d="M355.681 317.928C354.793 323.124 348.214 326.268 340.976 324.948C333.737 323.628 328.563 318.348 329.451 313.152C330.34 307.956 336.918 304.812 344.157 306.132C351.396 307.452 356.533 312.732 355.681 317.928Z" fill="#FAFAFA"/>
<path d="M339.944 319.596L338.743 320.892L337.399 319.584L338.527 318.384C337.561 317.37 336.86 316.133 336.486 314.784L338.755 313.8C339.058 315.054 339.702 316.2 340.616 317.112C341.54 318.012 342.14 318.084 342.489 317.7C343.689 316.404 338.347 313.008 341.084 309.984C342.285 308.712 344.109 308.484 346.126 309.984L347.326 308.712L348.671 310.02L347.53 311.22C348.288 312.055 348.853 313.047 349.187 314.124L346.954 315.168C346.654 314.135 346.106 313.192 345.358 312.42C344.421 311.52 343.785 311.52 343.425 311.916C342.297 313.116 347.591 316.56 344.878 319.56C343.761 320.796 341.936 321.036 339.944 319.596Z" fill="#455A64"/>
<path d="M308.108 302.508C308.108 302.508 313.834 305.412 308.336 309.708L299.933 306.444L308.108 302.508Z" fill="#FAFAFA"/>
<path d="M323.485 293.868C323.485 293.868 329.007 299.7 334.289 293.628L327.783 291.456L323.485 293.868Z" fill="#FAFAFA"/>
<path d="M347.578 348.924C347.578 348.924 355.009 342.924 359.343 351.036L351.047 356.58L347.578 348.924Z" fill="#FAFAFA"/>
<path d="M374.997 331.44C374.997 331.44 369.631 334.8 373.268 341.724L378.766 338.052L374.997 331.44Z" fill="#FAFAFA"/>
<path d="M355.105 350.903C355.091 351.347 354.947 351.776 354.69 352.138C354.433 352.499 354.075 352.777 353.661 352.937C353.246 353.096 352.795 353.13 352.361 353.034C351.928 352.938 351.533 352.716 351.225 352.397C350.917 352.077 350.71 351.674 350.63 351.238C350.55 350.802 350.6 350.352 350.775 349.944C350.949 349.536 351.24 349.189 351.611 348.945C351.982 348.702 352.417 348.573 352.86 348.575C353.161 348.58 353.458 348.644 353.733 348.764C354.009 348.883 354.259 349.056 354.467 349.273C354.676 349.489 354.84 349.744 354.949 350.024C355.059 350.304 355.112 350.603 355.105 350.903Z" fill="#455A64"/>
<path d="M377.626 336.588C377.609 337.028 377.464 337.453 377.207 337.811C376.951 338.169 376.595 338.443 376.183 338.6C375.772 338.757 375.324 338.79 374.894 338.694C374.464 338.598 374.072 338.378 373.766 338.061C373.461 337.744 373.255 337.344 373.175 336.912C373.095 336.479 373.144 336.032 373.316 335.627C373.488 335.222 373.776 334.876 374.143 334.633C374.51 334.39 374.941 334.26 375.381 334.26C375.682 334.264 375.978 334.328 376.254 334.448C376.53 334.568 376.779 334.741 376.988 334.957C377.196 335.174 377.36 335.429 377.47 335.709C377.579 335.989 377.632 336.287 377.626 336.588Z" fill="#455A64"/>
<path d="M331.24 293.64C331.24 294.468 330.04 295.14 328.659 295.14C327.279 295.14 326.09 294.468 326.09 293.64C326.09 292.812 327.291 292.14 328.671 292.14C330.052 292.14 331.24 292.8 331.24 293.64Z" fill="#455A64"/>
<path d="M309.296 306.084C309.413 306.6 309.366 307.141 309.163 307.63C308.959 308.119 308.609 308.532 308.16 308.814C307.711 309.095 307.186 309.23 306.657 309.2C306.128 309.17 305.621 308.976 305.207 308.646C304.793 308.315 304.492 307.864 304.345 307.356C304.198 306.847 304.213 306.305 304.388 305.805C304.563 305.305 304.889 304.871 305.321 304.564C305.753 304.258 306.269 304.092 306.799 304.092C307.393 304.034 307.986 304.21 308.452 304.582C308.918 304.954 309.221 305.492 309.296 306.084Z" fill="#455A64"/>
<path d="M329.992 304.8C329.992 306.072 328.407 307.104 326.45 307.104C324.493 307.104 322.921 306.108 322.921 304.8C322.921 303.492 324.506 302.496 326.462 302.496C328.419 302.496 329.992 303.6 329.992 304.8Z" fill="#FAFAFA"/>
<path d="M358.431 335.664C356.834 336.396 354.829 335.388 354.037 333.42C353.597 332.584 353.495 331.611 353.752 330.702C354.009 329.793 354.605 329.018 355.417 328.536C357.014 327.804 359.019 328.812 359.811 330.792C360.251 331.626 360.352 332.597 360.095 333.503C359.838 334.41 359.242 335.184 358.431 335.664Z" fill="#FAFAFA"/>
<path d="M308.612 294.972L322.477 309.6C322.477 309.6 328.023 315.948 331.756 312.948C335.49 309.948 330.244 304.356 329.14 302.724C328.035 301.092 314.446 284.616 314.446 284.616L308.612 294.972Z" fill="#FFBE9D"/>
<path d="M315.718 281.82C315.664 282.686 315.482 283.539 315.178 284.352C314.606 286.355 313.801 288.285 312.777 290.1C311.733 291.926 310.399 293.572 308.828 294.972C308.21 295.585 307.486 296.081 306.691 296.436C307.267 295.804 307.88 295.207 308.528 294.648C309.961 293.21 311.208 291.597 312.237 289.848C314.626 285.6 315.55 281.748 315.718 281.82Z" fill="#EB996E"/>
<path d="M186.766 338.916C186.571 339.149 186.354 339.362 186.118 339.552L184.185 341.28L176.982 347.532C170.872 352.776 162.385 359.988 152.973 367.848C143.562 375.708 134.81 382.8 128.448 387.696C125.279 390.192 122.674 392.148 120.849 393.492L118.736 394.992C118.501 395.181 118.248 395.346 117.98 395.484C118.194 395.272 118.423 395.076 118.664 394.896L120.705 393.288C122.482 391.896 125.039 389.892 128.172 387.36C134.45 382.308 143.045 375.228 152.505 367.368C161.964 359.508 170.44 352.392 176.682 347.196L184.017 341.088L186.034 339.456C186.261 339.254 186.506 339.074 186.766 338.916Z" fill="#EB996E"/>
</g>
<defs>
<clipPath id="clip0_29_7449">
<rect width="533" height="600" fill="white"/>
</clipPath>
</defs>
</svg>
